<svg width="177" height="202" viewBox="0 0 177 202" fill="none" xmlns="http://www.w3.org/2000/svg">
<path opacity="0.78" d="M176.445 148.874C176.445 150.545 175.259 152.6 173.815 153.435L90.855 201.329C89.4055 202.166 87.0373 202.166 85.5896 201.329L2.63366 153.435C1.1823 152.6 0 150.545 0 148.874V53.0847C0 51.4119 1.1823 49.3602 2.63366 48.5238L85.5896 0.627303C87.0373 -0.209101 89.4055 -0.209101 90.855 0.627303L173.815 48.5238C175.259 49.3602 176.445 51.4119 176.445 53.0847V148.874Z" fill="white"/>
<path d="M174.283 147.704C174.283 149.333 173.128 151.334 171.721 152.152L90.791 198.872C89.378 199.688 87.0665 199.688 85.6554 198.872L4.73103 152.152C3.31628 151.336 2.16144 149.333 2.16144 147.704V54.256C2.16144 52.6253 3.31628 50.6212 4.73103 49.805L85.6572 3.08529C87.0665 2.26902 89.378 2.26902 90.7928 3.08529L171.723 49.805C173.132 50.6194 174.285 52.6253 174.285 54.256L174.283 147.704Z" fill="url(#paint0_linear_9_2666)"/>
<mask id="mask0_9_2666" style="mask-type:luminance" maskUnits="userSpaceOnUse" x="2" y="2" width="173" height="198">
<path d="M174.281 147.704C174.281 149.333 173.126 151.334 171.719 152.152L90.7892 198.872C89.3763 199.688 87.0647 199.688 85.6536 198.872L4.72743 152.152C3.31268 151.336 2.15784 149.333 2.15784 147.704V54.256C2.15784 52.6253 3.31268 50.6212 4.72743 49.805L85.6536 3.08529C87.0647 2.26902 89.3744 2.26902 90.7892 3.08529L171.719 49.805C173.128 50.6194 174.281 52.6253 174.281 54.256V147.704Z" fill="white"/>
</mask>
<g mask="url(#mask0_9_2666)">
<path opacity="0.4" d="M162.257 94.8389L27.7368 175.062L-5.51249 158.59L-12.8333 80.5011L78.8893 23.9276L162.257 94.8389Z" fill="url(#paint1_linear_9_2666)"/>
</g>
<mask id="mask1_9_2666" style="mask-type:luminance" maskUnits="userSpaceOnUse" x="2" y="2" width="173" height="198">
<path d="M174.281 147.704C174.281 149.333 173.126 151.334 171.719 152.152L90.7892 198.872C89.3763 199.688 87.0647 199.688 85.6536 198.872L4.72743 152.152C3.31268 151.336 2.15784 149.333 2.15784 147.704V54.256C2.15784 52.6253 3.31268 50.6212 4.72743 49.805L85.6536 3.08529C87.0647 2.26902 89.3744 2.26902 90.7892 3.08529L171.719 49.805C173.128 50.6194 174.281 52.6253 174.281 54.256V147.704Z" fill="white"/>
</mask>
<g mask="url(#mask1_9_2666)">
<path opacity="0.4" d="M143.497 150.887L65.5598 196.415L15.8404 166.523L93.928 118.937L143.497 150.887Z" fill="url(#paint2_linear_9_2666)"/>
</g>
<path d="M99.3855 160.889C99.3855 163.572 97.2112 165.747 94.53 165.747H75.4025C72.7194 165.747 70.5469 163.572 70.5469 160.889C70.5469 158.208 72.7212 156.036 75.4025 156.036H94.53C97.2094 156.036 99.3855 158.21 99.3855 160.889Z" fill="white"/>
<path d="M99.3856 160.889C99.3856 158.208 97.2113 156.036 94.53 156.036H85.0386V165.748H94.53C97.2094 165.748 99.3856 163.572 99.3856 160.889Z" fill="#FF7C24"/>
<path d="M75.4007 165.748H85.0368V160.926H70.5452C70.5654 163.594 72.7268 165.748 75.4007 165.748Z" fill="#E5F2FA"/>
<path d="M94.5264 165.748C97.1948 165.748 99.3617 163.594 99.3819 160.926H85.0349V165.748H94.5264Z" fill="#E1A04A"/>
<path d="M86.9273 169.229C86.9273 171.911 84.753 174.085 82.0736 174.085H62.9425C60.2612 174.085 58.0888 171.909 58.0888 169.229C58.0888 166.546 60.263 164.374 62.9425 164.374H82.0736C84.7512 164.374 86.9273 166.546 86.9273 169.229Z" fill="white"/>
<path d="M86.9274 169.229C86.9274 166.546 84.7531 164.374 82.0737 164.374H72.5822V174.087H82.0737C84.7513 174.085 86.9274 171.911 86.9274 169.229Z" fill="#FF7C24"/>
<path d="M62.9408 174.085H72.5786V169.264H58.087C58.1072 171.931 60.2687 174.085 62.9408 174.085Z" fill="#E5F2FA"/>
<path d="M82.0701 174.085C84.7403 174.085 86.9055 171.929 86.9219 169.264H72.5786V174.085H82.0701Z" fill="#E1A04A"/>
<path d="M78.5176 146.103C78.5176 148.744 76.3763 150.883 73.7389 150.883H45.8502C43.2129 150.883 41.0716 148.744 41.0716 146.103V125.127C41.0716 122.488 43.2129 120.346 45.8502 120.346H73.7389C76.3763 120.346 78.5176 122.488 78.5176 125.127V146.103Z" fill="white"/>
<path d="M71.4475 107.597H48.1417V129.111H71.4475V107.597Z" fill="white"/>
<path d="M41.0698 125.127V146.103C41.0698 148.744 43.2111 150.883 45.8484 150.883H60.243V120.346H45.8484C43.2111 120.346 41.0698 122.488 41.0698 125.127Z" fill="#E5F2FA"/>
<path opacity="0.4" d="M71.6068 116.256L61.903 128.696L40.7312 125.013L48.2808 115.992L71.6068 116.256Z" fill="url(#paint3_linear_9_2666)"/>
<path d="M75.7448 116.362V108.791C75.7448 106.151 73.964 104.012 71.766 104.012H48.5498C46.3536 104.012 44.5709 106.151 44.5709 108.791V116.362H75.7448Z" fill="#E5F2FA"/>
<path d="M73.5962 114.087C73.5962 114.428 73.2923 114.704 72.9135 114.704C72.5346 114.704 72.229 114.429 72.229 114.087V107.403C72.229 107.063 72.5346 106.79 72.9135 106.79C73.2923 106.79 73.5962 107.063 73.5962 107.403V114.087Z" fill="white"/>
<path d="M70.7631 114.087C70.7631 114.428 70.4574 114.704 70.0786 114.704C69.6997 114.704 69.3959 114.429 69.3959 114.087V107.403C69.3959 107.063 69.6997 106.79 70.0786 106.79C70.4574 106.79 70.7631 107.063 70.7631 107.403V114.087Z" fill="white"/>
<path d="M67.9298 114.087C67.9298 114.428 67.6224 114.704 67.2435 114.704C66.8647 114.704 66.559 114.429 66.559 114.087V107.403C66.559 107.063 66.8647 106.79 67.2435 106.79C67.6224 106.79 67.9298 107.063 67.9298 107.403V114.087Z" fill="white"/>
<path d="M65.0931 114.087C65.0931 114.428 64.7874 114.704 64.4086 114.704C64.0334 114.704 63.7259 114.429 63.7259 114.087V107.403C63.7259 107.063 64.0334 106.79 64.4086 106.79C64.7874 106.79 65.0931 107.063 65.0931 107.403V114.087Z" fill="white"/>
<path d="M62.2599 114.087C62.2599 114.428 61.9524 114.704 61.5754 114.704C61.1947 114.704 60.8909 114.429 60.8909 114.087V107.403C60.8909 107.063 61.1947 106.79 61.5754 106.79C61.9524 106.79 62.2599 107.063 62.2599 107.403V114.087Z" fill="white"/>
<path d="M59.4267 114.087C59.4267 114.428 59.1192 114.704 58.7404 114.704C58.3652 114.704 58.0577 114.429 58.0577 114.087V107.403C58.0577 107.063 58.3652 106.79 58.7404 106.79C59.1192 106.79 59.4267 107.063 59.4267 107.403V114.087Z" fill="white"/>
<path d="M56.59 114.087C56.59 114.428 56.2843 114.704 55.9073 114.704C55.5302 114.704 55.2228 114.429 55.2228 114.087V107.403C55.2228 107.063 55.5302 106.79 55.9073 106.79C56.2843 106.79 56.59 107.063 56.59 107.403V114.087Z" fill="white"/>
<path d="M53.7568 114.087C53.7568 114.428 53.4493 114.704 53.0723 114.704C52.6934 114.704 52.3878 114.429 52.3878 114.087V107.403C52.3878 107.063 52.6934 106.79 53.0723 106.79C53.4493 106.79 53.7568 107.063 53.7568 107.403V114.087Z" fill="white"/>
<path d="M50.9218 114.087C50.9218 114.428 50.6143 114.704 50.2373 114.704C49.8603 114.704 49.5528 114.429 49.5528 114.087V107.403C49.5528 107.063 49.8603 106.79 50.2373 106.79C50.6143 106.79 50.9218 107.063 50.9218 107.403V114.087Z" fill="white"/>
<path d="M48.0868 114.087C48.0868 114.428 47.7793 114.704 47.4023 114.704C47.0252 114.704 46.7178 114.429 46.7178 114.087V107.403C46.7178 107.063 47.0252 106.79 47.4023 106.79C47.7793 106.79 48.0868 107.063 48.0868 107.403V114.087Z" fill="white"/>
<path d="M162.568 93.5322C162.568 94.2131 162.026 94.7676 161.347 94.7676H80.6572C79.98 94.7676 79.4346 94.2131 79.4346 93.5322V32.9506C79.4346 32.2734 79.98 31.717 80.6572 31.717H161.347C162.026 31.717 162.568 32.2734 162.568 32.9506V93.5322Z" fill="#E5F2FA"/>
<path d="M162.517 80.7226C162.464 80.7775 150.873 93.9587 150.873 93.9916H79.6927C79.0082 93.9916 78.4554 93.4371 78.4554 92.7562V32.1783C78.4554 31.4974 79.0082 30.9465 79.6927 30.9465H161.281C161.968 30.9465 162.517 31.4974 162.517 32.1783V80.7226Z" fill="white"/>
<path d="M152.91 80.8104H162.541L150.924 94.0648V82.8017C150.924 81.7036 151.814 80.8104 152.91 80.8104Z" fill="#9FC3D3"/>
<path d="M95.9852 53.3538H89.4312V58.0428H95.9852V53.3538Z" fill="#9FC3D3"/>
<path d="M105.423 53.3538H98.8732V58.0428H105.423V53.3538Z" fill="#9FC3D3"/>
<path d="M114.866 53.3538H108.312V58.0428H114.866V53.3538Z" fill="#E1A04A"/>
<path d="M124.306 53.3538H117.754V58.0428H124.306V53.3538Z" fill="#9FC3D3"/>
<path d="M133.748 53.3538H127.192V58.0428H133.748V53.3538Z" fill="#9FC3D3"/>
<path d="M143.183 53.3538H136.636V58.0428H143.183V53.3538Z" fill="#9FC3D3"/>
<path d="M152.628 53.3538H146.074V58.0428H152.628V53.3538Z" fill="#9FC3D3"/>
<path d="M124.306 45.0941H117.754V49.7812H124.306V45.0941Z" fill="#9FC3D3"/>
<path d="M133.748 45.0941H127.192V49.7812H133.748V45.0941Z" fill="#9FC3D3"/>
<path d="M143.183 45.0941H136.636V49.7812H143.183V45.0941Z" fill="#9FC3D3"/>
<path d="M152.628 45.0941H146.074V49.7812H152.628V45.0941Z" fill="#9FC3D3"/>
<path d="M95.9852 62.0016H89.4312V66.6924H95.9852V62.0016Z" fill="#9FC3D3"/>
<path d="M105.423 62.0016H98.8732V66.6924H105.423V62.0016Z" fill="#9FC3D3"/>
<path d="M114.866 62.0016H108.312V66.6924H114.866V62.0016Z" fill="#9FC3D3"/>
<path d="M124.306 62.0016H117.754V66.6924H124.306V62.0016Z" fill="#9FC3D3"/>
<path d="M133.748 62.0016H127.192V66.6924H133.748V62.0016Z" fill="#9FC3D3"/>
<path d="M143.183 62.0016H136.636V66.6924H143.183V62.0016Z" fill="#9FC3D3"/>
<path d="M152.628 62.0016H146.074V66.6924H152.628V62.0016Z" fill="#9FC3D3"/>
<path d="M95.9852 70.6528H89.4312V75.3418H95.9852V70.6528Z" fill="#9FC3D3"/>
<path d="M105.423 70.6528H98.8732V75.3418H105.423V70.6528Z" fill="#9FC3D3"/>
<path d="M114.866 70.6528H108.312V75.3418H114.866V70.6528Z" fill="#9FC3D3"/>
<path d="M124.306 70.6528H117.754V75.3418H124.306V70.6528Z" fill="#9FC3D3"/>
<path d="M133.748 70.6528H127.192V75.3418H133.748V70.6528Z" fill="#9FC3D3"/>
<path d="M143.183 70.6528H136.636V75.3418H143.183V70.6528Z" fill="#9FC3D3"/>
<path d="M152.628 70.6528H146.074V75.3418H152.628V70.6528Z" fill="#9FC3D3"/>
<path d="M95.9852 79.3025H89.4312V83.9896H95.9852V79.3025Z" fill="#9FC3D3"/>
<path d="M105.423 79.3025H98.8732V83.9896H105.423V79.3025Z" fill="#9FC3D3"/>
<path d="M114.866 79.3025H108.312V83.9896H114.866V79.3025Z" fill="#9FC3D3"/>
<path d="M162.542 38.6701V25.0698C162.542 24.3908 161.988 23.8381 161.303 23.8381H79.7164C79.0338 23.8381 78.4811 24.3908 78.4811 25.0698V38.6701H162.542Z" fill="#E1A04A"/>
<path d="M86.8671 28.0402C86.8671 28.8253 86.3747 29.4751 85.7763 29.4751H85.6994C85.1009 29.4751 84.6086 28.8253 84.6086 28.0402V22.5166C84.6086 21.7315 85.1009 21.0799 85.6994 21.0799H85.7763C86.3747 21.0799 86.8671 21.7333 86.8671 22.5166V28.0402Z" fill="#0A3960"/>
<path d="M93.82 28.0402C93.82 28.8253 93.3295 29.4751 92.731 29.4751H92.6505C92.0539 29.4751 91.5634 28.8253 91.5634 28.0402V22.5166C91.5634 21.7315 92.0539 21.0799 92.6505 21.0799H92.731C93.3277 21.0799 93.82 21.7333 93.82 22.5166V28.0402Z" fill="#0A3960"/>
<path d="M100.777 28.0402C100.777 28.8253 100.286 29.4751 99.6858 29.4751H99.6108C99.0105 29.4751 98.52 28.8253 98.52 28.0402V22.5166C98.52 21.7315 99.0105 21.0799 99.6108 21.0799H99.6858C100.286 21.0799 100.777 21.7333 100.777 22.5166V28.0402Z" fill="#0A3960"/>
<path d="M107.733 28.0402C107.733 28.8253 107.239 29.4751 106.644 29.4751H106.564C105.965 29.4751 105.475 28.8253 105.475 28.0402V22.5166C105.475 21.7315 105.965 21.0799 106.564 21.0799H106.644C107.239 21.0799 107.733 21.7333 107.733 22.5166V28.0402Z" fill="#0A3960"/>
<path d="M114.684 28.0402C114.684 28.8253 114.194 29.4751 113.597 29.4751H113.515C112.922 29.4751 112.43 28.8253 112.43 28.0402V22.5166C112.43 21.7315 112.922 21.0799 113.515 21.0799H113.597C114.194 21.0799 114.684 21.7333 114.684 22.5166V28.0402Z" fill="#0A3960"/>
<path d="M121.639 28.0402C121.639 28.8253 121.147 29.4751 120.554 29.4751H120.475C119.878 29.4751 119.386 28.8253 119.386 28.0402V22.5166C119.386 21.7315 119.877 21.0799 120.475 21.0799H120.554C121.147 21.0799 121.639 21.7333 121.639 22.5166V28.0402Z" fill="#0A3960"/>
<path d="M128.596 28.0402C128.596 28.8253 128.103 29.4751 127.507 29.4751H127.426C126.826 29.4751 126.341 28.8253 126.341 28.0402V22.5166C126.341 21.7315 126.826 21.0799 127.426 21.0799H127.507C128.102 21.0799 128.596 21.7333 128.596 22.5166V28.0402Z" fill="#0A3960"/>
<path d="M135.549 28.0402C135.549 28.8253 135.058 29.4751 134.458 29.4751H134.383C133.783 29.4751 133.294 28.8253 133.294 28.0402V22.5166C133.294 21.7315 133.783 21.0799 134.383 21.0799H134.458C135.056 21.0799 135.549 21.7333 135.549 22.5166V28.0402Z" fill="#0A3960"/>
<path d="M142.503 28.0402C142.503 28.8253 142.015 29.4751 141.413 29.4751H141.336C140.743 29.4751 140.252 28.8253 140.252 28.0402V22.5166C140.252 21.7315 140.743 21.0799 141.336 21.0799H141.413C142.013 21.0799 142.503 21.7333 142.503 22.5166V28.0402Z" fill="#0A3960"/>
<path d="M149.46 28.0402C149.46 28.8253 148.97 29.4751 148.371 29.4751H148.291C147.698 29.4751 147.2 28.8253 147.2 28.0402V22.5166C147.2 21.7315 147.696 21.0799 148.291 21.0799H148.371C148.97 21.0799 149.46 21.7333 149.46 22.5166V28.0402Z" fill="#0A3960"/>
<path d="M156.415 28.0402C156.415 28.8253 155.923 29.4751 155.326 29.4751H155.245C154.649 29.4751 154.156 28.8253 154.156 28.0402V22.5166C154.156 21.7315 154.649 21.0799 155.245 21.0799H155.326C155.923 21.0799 156.415 21.7333 156.415 22.5166V28.0402Z" fill="#0A3960"/>
<path d="M52.9937 65.3013H20.621V117.713H52.9937V65.3013Z" fill="#E1A04A"/>
<path d="M52.9954 68.9617H36.8091V117.713H52.9954V68.9617Z" fill="#FF7C24"/>
<path d="M48.8519 82.2618H29.5798V95.7487H48.8519V82.2618Z" fill="white"/>
<path d="M36.8091 82.2618H29.5798V95.7487H36.8091V82.2618Z" fill="#E5F2FA"/>
<path opacity="0.4" d="M55.2466 68.9086L33.4361 96.8101L13.5435 81.2588L23.0313 68.1931L55.2466 68.9086Z" fill="url(#paint4_linear_9_2666)"/>
<path d="M57.3129 53.3556H17.074V71.8479H57.3129V53.3556Z" fill="white"/>
<path d="M129.573 139.95C127.499 141.945 124.203 141.877 122.21 139.802C120.221 137.728 120.283 134.432 122.36 132.441L156.091 103.359C158.166 101.367 159.795 99.6963 161.792 101.774C163.781 103.847 162.052 105.408 159.976 107.4L129.573 139.95Z" fill="#0A3960"/>
<path d="M158.426 118.987C158.426 141.998 143.982 155.845 126.172 155.845C108.363 155.845 93.9207 142 93.9207 118.987H158.426Z" fill="white"/>
<path d="M126.172 155.845C126.308 155.845 126.44 155.827 126.575 155.827V118.987H93.9207C93.9207 141.998 108.363 155.845 126.172 155.845Z" fill="#E5F2FA"/>
<path d="M134.121 175.626C134.121 178.864 131.495 181.488 128.263 181.488H105.175C101.937 181.488 99.3142 178.862 99.3142 175.626C99.3142 172.389 101.939 169.768 105.175 169.768H128.263C131.497 169.768 134.121 172.39 134.121 175.626Z" fill="white"/>
<path d="M134.121 175.626C134.121 172.389 131.495 169.768 128.263 169.768H116.806V181.488H128.263C131.497 181.488 134.121 178.864 134.121 175.626Z" fill="#E01212"/>
<path d="M105.173 181.488H116.804V175.67H99.3124C99.3362 178.888 101.948 181.488 105.173 181.488Z" fill="#E5F2FA"/>
<path d="M128.259 181.488C131.484 181.488 134.095 178.888 134.116 175.67H116.804V181.488H128.259Z" fill="#BC0202"/>
<defs>
<linearGradient id="paint0_linear_9_2666" x1="45.1923" y1="-19.417" x2="255.576" y2="243.875" gradientUnits="userSpaceOnUse">
<stop stop-color="#1678F2"/>
<stop offset="1" stop-color="#65A8FB"/>
</linearGradient>
<linearGradient id="paint1_linear_9_2666" x1="4.64224" y1="171.175" x2="137.412" y2="64.0462" gradientUnits="userSpaceOnUse">
<stop offset="0.011" stop-color="white"/>
<stop offset="0.1138" stop-color="#FAFAFA"/>
<stop offset="0.2362" stop-color="#ECECEC"/>
<stop offset="0.3684" stop-color="#D4D4D4"/>
<stop offset="0.5076" stop-color="#B2B2B2"/>
<stop offset="0.6525" stop-color="#878787"/>
<stop offset="0.802" stop-color="#525252"/>
<stop offset="0.9525" stop-color="#151515"/>
<stop offset="1"/>
</linearGradient>
<linearGradient id="paint2_linear_9_2666" x1="43.9142" y1="201.315" x2="128.874" y2="132.763" gradientUnits="userSpaceOnUse">
<stop offset="0.011" stop-color="white"/>
<stop offset="0.1557" stop-color="#FCFCFC"/>
<stop offset="0.2826" stop-color="#F1F1F1"/>
<stop offset="0.4029" stop-color="#DFDFDF"/>
<stop offset="0.5191" stop-color="#C5C5C5"/>
<stop offset="0.6326" stop-color="#A5A5A5"/>
<stop offset="0.7438" stop-color="#7D7D7D"/>
<stop offset="0.8532" stop-color="#4D4D4D"/>
<stop offset="0.9586" stop-color="#171717"/>
<stop offset="1"/>
</linearGradient>
<linearGradient id="paint3_linear_9_2666" x1="54.4597" y1="127.363" x2="59.051" y2="109.285" gradientUnits="userSpaceOnUse">
<stop offset="0.1044" stop-color="white"/>
<stop offset="0.206" stop-color="#FBFBFB"/>
<stop offset="0.2967" stop-color="#F1F1F1"/>
<stop offset="0.3832" stop-color="#DEDEDE"/>
<stop offset="0.4673" stop-color="#C5C5C5"/>
<stop offset="0.5494" stop-color="#A4A4A4"/>
<stop offset="0.6302" stop-color="#7B7B7B"/>
<stop offset="0.71" stop-color="#4B4B4B"/>
<stop offset="0.7869" stop-color="#141414"/>
<stop offset="0.8132"/>
</linearGradient>
<linearGradient id="paint4_linear_9_2666" x1="24.1269" y1="92.5408" x2="43.3962" y2="59.781" gradientUnits="userSpaceOnUse">
<stop offset="0.1044" stop-color="white"/>
<stop offset="0.206" stop-color="#FBFBFB"/>
<stop offset="0.2967" stop-color="#F1F1F1"/>
<stop offset="0.3832" stop-color="#DEDEDE"/>
<stop offset="0.4673" stop-color="#C5C5C5"/>
<stop offset="0.5494" stop-color="#A4A4A4"/>
<stop offset="0.6302" stop-color="#7B7B7B"/>
<stop offset="0.71" stop-color="#4B4B4B"/>
<stop offset="0.7869" stop-color="#141414"/>
<stop offset="0.8132"/>
</linearGradient>
</defs>
</svg>
