<svg width="320" height="320" viewBox="0 0 320 320" fill="none" xmlns="http://www.w3.org/2000/svg">
<path d="M240 240C284.183 195.817 284.183 124.183 240 80C195.817 35.8172 124.183 35.8172 80 79.9999C35.8172 124.183 35.8172 195.817 80 240C124.183 284.183 195.817 284.183 240 240Z" fill="url(#paint0_linear_16_4166)"/>
<path d="M185.543 162.518C180.687 155.843 172.358 152.458 160.789 152.458C147.683 152.458 138.452 155.942 133.352 162.814C133.349 162.818 133.347 162.822 133.344 162.826C134.338 162.552 136.314 161.909 138.738 160.613C143.709 156.74 151.097 154.781 160.789 154.781C169.241 154.781 175.795 156.663 180.351 160.385C181.959 161.186 184.349 162.164 185.663 162.688C185.623 162.632 185.584 162.574 185.543 162.518Z" fill="#010101"/>
<path d="M159.512 249.186C159.515 249.186 159.519 249.186 159.522 249.186V249.186C159.519 249.186 159.515 249.186 159.512 249.186Z" fill="#F26428"/>
<path d="M52.8249 193.671C52.5743 191.524 51.6876 189.608 50.3776 188.084C51.2106 191.345 52.1848 194.55 53.2943 197.691L52.8249 193.671Z" fill="#F9F9FA"/>
<path d="M203.271 226.89C202.613 215.488 202.359 204.497 202.327 194.666L202.318 194.641L202.327 194.606C202.327 194.583 202.327 194.559 202.327 194.535L202.343 194.545L210.194 165.436C208.284 163.516 202.197 163.62 202.197 163.62H190.371V163.616C187.384 163.468 184.563 162.693 182.037 161.419C182.02 161.44 182.003 161.461 181.988 161.484L183.217 162.209L188.194 182.624L181.364 184.331L185.917 192.868L162.753 238.689L160.769 244.353V273.133C175.947 273.032 190.416 269.943 203.616 264.424L203.034 225.842L203.271 226.89Z" fill="#F9F9FA"/>
<path d="M160.769 244.353V244.06H159.818V244.495L160.307 245.673L160.769 244.353Z" fill="#E6E6E5"/>
<path d="M160.307 245.673L159.818 244.495V273.137C159.879 273.137 159.941 273.138 160.002 273.138C160.258 273.138 160.513 273.135 160.769 273.133V244.353L160.307 245.673Z" fill="#E6E6E5"/>
<path d="M202.327 194.666C202.327 194.646 202.327 194.626 202.327 194.606L202.318 194.641L202.327 194.666Z" fill="#0B4969"/>
<path d="M159.522 249.186V249.186C159.519 249.186 159.515 249.186 159.512 249.186C159.515 249.186 159.519 249.186 159.522 249.186Z" fill="#4CC4D1"/>
<path d="M156.242 235.87L152.692 230.652L133.591 192.868L138.144 184.331L131.314 182.624L136.291 162.209L137.52 161.484C137.504 161.461 137.487 161.44 137.472 161.419C134.945 162.693 132.124 163.468 129.137 163.616V163.62H118.667C118.668 163.641 118.67 163.662 118.671 163.683C118.604 163.682 118.538 163.678 118.47 163.678C111.605 163.678 106.04 169.243 106.04 176.108C106.04 177.122 106.164 178.107 106.394 179.051L90.8202 208.935L60.6924 214.243L55.3372 215.187L53.2944 197.691C52.1849 194.55 51.2107 191.345 50.3777 188.084C48.5805 185.993 45.985 184.641 43.1273 184.459C42.5075 184.419 41.8761 184.431 41.2372 184.506C35.5065 185.175 31.4034 190.363 32.0724 196.094L35.8688 228.608C36.2025 231.464 37.6989 234.057 40.0058 235.775C41.8217 237.127 44.4512 234.918 46.6835 234.918C47.2869 234.918 47.8936 234.866 48.4962 234.759L65.4533 230.246L71.5529 229.148L99.5171 228.618C102.715 228.054 105.468 226.036 106.969 223.158L118.477 201.074C118.405 202.552 118.331 203.955 118.259 205.261L118.255 206.483L117.369 236.265L116.987 249.068L116.609 264.515C129.919 270.048 144.512 273.112 159.818 273.137V244.495L156.242 235.87ZM159.521 249.187C159.518 249.186 159.515 249.186 159.512 249.186C159.515 249.186 159.518 249.186 159.521 249.186V249.187Z" fill="#F9F9FA"/>
<path d="M173.105 149.441L173.116 149.45V145.255H147.476V151.316H147.39C146.312 153.707 144.796 155.856 142.948 157.667C162.963 159.584 173.105 149.441 173.105 149.441Z" fill="#DDC299"/>
<path d="M173.116 153.358V149.45L173.105 149.441C173.105 149.441 162.963 159.584 142.948 157.667C141.413 159.171 139.65 160.442 137.712 161.419C140.219 164.996 143.57 167.936 147.476 169.951V175.589H147.508V175.973H171.879V175.589H173.116V169.411C176.625 167.409 179.64 164.643 181.939 161.34C178.283 159.584 175.217 156.8 173.116 153.358Z" fill="#EBD1A0"/>
<path d="M177.908 165.698C173.098 170.184 166.652 172.936 159.556 172.936C153.042 172.936 147.084 170.614 142.428 166.765L160.296 245.693L177.908 165.698Z" fill="#4897CC"/>
<path d="M164.875 232.727L168.91 222.851L164.11 177.967L160.317 176.861V176.813L160.235 176.837L160.152 176.813V176.861L156.36 177.967L151.228 225.824L157.335 237.4L160.255 245.577L161.211 243.878L163.6 237.135L164.875 232.727Z" fill="#435C7A"/>
<path d="M166.039 170.597L160.103 169.783L154.166 170.597L153.012 173.894L155.815 178.347L160.103 178.512L164.391 178.347L167.193 173.894L166.039 170.597Z" fill="#435C7A"/>
<path d="M140.795 159.548L159.833 169.783L146.322 183.294L136.291 162.209L140.795 159.548Z" fill="#4CA2DA"/>
<path d="M178.916 159.548L159.878 169.783L173.388 183.294L183.173 162.426L178.916 159.548Z" fill="#4CA2DA"/>
<path d="M192.916 104.756C192.916 81.6502 179.024 74.3749 160.967 74.3749C160.745 74.3749 160.524 74.3773 160.303 74.3813V153.663C178.322 153.589 192.916 127.83 192.916 104.756Z" fill="#FDE9BA"/>
<path d="M159.479 74.4018C142.079 74.9684 127.537 82.2883 127.537 104.756C127.537 127.544 141.774 153.132 159.479 153.64C159.731 153.648 159.978 153.665 160.226 153.665C160.252 153.665 160.277 153.663 160.303 153.663V74.3818C160.028 74.3863 159.754 74.3928 159.479 74.4018Z" fill="#EBD1A0"/>
<path d="M195.092 101.834C194.311 91.501 190.099 84.0266 190.099 84.0266C192.916 71.4531 181.163 67.9513 168.771 67.6486C157.315 67.372 145.315 69.8253 143.765 70.3905C142.085 71.0023 139.723 71.2148 137.852 71.2786C136.134 71.3353 134.824 71.2706 134.824 71.2706C134.894 71.5543 135.17 72.2161 135.44 72.8241C135.721 73.4692 135.995 74.0534 135.995 74.0534C135.666 74.0878 135.067 73.9233 134.346 73.6573C131.838 72.7381 127.784 70.5378 127.784 70.5378C127.347 73.9111 128.153 76.9179 129.07 79.0797C129.986 81.2421 131.01 82.5603 131.01 82.5603C130.275 82.7077 128.223 81.8278 128.223 81.8278C128.812 84.6134 129.399 85.9344 129.399 85.9344C124.988 89.1531 123.966 98.4467 123.885 105.717L131.446 114.545L134.061 108.208C134.116 108.216 134.169 108.218 134.226 108.225C136.071 101.554 137.609 91.5046 137.609 91.5046C157.334 104.168 175.485 94.05 178.621 92.1067C179.216 91.4542 179.531 91.0626 179.531 91.0626C180.649 103.735 189.218 112.306 189.218 112.306C188.503 106.924 194.676 102.704 195.136 102.399C195.155 102.386 195.179 102.369 195.179 102.369C195.155 102.185 195.123 102.016 195.092 101.834Z" fill="#2D4A55"/>
<path d="M188.634 110.146C187.401 114.861 188.278 119.179 190.589 119.787C192.906 120.399 195.78 117.071 197.018 112.354C198.252 107.642 197.374 103.324 195.063 102.713C192.749 102.104 189.872 105.43 188.634 110.146Z" fill="#FDE9BA"/>
<path d="M130.947 110.27C132.23 114.877 131.555 119.09 129.454 119.674C127.353 120.26 124.612 116.999 123.333 112.39C122.055 107.78 122.725 103.57 124.825 102.983C126.929 102.4 129.673 105.66 130.947 110.27Z" fill="#EBD1A0"/>
<path d="M160.296 245.693L142.428 166.765L140.795 159.548L137.52 161.484L136.291 162.209L131.314 182.624L138.144 184.331L133.591 192.868L160.296 245.693Z" fill="#E6E6E5"/>
<path d="M188.743 182.624L183.766 162.209L183.711 162.177L179.145 159.733L177.908 165.698L160.296 245.693L186.467 192.868L181.914 184.331L188.743 182.624Z" fill="#E6E6E5"/>
<path d="M119.661 221.554L37.367 238.169L16.3218 133.931L98.6163 117.316L119.661 221.554Z" fill="#1D626D"/>
<path d="M95.3906 123.673L21.7601 138.539L40.5899 231.803L114.22 216.937L95.3906 123.673Z" fill="white"/>
<path d="M39.4339 165.807L33.947 166.914L32.8395 161.43L38.3266 160.322L39.4339 165.807Z" fill="#2D4A55"/>
<path d="M89.357 150.016L43.8011 159.214L44.9085 164.698L90.4645 155.501L89.357 150.016Z" fill="#2D4A55"/>
<path d="M40.4355 170.74L34.9503 171.848L36.0583 177.333L41.5435 176.225L40.4355 170.74Z" fill="#2D4A55"/>
<path d="M85.718 161.597L45.905 169.635L47.0124 175.12L86.8254 167.082L85.718 161.597Z" fill="#2D4A55"/>
<path d="M42.5296 181.162L37.043 182.27L38.1505 187.755L43.637 186.647L42.5296 181.162Z" fill="#2D4A55"/>
<path d="M85.1459 178.271L49.1175 185.544L48.0096 180.059L84.0386 172.785L85.1459 178.271Z" fill="#2D4A55"/>
<path d="M44.6376 191.582L39.1509 192.69L40.2583 198.175L45.745 197.067L44.6376 191.582Z" fill="#2D4A55"/>
<path d="M96.8367 181.043L50.114 190.476L51.2214 195.961L97.9441 186.528L96.8367 181.043Z" fill="#2D4A55"/>
<path d="M47.8497 207.493L42.363 208.6L41.2555 203.115L46.7424 202.007L47.8497 207.493Z" fill="#2D4A55"/>
<path d="M98.9401 191.464L52.2176 200.897L53.325 206.382L100.048 196.949L98.9401 191.464Z" fill="#2D4A55"/>
<path d="M19.2168 182.359C19.4206 182.359 19.6271 182.344 19.8349 182.314L31.8419 180.599C34.21 180.261 35.8558 178.067 35.5174 175.699C35.1792 173.331 32.989 171.686 30.6168 172.024L18.6096 173.738C16.2416 174.077 14.5959 176.271 14.9343 178.639C15.2428 180.8 17.0958 182.359 19.2168 182.359Z" fill="#EBD1A0"/>
<path d="M18.6013 191.752L30.3636 190.282C32.7374 189.985 34.4212 187.82 34.1246 185.446C33.8277 183.073 31.664 181.392 29.2891 181.686L17.5269 183.156C15.1531 183.452 13.4693 185.617 13.7659 187.991C14.0398 190.183 15.9058 191.786 18.0585 191.786C18.2377 191.786 18.4189 191.775 18.6013 191.752Z" fill="#EBD1A0"/>
<path d="M32.8731 198.842C35.2245 198.401 36.7733 196.138 36.3323 193.786C35.8914 191.435 33.6281 189.887 31.2767 190.327L19.5145 192.532C17.1633 192.973 15.6143 195.236 16.0553 197.588C16.4456 199.669 18.2641 201.122 20.3077 201.122C20.5725 201.122 20.8412 201.098 21.111 201.047L32.8731 198.842Z" fill="#EBD1A0"/>
<path d="M38.5429 202.276C38.1907 200.162 36.1945 198.733 34.0787 199.087L23.5444 200.842C21.4312 201.194 20.0034 203.193 20.3557 205.307C20.6719 207.204 22.3155 208.549 24.1777 208.549C24.3892 208.549 24.6041 208.532 24.8201 208.495L35.3542 206.739C37.4674 206.388 38.8952 204.389 38.5429 202.276Z" fill="#EBD1A0"/>
<path d="M215.516 171.389C218.46 177.623 216.649 184.659 211.47 187.105C206.291 189.55 199.707 186.479 196.763 180.246C193.819 174.012 195.63 166.975 200.809 164.53C205.988 162.084 212.572 165.155 215.516 171.389Z" fill="#F9F9FA"/>
<path d="M159.777 226.297C159.777 227.093 159.132 227.737 158.336 227.737C157.54 227.737 156.896 227.093 156.896 226.297C156.896 225.501 157.54 224.856 158.336 224.856C159.132 224.856 159.777 225.501 159.777 226.297Z" fill="#343337"/>
<path d="M164.161 226.73C164.161 227.525 163.516 228.17 162.721 228.17C161.925 228.17 161.28 227.525 161.28 226.73C161.28 225.934 161.925 225.289 162.721 225.289C163.516 225.289 164.161 225.934 164.161 226.73Z" fill="#343337"/>
<path d="M202.697 228.647C196.502 224.326 183.759 222.151 172.231 221.536L166.62 232.989L203.093 234.706L202.697 228.647Z" fill="#E6E6E5"/>
<path d="M128.983 177.893C129.068 182.283 130.019 185.473 130.06 185.606L132.283 184.934C132.247 184.815 128.764 172.879 135.228 164.185C136.218 162.854 137.39 161.663 138.738 160.613C136.313 161.909 134.338 162.552 133.344 162.826C130.377 166.83 128.869 172.039 128.983 177.893Z" fill="#010101"/>
<path d="M186.107 192.753L187.213 193.11L186.108 192.752L186.107 192.753Z" fill="#010101"/>
<path d="M185.663 162.688C184.349 162.164 181.959 161.186 180.351 160.385C181.606 161.41 182.71 162.574 183.66 163.878C187.84 169.619 188.296 177.119 187.942 182.401C187.553 188.212 186.125 192.699 186.108 192.752L187.213 193.11L188.318 193.467C188.38 193.276 189.84 188.706 190.256 182.618C190.806 174.562 189.217 167.677 185.663 162.688Z" fill="#010101"/>
<path d="M187.421 200.181C191.33 200.181 194.499 197.013 194.499 193.104C194.499 189.195 191.33 186.027 187.421 186.027C183.513 186.027 180.344 189.195 180.344 193.104C180.344 197.013 183.513 200.181 187.421 200.181Z" fill="#E6E6E5"/>
<path d="M187.421 200.69C183.239 200.69 179.836 197.287 179.836 193.104C179.836 188.921 183.239 185.518 187.421 185.518C191.604 185.518 195.007 188.921 195.007 193.104C195.007 197.287 191.604 200.69 187.421 200.69ZM187.421 186.535C183.799 186.535 180.852 189.482 180.852 193.104C180.852 196.726 183.799 199.673 187.421 199.673C191.044 199.673 193.991 196.727 193.991 193.104C193.991 189.482 191.044 186.535 187.421 186.535Z" fill="#010101"/>
<path d="M187.421 198.222C190.248 198.222 192.539 195.93 192.539 193.104C192.539 190.278 190.248 187.987 187.421 187.987C184.595 187.987 182.304 190.278 182.304 193.104C182.304 195.93 184.595 198.222 187.421 198.222Z" fill="#B4B4B4"/>
<path d="M131.587 231.367C125.945 231.067 125.275 227.442 125.249 227.289L121.46 204.624L123.181 204.336L126.971 227.001C126.988 227.086 127.5 229.402 131.679 229.623L131.587 231.367Z" fill="#B4B4B4"/>
<path d="M144.653 228.08C149.89 225.961 149.345 222.316 149.319 222.162L145.53 199.497L143.808 199.785L147.598 222.45C147.609 222.536 147.878 224.892 143.999 226.461L144.653 228.08Z" fill="#B4B4B4"/>
<path d="M133.066 228.585C134.723 228.915 135.894 230.051 135.682 231.123C135.468 232.196 133.952 232.798 132.294 232.469C130.637 232.14 129.466 231.003 129.679 229.931C129.892 228.859 131.409 228.256 133.066 228.585Z" fill="#292728"/>
<path d="M142.337 227.035C140.877 227.886 140.14 229.341 140.69 230.286C141.241 231.23 142.87 231.307 144.331 230.456C145.79 229.606 146.528 228.15 145.978 227.206C145.428 226.261 143.797 226.184 142.337 227.035Z" fill="#292728"/>
<path d="M120.985 205.254C120.952 205.054 120.17 200.281 120.804 195.187C121.691 188.06 124.928 183.83 130.163 182.955C142.577 180.879 145.938 200.102 146.075 200.922L143.494 201.355C143.464 201.18 140.438 183.89 130.595 185.536C126.562 186.211 124.142 189.566 123.402 195.51C122.815 200.229 123.559 204.777 123.567 204.823L120.985 205.254Z" fill="#292728"/>
<path d="M58.3983 137.589C53.8845 138.435 50.9113 142.78 51.7573 147.293C52.6033 151.807 56.9484 154.78 61.4621 153.934C65.9759 153.088 68.9491 148.743 68.103 144.23C67.2569 139.716 62.9119 136.743 58.3983 137.589ZM65.6661 146.388L61.882 147.097L62.5911 150.88L59.2995 151.497L58.5905 147.714L54.8106 148.423L54.1937 145.132L57.9736 144.423L57.2652 140.644L60.5568 140.027L61.2652 143.806L65.0493 143.097L65.6661 146.388Z" fill="#DB4744"/>
<path d="M72.0273 119.827L57.0271 123.327L41.8425 125.921C41.8425 125.921 43.5735 130.726 42.0261 135.824L58.2735 132.544L59.4511 132.306L75.963 128.972C72.5568 124.874 72.0273 119.827 72.0273 119.827Z" fill="#305056"/>
<path d="M76.1374 128.599C76.3337 129.572 75.7054 130.52 74.7323 130.717L43.5372 137.015C42.5643 137.211 41.6143 136.582 41.4178 135.609C41.2212 134.635 41.8527 133.687 42.8258 133.49L74.0205 127.192C74.9938 126.996 75.9408 127.626 76.1374 128.599Z" fill="#2D4A55"/>
<path d="M72.6309 119.878C72.8084 120.757 72.2399 121.613 71.3609 121.79L43.1815 127.48C42.3031 127.657 41.4454 127.089 41.2677 126.211C41.0901 125.33 41.6601 124.474 42.539 124.297L70.7182 118.607C71.5974 118.43 72.453 118.998 72.6309 119.878Z" fill="#2D4A55"/>
<path d="M65.4544 118.937C64.4429 113.927 59.5604 110.685 54.5508 111.697C49.5409 112.708 46.2993 117.59 47.3105 122.6L47.8504 125.274L65.9943 121.611L65.4544 118.937ZM56.5022 121.352C54.5556 121.745 52.659 120.486 52.2664 118.541C51.8735 116.595 53.1331 114.698 55.0791 114.305C57.0237 113.913 58.9207 115.172 59.3135 117.119C59.7063 119.063 58.4467 120.96 56.5022 121.352Z" fill="#2D4A55"/>
<path d="M145.038 205.424C145.038 205.424 146.331 206.876 149.87 207.841L148.798 227.252C148.798 227.252 145.582 226.624 142.472 228.019L145.038 205.424Z" fill="#EBD1A0"/>
<path d="M157 205.188L149.496 204.824C148.457 204.773 147.574 205.574 147.524 206.613L147.045 216.476L146.565 226.339C146.515 227.378 147.316 228.261 148.354 228.311L155.858 228.676C156.896 228.727 157.779 227.925 157.83 226.886L158.309 217.024L158.788 207.16C158.839 206.122 158.038 205.239 157 205.188Z" fill="white"/>
<path d="M120.293 224.683C120.37 223.083 121.701 221.857 123.278 221.827C123.276 221.809 123.27 221.797 123.267 221.786L120.44 221.648C118.771 221.567 117.47 220.137 117.552 218.464C117.633 216.798 119.066 215.494 120.735 215.575L117.699 215.428C116.03 215.347 114.729 213.917 114.81 212.245C114.891 210.579 116.325 209.275 117.994 209.356L105.85 208.766C104.182 208.685 102.881 207.256 102.962 205.583C103.043 203.917 104.477 202.614 106.145 202.695L108.084 202.79L124.361 203.581L126.555 203.687C126.925 203.705 127.271 203.383 127.395 203.031C127.519 202.682 127.403 202.248 127.104 202.026C124.299 199.649 121.414 199.651 121.57 196.431C121.606 195.684 122.034 195.009 122.696 194.661C123.36 194.319 124.156 194.345 124.79 194.739L144.8 205.245C145.268 205.535 145.541 206.06 145.515 206.611C145.385 209.267 144.93 218.636 144.652 224.346C144.53 226.86 142.395 228.801 139.878 228.678C131.743 228.283 123.18 227.867 123.18 227.867C121.512 227.786 120.211 226.356 120.293 224.683Z" fill="#EBD1A0"/>
<path d="M221.383 233.529C221.2 233.529 221.017 233.525 220.833 233.517L150.103 230.57L151.2 204.253L204.966 208.491L193.394 181.085L215.996 172.473L233.084 214.316C235.237 218.485 235.009 223.486 232.485 227.442C230.06 231.243 225.867 233.528 221.383 233.529Z" fill="#F9F9FA"/>
<defs>
<linearGradient id="paint0_linear_16_4166" x1="22.2222" y1="102.222" x2="422.222" y2="173.333" gradientUnits="userSpaceOnUse">
<stop stop-color="#1678F2"/>
<stop offset="1" stop-color="#65A8FB"/>
</linearGradient>
</defs>
</svg>
