<svg width="183" height="202" viewBox="0 0 183 202" fill="none" xmlns="http://www.w3.org/2000/svg">
<path opacity="0.78" d="M182.336 148.873C182.336 150.546 181.15 152.6 179.704 153.436L96.7483 201.331C95.297 202.167 92.9269 202.167 91.481 201.331L8.52508 153.436C7.07372 152.6 5.89142 150.546 5.89142 148.873V53.0842C5.89142 51.4114 7.07372 49.3579 8.52508 48.5215L91.481 0.628676C92.9269 -0.209558 95.297 -0.209558 96.7483 0.628676L179.704 48.5215C181.148 49.3579 182.336 51.4114 182.336 53.0842V148.873Z" fill="white"/>
<path d="M180.176 147.702C180.176 149.333 179.02 151.335 177.61 152.151L96.6843 198.875C95.2695 199.687 92.958 199.687 91.5469 198.875L10.6189 152.151C9.20596 151.335 8.04922 149.333 8.04922 147.702V54.2573C8.04922 52.6266 9.20596 50.6244 10.6189 49.8063L91.5469 3.08663C92.958 2.27036 95.2677 2.27036 96.6843 3.08663L177.61 49.8063C179.022 50.6226 180.176 52.6248 180.176 54.2573V147.702Z" fill="url(#paint0_linear_82_172)"/>
<path opacity="0.5" d="M78.2266 150.682L30.9616 175.889L0 154.792L27.9472 139.997L78.2266 150.682Z" fill="url(#paint1_linear_82_172)"/>
<path opacity="0.5" d="M153.745 42.0773L137.63 52.9561L137.135 57.2497L111.106 74.7849L67.7432 54.2006L126.209 20.1917L153.745 42.0773Z" fill="url(#paint2_linear_82_172)"/>
<path opacity="0.5" d="M160.643 62.0449L161.589 63.0716L161.931 70.4016L162.206 72.9364L165.701 74.2377L165.769 114.378L163.714 116.364L163.027 127.597L128.162 142.255L102.266 82.8671L160.456 45.1246L160.643 62.0449Z" fill="url(#paint3_linear_82_172)"/>
<mask id="mask0_82_172" style="mask-type:luminance" maskUnits="userSpaceOnUse" x="8" y="2" width="173" height="198">
<path d="M180.164 147.682C180.164 149.313 179.005 151.317 177.598 152.131L96.6715 198.853C95.2567 199.669 92.9452 199.669 91.5341 198.853L10.606 152.131C9.19128 151.317 8.03644 149.313 8.03644 147.682V54.2391C8.03644 52.6065 9.19128 50.6061 10.606 49.788L91.5341 3.06835C92.9452 2.25025 95.2549 2.25025 96.6715 3.06835L177.598 49.788C179.007 50.6043 180.164 52.6065 180.164 54.2391V147.682Z" fill="white"/>
</mask>
<g mask="url(#mask0_82_172)">
<path opacity="0.5" d="M142.546 132.803L135.042 137.248L160.732 139.327L156.623 143.489L162.89 145.543L152.205 151.606L159.943 153.079L74.7328 198.836L4.86283 153.354L0.342224 98.2812L48.7933 66.8584L142.546 132.803Z" fill="url(#paint4_linear_82_172)"/>
</g>
<path d="M126.403 29.9798L127.388 15.1295C127.388 15.1295 131.29 12.0749 132.926 12.4995C134.56 12.9277 137.306 13.6196 137.961 14.6042C138.614 15.5889 138.173 30.1134 138.173 30.1134L153.508 31.012C153.508 31.012 155.754 34.5553 155.836 35.1391C155.921 35.7193 155.688 39.3486 155.333 39.9727C154.98 40.5931 153.342 42.3483 153.342 42.3483L138.47 42.136L137.309 56.2066L134.749 57.9892L128.896 57.6104L126.343 54.931L126.257 42.3318L112.667 41.1861C112.667 41.1861 110.638 40.9427 110.123 38.2194C109.607 35.4923 110.852 31.8393 111.893 30.9443C112.933 30.0457 126.403 29.9798 126.403 29.9798Z" fill="white"/>
<path d="M155.842 36.9822L155.847 36.7168C155.864 33.5908 154.48 30.2434 151.358 30.2287L113.687 29.59C110.565 29.5717 109.144 32.9045 109.131 36.0286L109.13 36.2959C109.111 39.42 110.497 42.6009 113.623 42.6229L151.288 43.258C154.414 43.2781 155.829 40.1045 155.842 36.9822ZM153.873 34.4272C153.988 34.5462 153.988 34.7329 153.869 34.8482C153.746 34.9635 153.558 34.9635 153.444 34.8445C153.325 34.7255 153.331 34.5334 153.448 34.4181C153.567 34.3046 153.754 34.3028 153.873 34.4272ZM152.118 34.3924C152.231 34.5077 152.231 34.7017 152.11 34.8189C151.993 34.9342 151.803 34.9287 151.686 34.8116C151.57 34.6944 151.576 34.5041 151.695 34.387C151.81 34.2716 152 34.2735 152.118 34.3924ZM152.818 32.3774C152.934 32.4963 152.93 32.6867 152.813 32.802C152.696 32.9191 152.502 32.9155 152.388 32.7983C152.275 32.6775 152.275 32.489 152.396 32.3719C152.515 32.2584 152.703 32.2584 152.818 32.3774ZM150.362 34.3613C150.48 34.484 150.478 34.6725 150.357 34.7859C150.238 34.9031 150.046 34.8994 149.934 34.7804C149.821 34.6578 149.821 34.4693 149.94 34.3577C150.057 34.2405 150.249 34.2442 150.362 34.3613ZM151.067 32.3481C151.179 32.4652 151.179 32.6574 151.056 32.769C150.939 32.8862 150.75 32.8862 150.63 32.7636C150.514 32.6483 150.522 32.4579 150.639 32.3389C150.758 32.2236 150.946 32.2273 151.067 32.3481ZM148.607 34.3284C148.724 34.4492 148.721 34.6414 148.605 34.7548C148.485 34.8701 148.296 34.8683 148.179 34.7493C148.062 34.6304 148.062 34.4364 148.184 34.3247C148.303 34.2094 148.492 34.2131 148.607 34.3284ZM149.31 32.3152C149.425 32.436 149.42 32.6263 149.305 32.7398C149.184 32.8587 148.995 32.8532 148.88 32.7361C148.763 32.6171 148.765 32.4268 148.885 32.3097C149.003 32.1944 149.195 32.1962 149.31 32.3152ZM146.856 34.2973C146.971 34.4181 146.971 34.6102 146.848 34.7237C146.731 34.839 146.539 34.8372 146.424 34.72C146.308 34.6011 146.312 34.4089 146.427 34.2936C146.55 34.1765 146.737 34.1801 146.856 34.2973ZM147.555 32.284C147.672 32.4012 147.67 32.5934 147.549 32.7105C147.432 32.8258 147.24 32.8221 147.123 32.7013C147.008 32.5824 147.009 32.3957 147.132 32.2786C147.249 32.1633 147.438 32.1651 147.555 32.284ZM145.099 34.2662C145.216 34.3869 145.216 34.5773 145.093 34.6944C144.974 34.8097 144.784 34.8079 144.667 34.6871C144.551 34.57 144.555 34.3778 144.672 34.2607C144.793 34.1472 144.983 34.149 145.099 34.2662ZM142.216 36.4368C142.331 36.5521 142.328 36.7406 142.209 36.8614C142.09 36.973 141.898 36.9694 141.784 36.8541C141.669 36.7333 141.669 36.5466 141.79 36.4276C141.909 36.3105 142.097 36.3123 142.216 36.4368ZM145.798 32.2529C145.917 32.3737 145.917 32.5622 145.794 32.6757C145.673 32.7947 145.483 32.791 145.37 32.672C145.252 32.5513 145.258 32.3609 145.373 32.2474C145.492 32.1303 145.683 32.1321 145.798 32.2529ZM143.343 34.235C143.459 34.354 143.459 34.5462 143.338 34.6615C143.217 34.775 143.029 34.775 142.912 34.656C142.8 34.537 142.8 34.343 142.921 34.2314C143.038 34.1161 143.228 34.1197 143.343 34.235ZM140.463 36.4002C140.576 36.5191 140.571 36.7076 140.455 36.8248C140.336 36.9401 140.146 36.9364 140.031 36.8193C139.914 36.7022 139.916 36.5118 140.036 36.3965C140.157 36.2794 140.344 36.2812 140.463 36.4002ZM144.044 32.2218C144.162 32.3389 144.158 32.5293 144.041 32.6464C143.922 32.7617 143.73 32.7562 143.614 32.6373C143.499 32.5201 143.501 32.328 143.622 32.2145C143.739 32.0992 143.933 32.1047 144.044 32.2218ZM141.588 34.2058C141.705 34.3211 141.704 34.5132 141.583 34.6304C141.464 34.7457 141.274 34.7438 141.16 34.6249C141.043 34.5059 141.045 34.3174 141.164 34.2003C141.285 34.0831 141.475 34.0868 141.588 34.2058ZM142.291 32.1907C142.406 32.3097 142.403 32.4982 142.284 32.6135C142.165 32.7288 141.978 32.7306 141.859 32.608C141.748 32.4927 141.748 32.3005 141.865 32.1852C141.986 32.0681 142.174 32.0681 142.291 32.1907ZM140.536 32.1596C140.653 32.2767 140.648 32.4707 140.532 32.5824C140.412 32.6995 140.219 32.694 140.106 32.5769C139.985 32.4543 139.991 32.2676 140.111 32.1559C140.23 32.037 140.419 32.0388 140.536 32.1596ZM122.289 33.8598C122.406 33.9806 122.399 34.171 122.283 34.2845C122.164 34.4016 121.976 34.3979 121.857 34.279C121.74 34.16 121.745 33.9715 121.866 33.8562C121.983 33.7409 122.172 33.7409 122.289 33.8598ZM122.99 31.8448C123.105 31.9619 123.101 32.1541 122.986 32.2694C122.865 32.3847 122.675 32.3829 122.56 32.2621C122.443 32.1413 122.446 31.9564 122.567 31.8393C122.686 31.724 122.874 31.7258 122.99 31.8448ZM120.536 33.8306C120.649 33.9459 120.647 34.1399 120.528 34.2515C120.407 34.3668 120.217 34.3668 120.104 34.246C119.986 34.1307 119.99 33.9385 120.111 33.8232C120.228 33.7061 120.417 33.7079 120.536 33.8306ZM121.235 31.81C121.352 31.9345 121.35 32.123 121.227 32.2401C121.108 32.3536 120.918 32.3481 120.805 32.2328C120.691 32.1175 120.691 31.9235 120.81 31.81C120.929 31.6892 121.118 31.6947 121.235 31.81ZM118.78 33.7995C118.896 33.9148 118.89 34.1069 118.775 34.2204C118.656 34.3357 118.466 34.3339 118.347 34.2131C118.229 34.0978 118.235 33.9038 118.354 33.7866C118.473 33.6732 118.661 33.6787 118.78 33.7995ZM119.479 31.7826C119.598 31.9034 119.595 32.0919 119.472 32.2053C119.355 32.3206 119.163 32.3188 119.049 32.2017C118.934 32.0827 118.938 31.8942 119.057 31.7789C119.176 31.6599 119.364 31.6618 119.479 31.7826ZM117.724 31.7515C117.84 31.8704 117.84 32.0626 117.719 32.1797C117.602 32.2914 117.41 32.2895 117.292 32.1706C117.181 32.0534 117.184 31.8631 117.301 31.7441C117.417 31.6252 117.607 31.6325 117.724 31.7515ZM112.032 32.0754C111.915 31.9564 111.921 31.7661 112.034 31.6508C112.157 31.5337 112.347 31.5373 112.462 31.6563C112.578 31.7752 112.578 31.9674 112.455 32.0827C112.334 32.1962 112.144 32.1944 112.032 32.0754ZM111.331 34.0886C111.214 33.9733 111.214 33.783 111.333 33.6658C111.454 33.5524 111.646 33.5542 111.762 33.6732C111.875 33.7921 111.875 33.9825 111.756 34.1014C111.637 34.2112 111.445 34.2076 111.331 34.0886ZM113.786 32.1083C113.67 31.9875 113.67 31.799 113.791 31.6837C113.91 31.5666 114.101 31.5684 114.216 31.6874C114.329 31.8064 114.326 31.9949 114.207 32.112C114.091 32.2273 113.901 32.2236 113.786 32.1083ZM110.162 36.2867C110.047 36.1677 110.05 35.9737 110.171 35.8566C110.288 35.7431 110.477 35.7486 110.594 35.8694C110.707 35.9847 110.707 36.1787 110.587 36.2922C110.468 36.4057 110.277 36.402 110.162 36.2867ZM113.087 34.1234C112.969 34.0026 112.971 33.8141 113.092 33.6988C113.207 33.5817 113.401 33.5835 113.515 33.7043C113.628 33.8196 113.628 34.0136 113.507 34.1289C113.394 34.2442 113.202 34.2405 113.087 34.1234ZM115.539 32.1376C115.424 32.0223 115.424 31.8283 115.545 31.713C115.663 31.5977 115.857 31.6032 115.969 31.7185C116.084 31.8356 116.084 32.0296 115.965 32.1431C115.843 32.2584 115.653 32.2566 115.539 32.1376ZM111.955 36.3196C111.84 36.1989 111.842 36.0067 111.957 35.8932C112.08 35.7816 112.268 35.7816 112.386 35.9005C112.501 36.0195 112.497 36.2062 112.378 36.3215C112.261 36.4404 112.071 36.4386 111.955 36.3196ZM114.842 34.1545C114.723 34.0355 114.725 33.8415 114.849 33.7336C114.966 33.6164 115.155 33.6183 115.268 33.7372C115.383 33.8544 115.383 34.0465 115.263 34.16C115.146 34.2771 114.952 34.2716 114.842 34.1545ZM111.251 38.5122C111.136 38.3878 111.139 38.2048 111.258 38.0876C111.377 37.9723 111.568 37.976 111.683 38.0949C111.8 38.2102 111.794 38.4024 111.675 38.5177C111.56 38.6312 111.366 38.633 111.251 38.5122ZM113.709 36.3471C113.592 36.2263 113.597 36.0378 113.718 35.9225C113.835 35.8054 114.025 35.8109 114.137 35.928C114.252 36.0469 114.252 36.2391 114.132 36.3563C114.013 36.4679 113.824 36.4642 113.709 36.3471ZM116.593 34.1875C116.478 34.063 116.482 33.8727 116.599 33.7592C116.718 33.6457 116.91 33.6512 117.023 33.7665C117.144 33.8873 117.137 34.0758 117.018 34.1929C116.899 34.3082 116.71 34.3028 116.593 34.1875ZM113.004 38.5433C112.891 38.4244 112.893 38.2322 113.01 38.1169C113.13 38.0053 113.323 38.0053 113.432 38.1224C113.55 38.2432 113.548 38.4317 113.429 38.5452C113.31 38.6623 113.118 38.6623 113.004 38.5433ZM115.464 36.3782C115.347 36.2592 115.354 36.0707 115.473 35.9573C115.59 35.842 115.779 35.842 115.896 35.9628C116.011 36.0817 116.011 36.2721 115.889 36.3874C115.768 36.5008 115.579 36.499 115.464 36.3782ZM111.875 40.7378C111.758 40.617 111.761 40.4285 111.882 40.3132C111.999 40.1997 112.192 40.1979 112.307 40.3241C112.422 40.4376 112.419 40.6298 112.3 40.7433C112.182 40.8586 111.99 40.8549 111.875 40.7378ZM114.759 38.5745C114.644 38.4555 114.648 38.267 114.765 38.148C114.884 38.0327 115.074 38.0364 115.189 38.1553C115.307 38.2743 115.301 38.4665 115.184 38.5799C115.063 38.6971 114.873 38.6934 114.759 38.5745ZM117.219 36.4112C117.104 36.2922 117.104 36.1019 117.225 35.9884C117.342 35.8749 117.53 35.8749 117.647 35.9939C117.763 36.111 117.763 36.3032 117.642 36.4185C117.525 36.5338 117.334 36.532 117.219 36.4112ZM113.628 40.7689C113.513 40.6499 113.517 40.4577 113.636 40.3424C113.753 40.2271 113.945 40.229 114.058 40.3461C114.176 40.4669 114.174 40.6554 114.051 40.7707C113.934 40.8897 113.749 40.8915 113.628 40.7689ZM116.515 38.6056C116.399 38.4884 116.399 38.2963 116.52 38.1828C116.639 38.0657 116.833 38.0675 116.946 38.1865C117.062 38.3091 117.058 38.4958 116.937 38.6111C116.818 38.7264 116.63 38.7227 116.515 38.6056ZM118.974 36.4441C118.859 36.3251 118.859 36.1348 118.974 36.0158C119.097 35.9024 119.289 35.9079 119.403 36.0268C119.518 36.1439 119.518 36.3343 119.399 36.4496C119.278 36.5649 119.088 36.5576 118.974 36.4441ZM115.385 40.8018C115.27 40.681 115.27 40.487 115.391 40.3754C115.51 40.2637 115.702 40.2656 115.815 40.3809C115.933 40.498 115.931 40.692 115.808 40.8073C115.693 40.9226 115.501 40.9171 115.385 40.8018ZM118.27 38.6385C118.153 38.5177 118.154 38.3274 118.277 38.2121C118.396 38.0968 118.584 38.1023 118.702 38.2176C118.817 38.3365 118.817 38.5287 118.698 38.6458C118.577 38.7593 118.383 38.7556 118.27 38.6385ZM120.728 36.4734C120.612 36.3544 120.614 36.1659 120.735 36.0506C120.852 35.9316 121.042 35.9353 121.158 36.0561C121.269 36.1714 121.269 36.3654 121.152 36.4789C121.035 36.5978 120.845 36.5942 120.728 36.4734ZM117.139 40.8348C117.021 40.7158 117.029 40.5236 117.144 40.4083C117.263 40.2912 117.453 40.2949 117.569 40.4138C117.688 40.5309 117.686 40.7249 117.565 40.8384C117.444 40.9519 117.254 40.9501 117.139 40.8348ZM120.023 38.6715C119.911 38.5488 119.911 38.3585 120.03 38.245C120.149 38.1297 120.342 38.1316 120.455 38.2523C120.568 38.3676 120.567 38.5598 120.448 38.6751C120.331 38.7886 120.138 38.7904 120.023 38.6715ZM122.483 36.5063C122.368 36.3892 122.368 36.1952 122.488 36.0817C122.605 35.9664 122.799 35.9682 122.911 36.0909C123.026 36.2062 123.023 36.3947 122.909 36.5118C122.787 36.6271 122.598 36.6235 122.483 36.5063ZM118.892 40.8604C118.777 40.7433 118.784 40.5547 118.897 40.4376C119.02 40.3241 119.207 40.3241 119.326 40.4449C119.441 40.5639 119.439 40.7542 119.318 40.8714C119.199 40.9867 119.009 40.9812 118.892 40.8604ZM121.776 38.7007C121.665 38.5836 121.665 38.3914 121.787 38.2761C121.903 38.1608 122.097 38.1645 122.208 38.2816C122.324 38.4006 122.325 38.5891 122.205 38.7081C122.082 38.8234 121.892 38.8215 121.776 38.7007ZM120.647 40.8952C120.53 40.7762 120.537 40.5859 120.653 40.4687C120.775 40.3534 120.964 40.3553 121.079 40.476C121.194 40.595 121.191 40.7872 121.074 40.9006C120.955 41.016 120.764 41.0123 120.647 40.8952ZM122.404 40.9263C122.285 40.8091 122.287 40.6188 122.408 40.5017C122.525 40.3827 122.717 40.3864 122.832 40.5053C122.95 40.6279 122.948 40.8165 122.827 40.9318C122.71 41.0489 122.516 41.0452 122.404 40.9263ZM124.157 40.9592C124.042 40.8384 124.044 40.6444 124.163 40.5328C124.282 40.4156 124.472 40.4175 124.589 40.5401C124.701 40.6554 124.701 40.8457 124.582 40.9629C124.463 41.0818 124.275 41.0764 124.157 40.9592ZM125.914 40.9903C125.794 40.8659 125.799 40.6792 125.916 40.5621C126.037 40.4486 126.227 40.4504 126.343 40.5694C126.46 40.6865 126.458 40.8769 126.337 40.994C126.216 41.1111 126.03 41.1093 125.914 40.9903ZM127.668 41.0214C127.552 40.9007 127.556 40.7103 127.673 40.595C127.792 40.4797 127.983 40.4834 128.098 40.6023C128.21 40.7195 128.21 40.9098 128.091 41.0251C127.972 41.1422 127.783 41.1404 127.668 41.0214ZM129.421 41.0526C129.308 40.9318 129.308 40.7433 129.427 40.628C129.549 40.5126 129.741 40.5126 129.851 40.6371C129.967 40.7524 129.963 40.9427 129.846 41.058C129.727 41.177 129.538 41.1715 129.421 41.0526ZM131.176 41.0837C131.061 40.9629 131.065 40.7725 131.178 40.6572C131.301 40.5456 131.489 40.5438 131.606 40.6627C131.724 40.7872 131.722 40.9775 131.597 41.0892C131.48 41.2081 131.292 41.2008 131.176 41.0837ZM132.93 41.1166C132.812 40.9922 132.818 40.8037 132.937 40.6902C133.052 40.5749 133.246 40.5804 133.362 40.6975C133.477 40.8165 133.477 41.005 133.354 41.1221C133.235 41.2356 133.047 41.2337 132.93 41.1166ZM134.685 41.1441C134.57 41.0269 134.57 40.8348 134.692 40.7176C134.813 40.6042 135.001 40.6078 135.117 40.7268C135.234 40.8439 135.232 41.0324 135.111 41.1514C134.99 41.2685 134.802 41.2685 134.685 41.1441ZM136.438 41.177C136.328 41.0617 136.328 40.8714 136.445 40.7506C136.566 40.6389 136.757 40.6408 136.872 40.7597C136.985 40.8769 136.984 41.0672 136.865 41.1843C136.746 41.2996 136.555 41.2941 136.438 41.177ZM138.197 41.21C138.082 41.091 138.082 40.9007 138.202 40.7835C138.321 40.6682 138.512 40.6719 138.625 40.789C138.739 40.9116 138.739 41.1001 138.622 41.2173C138.501 41.3326 138.312 41.3271 138.197 41.21ZM138.916 40.6078C138.171 40.584 124.459 40.3077 124.075 40.2528C123.689 40.1924 123.343 40.2473 123.367 39.4072C123.38 38.7428 123.548 32.9429 123.548 32.9429C123.548 32.9429 123.431 32.1596 124.229 32.0717C124.232 31.9985 124.26 31.9272 124.319 31.8704C124.437 31.7551 124.631 31.7588 124.743 31.8777C124.798 31.9326 124.822 32.004 124.829 32.0736C125.111 32.0791 125.505 32.0864 125.984 32.0955C125.993 32.0278 126.021 31.9564 126.077 31.9052C126.194 31.7899 126.381 31.7899 126.496 31.9089C126.55 31.9638 126.581 32.0388 126.581 32.112C126.936 32.1193 127.324 32.1303 127.737 32.1431C127.745 32.0699 127.77 31.9912 127.829 31.9345C127.948 31.8192 128.138 31.8228 128.253 31.94C128.312 32.0022 128.339 32.0791 128.338 32.1578C128.711 32.1651 129.097 32.1761 129.493 32.1852C129.491 32.1047 129.524 32.026 129.584 31.9674C129.705 31.8503 129.893 31.8539 130.01 31.9766C130.074 32.0388 130.096 32.1212 130.089 32.2017C130.472 32.2127 130.862 32.2236 131.255 32.2346C131.248 32.1486 131.275 32.0626 131.343 32.004C131.46 31.8851 131.65 31.8851 131.766 32.0095C131.83 32.0754 131.853 32.1614 131.844 32.2493C132.234 32.2602 132.622 32.2676 133.01 32.2822C132.999 32.1944 133.025 32.0974 133.094 32.0315C133.215 31.9162 133.406 31.9162 133.519 32.037C133.594 32.1065 133.612 32.2072 133.599 32.2987C133.997 32.3078 134.39 32.3206 134.771 32.3316C134.754 32.2346 134.775 32.1321 134.853 32.0608C134.97 31.9455 135.161 31.9491 135.278 32.0681C135.347 32.1431 135.371 32.2474 135.347 32.3444C135.763 32.3554 136.156 32.3664 136.526 32.3774C136.502 32.2804 136.526 32.1706 136.603 32.0919C136.722 31.9766 136.914 31.9802 137.027 32.101C137.108 32.1797 137.128 32.295 137.097 32.3975C137.551 32.4103 137.952 32.4213 138.287 32.4323C138.25 32.328 138.276 32.2035 138.36 32.123C138.477 32.0095 138.667 32.0113 138.788 32.1303C138.869 32.2163 138.892 32.3444 138.843 32.4524C139.119 32.4652 139.29 32.4762 139.312 32.4799C139.531 32.5293 139.866 32.5348 139.866 33.1076C139.866 33.2321 139.862 33.6457 139.855 34.2058C139.939 34.3101 139.939 34.4638 139.853 34.5681C139.841 35.7889 139.817 37.4891 139.8 38.6587C139.851 38.7538 139.851 38.8673 139.795 38.957C139.782 39.5225 139.775 39.9233 139.762 39.991C139.716 40.2802 139.661 40.6279 138.916 40.6078ZM141.08 39.0448C140.964 38.9259 140.97 38.7355 141.085 38.6202C141.204 38.5049 141.394 38.5067 141.51 38.6257C141.629 38.7465 141.625 38.935 141.506 39.0503C141.387 39.1674 141.193 39.1656 141.08 39.0448ZM143.536 36.8815C143.419 36.7607 143.424 36.5704 143.545 36.4551C143.662 36.3416 143.852 36.3416 143.968 36.4624C144.085 36.5795 144.079 36.768 143.962 36.8833C143.841 37.0023 143.653 36.9987 143.536 36.8815ZM139.948 41.2392C139.837 41.1239 139.839 40.9299 139.958 40.8165C140.075 40.7012 140.265 40.703 140.379 40.8183C140.494 40.9373 140.494 41.1313 140.373 41.2447C140.252 41.3619 140.064 41.3582 139.948 41.2392ZM142.837 39.0778C142.718 38.957 142.721 38.7703 142.84 38.6513C142.959 38.5342 143.148 38.5379 143.265 38.6587C143.38 38.7794 143.378 38.968 143.259 39.0814C143.14 39.1986 142.95 39.1967 142.837 39.0778ZM145.293 36.9145C145.177 36.7937 145.177 36.6052 145.296 36.4862C145.417 36.3727 145.607 36.3764 145.721 36.4917C145.836 36.6125 145.838 36.8028 145.719 36.9181C145.598 37.0371 145.408 37.0298 145.293 36.9145ZM141.704 41.2722C141.588 41.1532 141.588 40.9592 141.709 40.8476C141.828 40.7304 142.02 40.7341 142.134 40.8494C142.249 40.9684 142.247 41.1587 142.13 41.2758C142.009 41.3911 141.821 41.3911 141.704 41.2722ZM144.59 39.1089C144.475 38.9881 144.476 38.7959 144.595 38.6843C144.713 38.569 144.905 38.5708 145.018 38.6898C145.137 38.8087 145.13 38.9954 145.013 39.1162C144.896 39.2297 144.703 39.2278 144.59 39.1089ZM147.046 36.9474C146.931 36.8266 146.934 36.6381 147.055 36.5191C147.172 36.4057 147.364 36.4093 147.48 36.5265C147.595 36.6418 147.591 36.8339 147.472 36.9492C147.352 37.0664 147.165 37.0609 147.046 36.9474ZM143.459 41.3015C143.344 41.1825 143.347 40.9922 143.466 40.8787C143.583 40.7597 143.775 40.7634 143.889 40.8842C144.006 41.0013 144.002 41.1917 143.885 41.307C143.763 41.4259 143.574 41.4223 143.459 41.3015ZM146.343 39.1382C146.228 39.021 146.232 38.8289 146.351 38.7154C146.466 38.6001 146.658 38.6019 146.775 38.7209C146.89 38.8417 146.887 39.0302 146.77 39.1455C146.651 39.2626 146.462 39.2608 146.343 39.1382ZM148.801 36.973C148.684 36.8577 148.69 36.6674 148.812 36.5503C148.927 36.435 149.118 36.4386 149.233 36.5557C149.347 36.6747 149.347 36.8669 149.226 36.9804C149.109 37.0993 148.918 37.0938 148.801 36.973ZM145.212 41.3326C145.097 41.2154 145.101 41.0233 145.219 40.908C145.338 40.7927 145.529 40.7945 145.644 40.9153C145.758 41.0324 145.756 41.2228 145.637 41.3381C145.518 41.4534 145.331 41.4534 145.212 41.3326ZM148.1 39.1711C147.985 39.0521 147.985 38.86 148.108 38.7447C148.226 38.6312 148.417 38.6349 148.532 38.7538C148.649 38.871 148.644 39.0631 148.523 39.1766C148.404 39.2937 148.214 39.2882 148.1 39.1711ZM150.556 37.0078C150.441 36.8925 150.443 36.6985 150.564 36.5832C150.684 36.4679 150.867 36.4679 150.988 36.5887C151.102 36.7077 151.098 36.8962 150.981 37.0115C150.864 37.1268 150.67 37.1249 150.556 37.0078ZM146.969 41.3655C146.852 41.2447 146.854 41.0562 146.976 40.9427C147.095 40.8274 147.284 40.8293 147.397 40.9446C147.513 41.0672 147.513 41.2539 147.394 41.371C147.275 41.4863 147.084 41.4827 146.969 41.3655ZM149.852 39.2004C149.738 39.0833 149.74 38.8911 149.863 38.7794C149.974 38.6605 150.167 38.6623 150.284 38.7831C150.401 38.9039 150.399 39.0924 150.278 39.2077C150.159 39.3267 149.969 39.3194 149.852 39.2004ZM152.312 37.0353C152.196 36.92 152.2 36.7296 152.317 36.6125C152.434 36.499 152.626 36.5008 152.742 36.6198C152.857 36.7369 152.857 36.9273 152.738 37.0407C152.617 37.1615 152.427 37.1597 152.312 37.0353ZM148.721 41.3948C148.609 41.2777 148.609 41.0873 148.728 40.9702C148.845 40.8549 149.037 40.8586 149.151 40.9775C149.27 41.0983 149.266 41.2868 149.145 41.404C149.026 41.5174 148.836 41.5174 148.721 41.3948ZM151.605 39.2333C151.49 39.1144 151.49 38.924 151.612 38.8069C151.731 38.6934 151.923 38.6971 152.037 38.8124C152.154 38.9332 152.15 39.1235 152.03 39.2388C151.911 39.3523 151.722 39.3523 151.605 39.2333ZM154.2 37.0719C154.083 36.9511 154.085 36.7626 154.202 36.6436C154.325 36.5301 154.515 36.5356 154.629 36.6527C154.744 36.7717 154.744 36.962 154.621 37.0773C154.504 37.1927 154.314 37.1908 154.2 37.0719ZM150.478 41.4278C150.361 41.3088 150.366 41.1203 150.485 41.005C150.604 40.8878 150.792 40.8915 150.906 41.0086C151.021 41.1258 151.021 41.3179 150.9 41.4332C150.783 41.5522 150.593 41.5485 150.478 41.4278ZM153.362 39.2644C153.247 39.1455 153.249 38.9551 153.368 38.8417C153.487 38.7245 153.679 38.7282 153.794 38.8472C153.909 38.9625 153.907 39.1565 153.787 39.2718C153.67 39.3871 153.479 39.3871 153.362 39.2644ZM152.231 41.4589C152.116 41.3436 152.121 41.1496 152.238 41.0343C152.355 40.919 152.546 40.9208 152.661 41.0416C152.778 41.1587 152.776 41.3472 152.659 41.4644C152.54 41.5833 152.35 41.5815 152.231 41.4589ZM139.043 33.8379C139.044 33.3858 138.777 33.3803 138.603 33.3419C138.429 33.3016 125.867 32.866 125.043 32.8606C124.269 32.8551 124.373 33.556 124.373 33.556C124.373 33.556 124.339 34.8042 124.298 36.0726C124.417 36.0067 124.569 36.0158 124.666 36.1165C124.785 36.2373 124.783 36.4276 124.663 36.5448C124.556 36.6436 124.399 36.6491 124.287 36.5704C124.256 37.5624 124.233 38.4756 124.227 38.6934C124.209 39.3614 124.485 39.3194 124.793 39.3651C125.098 39.4127 137.703 39.7787 138.294 39.8007C138.887 39.8208 138.931 39.539 138.964 39.312C138.995 39.0796 139.043 34.2899 139.043 33.8379ZM125.365 34.3394C125.25 34.2222 125.256 34.0337 125.373 33.9166C125.49 33.8013 125.68 33.8049 125.799 33.9239C125.911 34.041 125.909 34.2332 125.79 34.3467C125.673 34.4656 125.481 34.4583 125.365 34.3394ZM127.122 34.3741C127.005 34.2533 127.007 34.063 127.128 33.9495C127.249 33.8342 127.437 33.8342 127.552 33.9532C127.67 34.074 127.668 34.2607 127.547 34.3778C127.43 34.4949 127.238 34.4913 127.122 34.3741ZM125.989 36.5686C125.876 36.4496 125.876 36.2593 125.997 36.1421C126.116 36.0268 126.306 36.0305 126.421 36.1531C126.539 36.2684 126.535 36.4606 126.416 36.5759C126.295 36.6893 126.107 36.6857 125.989 36.5686ZM128.876 34.4034C128.76 34.2845 128.764 34.0941 128.883 33.9788C129.002 33.8617 129.194 33.869 129.308 33.9843C129.427 34.1051 129.423 34.2954 129.304 34.4126C129.181 34.5242 128.993 34.5224 128.876 34.4034ZM125.287 38.7648C125.171 38.6422 125.175 38.45 125.294 38.3384C125.413 38.2231 125.607 38.2267 125.717 38.3439C125.834 38.4646 125.832 38.655 125.715 38.7685C125.594 38.8838 125.404 38.8819 125.287 38.7648ZM127.745 36.5978C127.629 36.4825 127.633 36.2904 127.752 36.1751C127.873 36.0598 128.061 36.0634 128.178 36.1806C128.294 36.2959 128.294 36.488 128.173 36.6052C128.05 36.7205 127.862 36.7168 127.745 36.5978ZM130.631 34.4364C130.519 34.3192 130.521 34.1289 130.64 34.0136C130.757 33.8965 130.948 33.8983 131.065 34.0173C131.176 34.1362 131.173 34.3247 131.056 34.4419C130.94 34.559 130.75 34.5553 130.631 34.4364ZM127.044 38.7959C126.927 38.6769 126.928 38.4848 127.049 38.3676C127.168 38.2523 127.358 38.2578 127.474 38.3768C127.589 38.4939 127.585 38.6843 127.468 38.7977C127.349 38.9167 127.157 38.9112 127.044 38.7959ZM129.5 36.6326C129.385 36.5118 129.385 36.3215 129.507 36.2062C129.624 36.0909 129.816 36.0909 129.934 36.2098C130.051 36.3306 130.043 36.521 129.923 36.6381C129.806 36.7534 129.617 36.7516 129.5 36.6326ZM132.386 34.4675C132.269 34.3485 132.271 34.1563 132.393 34.0447C132.511 33.9257 132.703 33.9312 132.816 34.0484C132.933 34.1655 132.93 34.3558 132.809 34.473C132.692 34.5901 132.5 34.5864 132.386 34.4675ZM128.795 38.8234C128.68 38.7044 128.685 38.5122 128.804 38.4024C128.921 38.2853 129.114 38.2853 129.227 38.4061C129.341 38.525 129.339 38.7172 129.22 38.8307C129.105 38.9478 128.912 38.9478 128.795 38.8234ZM131.255 36.6601C131.14 36.5429 131.14 36.3526 131.26 36.2355C131.381 36.1202 131.572 36.1238 131.685 36.2409C131.802 36.3599 131.799 36.5521 131.681 36.6674C131.559 36.7827 131.374 36.7845 131.255 36.6601ZM134.141 34.5004C134.026 34.3815 134.03 34.1893 134.149 34.0758C134.266 33.9587 134.454 33.9605 134.571 34.0795C134.687 34.1984 134.687 34.3906 134.566 34.5059C134.447 34.6194 134.255 34.6176 134.141 34.5004ZM130.552 38.8563C130.437 38.7373 130.437 38.547 130.558 38.4317C130.677 38.3182 130.869 38.3201 130.98 38.4409C131.099 38.558 131.096 38.7502 130.975 38.8618C130.856 38.9771 130.664 38.9734 130.552 38.8563ZM133.008 36.693C132.897 36.5759 132.899 36.3837 133.014 36.2666C133.135 36.1513 133.321 36.1568 133.442 36.2739C133.554 36.3929 133.552 36.5832 133.433 36.7003C133.316 36.8156 133.125 36.812 133.008 36.693ZM135.895 34.5315C135.777 34.4089 135.783 34.2204 135.9 34.1069C136.025 33.9916 136.211 33.9916 136.327 34.1124C136.444 34.2296 136.438 34.4199 136.321 34.5389C136.2 34.6505 136.012 34.6487 135.895 34.5315ZM132.306 38.8893C132.19 38.7721 132.198 38.5818 132.313 38.4665C132.43 38.3475 132.62 38.3512 132.737 38.4701C132.855 38.5891 132.849 38.7794 132.73 38.8911C132.613 39.01 132.421 39.0082 132.306 38.8893ZM134.764 36.7241C134.646 36.6052 134.65 36.4166 134.773 36.3013C134.89 36.186 135.078 36.1879 135.194 36.3032C135.311 36.4258 135.307 36.6161 135.188 36.7314C135.071 36.8486 134.879 36.8394 134.764 36.7241ZM137.65 34.5608C137.534 34.4437 137.54 34.2533 137.653 34.1344C137.772 34.0209 137.963 34.0246 138.078 34.1435C138.195 34.2588 138.195 34.4528 138.072 34.5681C137.957 34.6834 137.763 34.6798 137.65 34.5608ZM134.061 38.9167C133.945 38.7996 133.949 38.6111 134.066 38.4939C134.183 38.3786 134.379 38.3823 134.493 38.4994C134.608 38.6202 134.604 38.8087 134.485 38.9259C134.368 39.0412 134.176 39.0375 134.061 38.9167ZM136.519 36.7571C136.402 36.6381 136.407 36.4459 136.524 36.3306C136.643 36.2153 136.833 36.2172 136.949 36.3361C137.064 36.4551 137.064 36.6436 136.943 36.7589C136.823 36.8742 136.636 36.8742 136.519 36.7571ZM135.816 38.9533C135.701 38.8307 135.706 38.6403 135.823 38.5269C135.942 38.4097 136.131 38.4116 136.248 38.5305C136.365 38.6477 136.361 38.8398 136.24 38.9551C136.122 39.0723 135.931 39.0704 135.816 38.9533ZM138.274 36.7882C138.159 36.6692 138.16 36.4789 138.281 36.3636C138.398 36.2483 138.589 36.2501 138.708 36.3691C138.819 36.4862 138.816 36.6747 138.698 36.79C138.581 36.9108 138.391 36.9071 138.274 36.7882ZM137.569 38.9789C137.452 38.8618 137.458 38.6733 137.578 38.5562C137.697 38.4409 137.889 38.4463 138.005 38.5635C138.116 38.6843 138.113 38.8728 137.994 38.9844C137.875 39.0997 137.688 39.0997 137.569 38.9789Z" fill="#FF7C24"/>
<path d="M136.138 27.9354L133.045 27.8622C133.032 27.9189 133.005 27.9757 132.959 28.0233C132.838 28.1331 132.65 28.1294 132.538 28.0104C132.492 27.9647 132.474 27.9061 132.463 27.8494L129.267 27.7725C128.945 27.7615 128.682 28.0013 128.671 28.3051L128.662 28.8395L136.698 28.9219L136.705 28.5009C136.713 28.1971 136.458 27.9464 136.138 27.9354ZM130.3 28.6016C130.184 28.4771 130.193 28.2886 130.314 28.1752C130.431 28.0599 130.624 28.0672 130.737 28.1861C130.852 28.3106 130.845 28.4973 130.724 28.6144C130.602 28.7279 130.411 28.7206 130.3 28.6016ZM134.72 28.748C134.606 28.6291 134.612 28.4387 134.732 28.3234C134.853 28.2118 135.044 28.2154 135.153 28.3362C135.269 28.4589 135.263 28.6474 135.142 28.7608C135.022 28.8761 134.831 28.8706 134.72 28.748ZM138.49 54.4185L138.805 41.1751L136.899 41.0873L136.857 43.4061C136.876 43.4226 136.896 43.4281 136.907 43.4446C137.018 43.5617 137.018 43.7557 136.897 43.8692C136.883 43.8838 136.866 43.893 136.848 43.9021L136.841 44.1291C136.839 44.4695 136.541 44.7367 136.184 44.7312L128.486 44.6159C128.125 44.6104 127.851 44.1858 127.856 43.8436C127.856 43.8436 127.871 42.5514 127.893 40.681L125.781 40.584L125.455 54.2611C125.42 57.3852 128.744 58.8256 131.866 58.8659L132.135 58.8677C135.258 58.908 138.453 57.539 138.49 54.4185ZM136.733 50.4597C136.848 50.5842 136.844 50.7709 136.724 50.888C136.606 51.0033 136.413 50.9997 136.301 50.8789C136.187 50.7617 136.191 50.5659 136.308 50.4543C136.431 50.339 136.619 50.339 136.733 50.4597ZM136.775 48.7064C136.89 48.8272 136.887 49.0157 136.769 49.1329C136.647 49.2482 136.455 49.2408 136.341 49.1237C136.229 49.0066 136.229 48.8107 136.354 48.7009C136.469 48.5838 136.661 48.5893 136.775 48.7064ZM134.537 49.746C134.418 49.8594 134.224 49.854 134.114 49.735C133.998 49.616 134 49.4239 134.121 49.3122C134.24 49.1951 134.432 49.1969 134.548 49.3177C134.663 49.4385 134.659 49.6288 134.537 49.746ZM136.821 46.9531C136.932 47.0702 136.93 47.2624 136.808 47.3777C136.691 47.493 136.5 47.4912 136.383 47.3685C136.268 47.2477 136.273 47.0592 136.392 46.9439C136.515 46.8305 136.707 46.8359 136.821 46.9531ZM134.58 47.989C134.462 48.1024 134.268 48.097 134.156 47.9816C134.041 47.8609 134.044 47.6705 134.165 47.5552C134.286 47.4399 134.476 47.4454 134.588 47.5625C134.703 47.6833 134.701 47.8737 134.58 47.989ZM136.863 45.2016C136.978 45.3169 136.974 45.509 136.855 45.6225C136.733 45.7378 136.542 45.7342 136.431 45.6134C136.317 45.4962 136.319 45.3041 136.44 45.1869C136.559 45.0735 136.747 45.0789 136.863 45.2016ZM134.632 45.8074C134.749 45.9263 134.742 46.1167 134.624 46.232C134.504 46.3491 134.311 46.3436 134.198 46.2247C134.083 46.1057 134.09 45.9153 134.209 45.7982C134.324 45.6847 134.518 45.6884 134.632 45.8074ZM127.768 45.4029C127.653 45.2821 127.655 45.0936 127.778 44.9746C127.897 44.8612 128.087 44.8666 128.202 44.9874C128.318 45.1082 128.316 45.2967 128.195 45.4102C128.07 45.5255 127.884 45.5219 127.768 45.4029ZM127.726 47.1544C127.607 47.0336 127.615 46.8469 127.736 46.7316C127.854 46.6145 128.045 46.6218 128.162 46.7389C128.272 46.8616 128.27 47.0501 128.149 47.1636C128.03 47.2789 127.84 47.277 127.726 47.1544ZM129.778 46.113C129.666 45.9977 129.668 45.8055 129.789 45.6921C129.908 45.5749 130.096 45.5804 130.21 45.6976C130.327 45.8165 130.322 46.0087 130.203 46.124C130.084 46.2411 129.891 46.2375 129.778 46.113ZM127.682 48.9114C127.565 48.7924 127.567 48.6003 127.692 48.485C127.811 48.3697 127.999 48.3751 128.113 48.4941C128.23 48.6149 128.226 48.8052 128.105 48.9187C127.986 49.034 127.798 49.0322 127.682 48.9114ZM132.018 45.0826C132.137 44.9655 132.329 44.9673 132.439 45.0918C132.554 45.2107 132.554 45.4029 132.434 45.5164C132.309 45.628 132.121 45.6243 132.007 45.5017C131.896 45.3864 131.901 45.1961 132.018 45.0826ZM129.734 47.87C129.621 47.751 129.622 47.557 129.743 47.4417C129.864 47.3283 130.056 47.3338 130.166 47.4546C130.283 47.5735 130.278 47.7639 130.159 47.8773C130.038 47.9926 129.851 47.9908 129.734 47.87ZM127.637 50.6611C127.523 50.5476 127.531 50.3573 127.649 50.242C127.768 50.1267 127.957 50.1285 128.072 50.2493C128.188 50.3664 128.184 50.5586 128.063 50.6757C127.944 50.7874 127.754 50.7874 127.637 50.6611ZM131.974 46.8341C132.095 46.7225 132.284 46.7243 132.403 46.8451C132.512 46.9641 132.511 47.1526 132.392 47.2715C132.271 47.3832 132.079 47.3813 131.965 47.2605C131.852 47.1416 131.853 46.9494 131.974 46.8341ZM129.694 49.627C129.577 49.5062 129.582 49.3159 129.703 49.1987C129.82 49.0853 130.012 49.0908 130.128 49.2079C130.239 49.325 130.237 49.5172 130.115 49.6325C129.996 49.7478 129.805 49.7441 129.694 49.627ZM127.593 52.4162C127.481 52.3009 127.483 52.1069 127.604 51.9935C127.721 51.88 127.915 51.8818 128.028 52.0044C128.142 52.1216 128.138 52.3101 128.016 52.4272C127.902 52.5425 127.708 52.5389 127.593 52.4162ZM131.93 48.5893C132.051 48.474 132.238 48.4776 132.357 48.5984C132.468 48.7174 132.467 48.9096 132.348 49.0249C132.227 49.1365 132.035 49.1329 131.923 49.0157C131.806 48.8931 131.81 48.7028 131.93 48.5893ZM129.65 51.3785C129.531 51.2577 129.536 51.0674 129.659 50.9557C129.778 50.8386 129.967 50.8459 130.084 50.9631C130.199 51.0857 130.195 51.2724 130.076 51.3895C129.956 51.503 129.762 51.4956 129.65 51.3785ZM127.554 54.1732C127.437 54.0543 127.439 53.8639 127.56 53.7468C127.681 53.6333 127.873 53.6388 127.986 53.756C128.102 53.8731 128.098 54.0671 127.975 54.1824C127.858 54.2977 127.664 54.2904 127.554 54.1732ZM131.892 50.3463C132.009 50.231 132.201 50.2328 132.311 50.3536C132.426 50.4726 132.423 50.6629 132.302 50.7745C132.181 50.8898 131.993 50.888 131.877 50.7691C131.764 50.6483 131.771 50.4597 131.892 50.3463ZM129.606 53.1337C129.491 53.0165 129.493 52.8262 129.615 52.7072C129.732 52.5938 129.926 52.5993 130.04 52.7201C130.153 52.8354 130.146 53.0239 130.029 53.141C129.912 53.2581 129.719 53.2545 129.606 53.1337ZM127.509 55.9266C127.391 55.8113 127.397 55.6173 127.52 55.5056C127.637 55.3885 127.829 55.394 127.94 55.5129C128.058 55.6337 128.056 55.8259 127.931 55.9394C127.812 56.051 127.62 56.0474 127.509 55.9266ZM131.844 52.0996C131.961 51.9843 132.155 51.988 132.271 52.1069C132.386 52.2277 132.379 52.4162 132.262 52.5334C132.143 52.6468 131.95 52.6432 131.837 52.5224C131.722 52.4034 131.722 52.2131 131.844 52.0996ZM129.564 54.887C129.445 54.7699 129.452 54.5795 129.571 54.4624C129.69 54.3471 129.88 54.3489 129.996 54.4716C130.111 54.5905 130.106 54.7809 129.988 54.8962C129.868 55.0115 129.677 55.006 129.564 54.887ZM134.075 51.0637C134.196 50.9502 134.388 50.9539 134.502 51.071C134.617 51.19 134.613 51.3803 134.493 51.4938C134.372 51.611 134.181 51.6073 134.068 51.4883C133.953 51.3675 133.955 51.179 134.075 51.0637ZM131.8 53.8548C131.919 53.7413 132.11 53.7413 132.225 53.8621C132.34 53.9829 132.338 54.1714 132.214 54.2867C132.097 54.4038 131.907 54.402 131.789 54.2776C131.678 54.1568 131.683 53.9683 131.8 53.8548ZM129.518 56.644C129.401 56.5214 129.406 56.3329 129.527 56.2176C129.644 56.1023 129.838 56.1059 129.952 56.2267C130.069 56.3457 130.064 56.536 129.941 56.6495C129.824 56.7685 129.632 56.7611 129.518 56.644ZM134.035 52.8171C134.156 52.7018 134.344 52.7054 134.46 52.8262C134.571 52.9452 134.568 53.1337 134.445 53.249C134.33 53.3679 134.143 53.3625 134.024 53.2417C133.912 53.1227 133.916 52.9324 134.035 52.8171ZM131.749 56.0309C131.634 55.9138 131.639 55.7234 131.76 55.6081C131.881 55.4946 132.071 55.4965 132.179 55.6154C132.295 55.7344 132.289 55.9247 132.17 56.04C132.053 56.159 131.863 56.1499 131.749 56.0309ZM136.264 52.2058C136.387 52.0941 136.575 52.0941 136.693 52.2149C136.808 52.3357 136.801 52.5224 136.682 52.6377C136.561 52.7548 136.374 52.753 136.255 52.6285C136.14 52.5114 136.143 52.3211 136.264 52.2058ZM133.995 54.5741C134.112 54.4587 134.304 54.4606 134.416 54.5795C134.531 54.7003 134.527 54.8907 134.408 55.0042C134.289 55.1195 134.095 55.1121 133.982 54.995C133.867 54.876 133.87 54.6894 133.995 54.5741ZM131.707 57.8208C131.59 57.7019 131.592 57.5134 131.714 57.3999C131.835 57.2828 132.027 57.2864 132.139 57.4036C132.254 57.5262 132.251 57.7183 132.132 57.8336C132.009 57.9489 131.819 57.9398 131.707 57.8208ZM136.22 53.9609C136.341 53.8493 136.53 53.8493 136.645 53.9719C136.764 54.0927 136.757 54.2812 136.636 54.3947C136.517 54.51 136.325 54.5045 136.211 54.3855C136.096 54.2647 136.101 54.0744 136.22 53.9609ZM133.936 56.7502C133.821 56.633 133.825 56.4409 133.947 56.3274C134.066 56.2103 134.26 56.2121 134.374 56.3347C134.489 56.4537 134.485 56.644 134.365 56.7575C134.244 56.8765 134.057 56.8728 133.936 56.7502ZM136.173 56.1407C136.057 56.0199 136.057 55.8296 136.18 55.7161C136.301 55.6008 136.489 55.6045 136.603 55.7234C136.72 55.8479 136.715 56.0364 136.596 56.148C136.475 56.267 136.283 56.2597 136.173 56.1407ZM128.389 43.3146C128.393 43.6111 128.63 43.9698 128.942 43.9772L135.812 44.1419C136.057 44.1492 136.266 44.0156 136.358 43.8143C136.334 43.7319 136.413 43.3823 136.413 43.3823L132.393 43.3476C132.408 43.3567 132.43 43.3695 132.446 43.386C132.556 43.505 132.554 43.6971 132.43 43.807C132.311 43.9223 132.117 43.9168 132.007 43.7996C131.896 43.6788 131.899 43.4848 132.02 43.3714C132.033 43.3622 132.046 43.3531 132.06 43.3457L128.389 43.3146ZM128.339 27.4467C128.414 27.2582 128.64 27.2033 128.806 27.2015L136.508 27.3223C136.714 27.3223 136.892 27.4284 137.009 27.5749C137.11 27.5511 137.22 27.5749 137.297 27.6554C137.412 27.7762 137.408 27.9665 137.287 28.08C137.247 28.1203 137.194 28.1422 137.139 28.1514L137.088 31.0925C137.132 31.1053 139.037 31.4439 139.037 31.4439L139.383 16.7565C139.423 13.636 136.261 12.1956 133.136 12.1554L132.869 12.1535C129.747 12.1169 126.392 13.4786 126.352 16.5991L126.008 31.1712L128.087 31.2133C128.158 29.0866 128.239 27.5254 128.339 27.4467ZM130.254 26.8153C130.14 26.6964 130.144 26.5097 130.265 26.3944C130.384 26.2791 130.576 26.2827 130.689 26.4017C130.803 26.5207 130.801 26.7092 130.68 26.8263C130.56 26.9416 130.369 26.9343 130.254 26.8153ZM137.339 25.9002C137.456 26.021 137.452 26.2095 137.331 26.3248C137.21 26.4401 137.02 26.4401 136.907 26.3157C136.79 26.1949 136.795 26.0064 136.916 25.8911C137.037 25.7794 137.225 25.7794 137.339 25.9002ZM135.102 26.9325C134.981 27.0514 134.791 27.0459 134.676 26.9251C134.562 26.8062 134.564 26.6158 134.685 26.5005C134.806 26.3871 134.996 26.3889 135.109 26.5097C135.223 26.6323 135.219 26.819 135.102 26.9325ZM137.383 24.1487C137.498 24.2695 137.494 24.4598 137.375 24.5752C137.253 24.6868 137.06 24.6831 136.949 24.5642C136.832 24.4434 136.839 24.253 136.962 24.1377C137.079 24.0224 137.269 24.0279 137.383 24.1487ZM135.144 25.1791C135.022 25.2926 134.828 25.2908 134.718 25.17C134.604 25.051 134.608 24.8625 134.727 24.7472C134.846 24.6319 135.038 24.6392 135.152 24.7545C135.267 24.8771 135.261 25.0656 135.144 25.1791ZM137.426 22.3917C137.542 22.5125 137.536 22.7029 137.415 22.8182C137.3 22.9353 137.108 22.9261 136.996 22.8072C136.876 22.6864 136.885 22.4997 137.002 22.3826C137.123 22.2673 137.313 22.2728 137.426 22.3917ZM132.909 26.2168C132.792 26.3322 132.6 26.3248 132.489 26.2095C132.37 26.0887 132.373 25.8966 132.494 25.7831C132.615 25.6678 132.807 25.6733 132.92 25.7922C133.034 25.9094 133.03 26.1015 132.909 26.2168ZM135.188 23.4258C135.069 23.5411 134.877 23.5374 134.763 23.4166C134.648 23.2977 134.652 23.1055 134.771 22.9939C134.89 22.8786 135.082 22.884 135.195 23.0012C135.309 23.122 135.305 23.3123 135.188 23.4258ZM137.469 20.6384C137.587 20.7592 137.58 20.9477 137.461 21.0612C137.34 21.1765 137.148 21.1728 137.037 21.052C136.921 20.933 136.927 20.7427 137.044 20.6274C137.163 20.5121 137.353 20.5176 137.469 20.6384ZM132.952 24.4598C132.834 24.5788 132.644 24.5752 132.531 24.4525C132.414 24.3317 132.419 24.1414 132.536 24.0261C132.657 23.9163 132.847 23.9163 132.961 24.0371C133.074 24.156 133.072 24.3464 132.952 24.4598ZM135.228 21.6724C135.111 21.7877 134.919 21.7823 134.804 21.6633C134.688 21.5462 134.694 21.354 134.813 21.2369C134.936 21.1252 135.126 21.1289 135.239 21.2478C135.355 21.3668 135.351 21.5571 135.228 21.6724ZM137.512 18.8832C137.628 19.0022 137.622 19.1907 137.5 19.306C137.383 19.4213 137.192 19.4158 137.079 19.3005C136.963 19.1779 136.969 18.9875 137.088 18.8759C137.207 18.7588 137.399 18.7624 137.512 18.8832ZM135.274 19.9173C135.155 20.0326 134.963 20.0289 134.85 19.9063C134.738 19.7892 134.74 19.5988 134.861 19.4835C134.979 19.37 135.17 19.3737 135.281 19.4963C135.395 19.6116 135.393 19.802 135.274 19.9173ZM137.553 17.1262C137.67 17.247 137.668 17.4355 137.547 17.5563C137.43 17.668 137.236 17.6643 137.124 17.5435C137.009 17.4245 137.009 17.2324 137.132 17.1207C137.253 17.0036 137.439 17.0091 137.553 17.1262ZM135.318 18.1658C135.195 18.2792 135.005 18.2719 134.892 18.1566C134.776 18.0358 134.78 17.8437 134.903 17.732C135.02 17.6149 135.212 17.6185 135.324 17.7393C135.441 17.8565 135.437 18.0486 135.318 18.1658ZM137.602 15.3765C137.716 15.4955 137.71 15.6822 137.589 15.7993C137.47 15.9128 137.276 15.9073 137.165 15.7865C137.053 15.6694 137.055 15.479 137.176 15.3656C137.293 15.2503 137.483 15.2521 137.602 15.3765ZM135.367 15.986C135.485 16.1031 135.481 16.2953 135.36 16.4106C135.239 16.5222 135.047 16.5186 134.934 16.3996C134.817 16.2825 134.824 16.0903 134.943 15.975C135.06 15.8561 135.254 15.8652 135.367 15.986ZM135.411 14.229C135.523 14.3498 135.523 14.5401 135.404 14.6554C135.285 14.7707 135.091 14.7653 134.979 14.6445C134.862 14.5218 134.87 14.337 134.989 14.2235C135.106 14.1064 135.296 14.1082 135.411 14.229ZM133.226 13.378C133.341 13.4987 133.336 13.6873 133.217 13.8007C133.098 13.9179 132.906 13.9124 132.792 13.7934C132.673 13.6726 132.681 13.4841 132.8 13.3688C132.922 13.2572 133.111 13.2572 133.226 13.378ZM128.504 15.576C128.389 15.4552 128.394 15.2649 128.515 15.1551C128.632 15.0361 128.823 15.0398 128.936 15.1587C129.053 15.2814 129.051 15.4717 128.929 15.5834C128.806 15.6987 128.618 15.6968 128.504 15.576ZM130.558 14.5346C130.446 14.4193 130.448 14.229 130.565 14.1119C130.686 13.9947 130.876 14.0021 130.988 14.1192C131.105 14.24 131.103 14.4303 130.98 14.5456C130.863 14.6591 130.673 14.6573 130.558 14.5346ZM128.462 17.3275C128.347 17.2104 128.35 17.0182 128.471 16.9066C128.588 16.7913 128.779 16.7949 128.896 16.9176C129.011 17.0347 129.004 17.225 128.887 17.3385C128.766 17.452 128.576 17.452 128.462 17.3275ZM130.514 16.2898C130.398 16.169 130.402 15.9787 130.523 15.8634C130.644 15.7499 130.834 15.7554 130.948 15.8707C131.065 15.9915 131.061 16.1818 130.938 16.2971C130.819 16.4143 130.631 16.4106 130.514 16.2898ZM128.416 19.0845C128.307 18.9674 128.307 18.7752 128.429 18.6618C128.546 18.5465 128.735 18.5465 128.852 18.6691C128.967 18.788 128.962 18.9802 128.841 19.0937C128.724 19.2108 128.532 19.2053 128.416 19.0845ZM132.754 15.2557C132.873 15.1423 133.063 15.1441 133.177 15.2667C133.296 15.3857 133.292 15.5742 133.169 15.6895C133.047 15.803 132.858 15.7993 132.743 15.6804C132.628 15.5596 132.637 15.3711 132.754 15.2557ZM130.472 18.045C130.353 17.9242 130.36 17.7338 130.479 17.6222C130.6 17.5051 130.794 17.5142 130.904 17.6314C131.019 17.7503 131.015 17.9407 130.894 18.0541C130.777 18.1694 130.585 18.1639 130.472 18.045ZM128.372 20.836C128.257 20.7207 128.263 20.5304 128.383 20.4169C128.501 20.2998 128.693 20.3053 128.806 20.4261C128.923 20.5432 128.92 20.7354 128.799 20.8489C128.68 20.9623 128.49 20.9605 128.372 20.836ZM132.712 17.0127C132.831 16.8938 133.021 16.8993 133.135 17.0219C133.248 17.139 133.244 17.3275 133.125 17.4428C133.005 17.56 132.813 17.5545 132.699 17.4337C132.586 17.3166 132.591 17.1262 132.712 17.0127ZM130.428 19.8001C130.312 19.6794 130.316 19.4872 130.439 19.3737C130.558 19.2584 130.75 19.2639 130.86 19.3829C130.977 19.5018 130.969 19.6903 130.851 19.8056C130.733 19.9228 130.541 19.9191 130.428 19.8001ZM128.329 22.5912C128.213 22.4759 128.22 22.2819 128.339 22.1703C128.458 22.0531 128.651 22.0605 128.766 22.1794C128.878 22.2965 128.878 22.4869 128.755 22.6022C128.636 22.7175 128.444 22.7138 128.329 22.5912ZM132.668 18.7643C132.787 18.6508 132.975 18.6544 133.094 18.7734C133.206 18.8942 133.2 19.0809 133.08 19.1962C132.963 19.3115 132.772 19.3078 132.657 19.187C132.543 19.0717 132.545 18.8777 132.668 18.7643ZM130.386 21.5535C130.27 21.4345 130.27 21.2442 130.391 21.127C130.512 21.0117 130.702 21.0172 130.818 21.138C130.935 21.2533 130.927 21.4473 130.812 21.5645C130.688 21.6779 130.497 21.6724 130.386 21.5535ZM128.288 24.3482C128.177 24.2311 128.177 24.0389 128.296 23.9218C128.416 23.8065 128.608 23.8138 128.716 23.9309C128.834 24.0499 128.832 24.2421 128.711 24.3555C128.59 24.4708 128.402 24.4672 128.288 24.3482ZM132.622 20.5194C132.743 20.4023 132.933 20.4096 133.047 20.5286C133.162 20.6475 133.158 20.8342 133.038 20.9495C132.919 21.063 132.73 21.0612 132.613 20.9422C132.5 20.8232 132.507 20.6329 132.622 20.5194ZM130.34 23.3087C130.225 23.1897 130.23 23.0012 130.349 22.8822C130.47 22.7669 130.66 22.7724 130.775 22.8914C130.887 23.0085 130.885 23.2007 130.763 23.3178C130.646 23.4313 130.459 23.4294 130.34 23.3087ZM128.242 26.1015C128.127 25.9826 128.131 25.7941 128.252 25.6769C128.372 25.5616 128.566 25.5671 128.678 25.6879C128.793 25.8069 128.79 25.9972 128.669 26.1107C128.552 26.2278 128.361 26.2242 128.242 26.1015ZM132.582 22.2746C132.703 22.1575 132.891 22.1611 133.003 22.2801C133.122 22.4027 133.114 22.5912 132.994 22.7047C132.875 22.8236 132.686 22.8182 132.567 22.6955C132.457 22.5802 132.463 22.3862 132.582 22.2746ZM130.298 25.0656C130.184 24.9449 130.188 24.7527 130.309 24.6392C130.426 24.5239 130.616 24.5257 130.733 24.6484C130.849 24.7655 130.843 24.9577 130.722 25.0711C130.603 25.1883 130.411 25.1846 130.298 25.0656Z" fill="#FF7C24"/>
<path d="M65.2633 97.1775C65.2651 98.0322 62.3038 98.5776 58.6434 98.5977C54.9885 98.6197 52.0236 98.1054 52.0199 97.2525C52.0181 96.3996 54.983 95.9494 58.6416 95.9274C62.2965 95.9073 65.2633 96.3264 65.2633 97.1775Z" fill="white"/>
<path d="M65.2578 97.6606C64.8259 98.4348 61.9671 98.9637 58.6086 98.982C54.9574 99.0003 51.9577 98.5373 51.9559 97.6369C51.9559 97.6259 51.987 98.2628 51.987 98.2628H51.9906C52.0199 99.1578 54.9775 99.6885 58.6142 99.6702C62.2489 99.6501 65.2029 99.0864 65.2249 98.1914L65.2285 98.1877V98.1786L65.2303 98.1768L65.2285 98.1731C65.2285 98.1731 65.2962 97.5929 65.2578 97.6606Z" fill="white"/>
<path d="M58.4275 97.3623L56.4673 97.4117L56.4527 90.0763C56.4527 90.0763 55.2704 87.1772 55.1496 84.9078C55.0325 82.7427 55.0306 82.7426 54.9794 59.2684C54.9794 59.2684 56.9377 59.3764 58.6654 59.3654C58.7075 82.1643 58.4275 97.3623 58.4275 97.3623Z" fill="white"/>
<path d="M61.0593 59.5594C61.0648 60.145 61.2973 84.0969 61.2186 85.5153C61.1307 86.9447 60.8488 89.1959 60.6786 90.0835C60.6823 91.1157 60.6951 97.1078 60.6951 97.7045L61.257 97.2286C61.257 97.2286 61.2862 92.5268 61.2441 90.2812C61.59 89.2563 62.2471 87.6164 62.269 85.098C62.2855 83.4637 62.3112 59.3562 62.3112 59.3562L61.0593 59.5594Z" fill="white"/>
<path d="M58.4787 59.4386L60.4169 59.2611C60.4169 59.2611 60.6896 83.914 60.6072 85.3452C60.5212 86.7746 60.2375 89.0257 60.0691 89.9134C60.071 91.0024 60.0893 97.3989 60.0893 97.3989L58.1401 97.6808L58.4787 59.4386Z" fill="white"/>
<path d="M63.0634 59.0726L54.1265 59.1202C54.0588 59.1202 54.0002 59.2263 54.0002 59.3526C54.0002 59.4789 54.0588 59.5832 54.1265 59.5832L54.5108 59.5814L54.4907 60.3007L54.11 60.3025C54.0405 60.3025 53.9855 60.3629 53.9855 60.4544C53.9855 60.5477 54.0478 60.685 54.1173 60.685L54.498 60.6832L54.5127 61.2597L54.1338 61.2615C54.0624 61.2615 54.0075 61.3384 54.0075 61.4299C54.0112 61.5232 54.0624 61.6001 54.1338 61.5965L63.0689 61.5452C63.1384 61.5452 63.1934 61.472 63.1915 61.3805C63.1934 61.2853 63.1348 61.2103 63.0689 61.2121H62.6882L62.6864 60.6063L63.0689 60.6027C63.1384 60.6027 63.1933 60.5276 63.1933 60.4324C63.1933 60.3409 63.1366 60.2641 63.0652 60.2659L62.6864 60.2677L62.6827 59.532L63.0634 59.5302C63.1311 59.5302 63.1915 59.424 63.1915 59.2977C63.1897 59.1751 63.1311 59.0689 63.0634 59.0726Z" fill="white"/>
<path d="M52.9094 83.5241L52.8417 39.8389C52.838 39.6669 52.9753 39.5278 53.151 39.5278L63.7955 39.4674C63.8797 39.4674 63.9565 39.5004 64.0151 39.5589C64.0737 39.6157 64.1084 39.6944 64.1084 39.7785L64.2091 83.3502C64.2091 83.4527 64.1597 83.5497 64.0755 83.6065C64.0242 83.6412 63.4752 83.9981 62.0385 84.1281C61.171 84.2452 60.0198 84.28 58.5831 84.3148C57.1848 84.3514 55.8853 84.2654 54.9684 84.1574C53.7623 84.0091 53.1474 83.8261 53.1291 83.8188C53.0833 83.8023 53.0376 83.7785 53.0046 83.7437C52.946 83.6907 52.9094 83.6101 52.9094 83.5241ZM53.5317 83.2844C53.7934 83.3448 54.293 83.4527 55.0434 83.5406C55.9292 83.6486 57.2031 83.7309 58.5702 83.6943C59.9996 83.6614 61.1453 83.6248 61.9634 83.5113C62.6443 83.4509 63.1 83.3393 63.3745 83.2459C63.466 83.2148 63.5374 83.1874 63.5868 83.1654L63.488 40.0897L53.4603 40.1482L53.5317 83.2844Z" fill="white"/>
<path d="M52.8618 39.8335L52.8399 39.7749L52.86 39.6871C52.8893 39.5626 52.9515 39.4821 53.0082 39.4199C53.1766 39.2533 53.3981 39.1472 53.6982 39.0502C54.4614 38.858 55.6987 38.686 56.3521 38.4938C56.4857 38.4608 56.5844 38.4224 56.6375 38.3968C56.654 37.8441 56.6997 35.2928 56.6997 35.2909L56.7034 34.9889L60.4187 34.967L60.4206 35.2799C60.4206 35.2818 60.4261 37.6446 60.4498 38.3309C60.4517 38.3309 60.4572 38.3327 60.459 38.3346C60.5377 38.3675 60.653 38.4041 60.7884 38.4444C61.0593 38.5249 61.4254 38.6146 61.8097 38.6951C62.6699 38.8909 63.5539 38.9623 63.995 39.3265C64.0627 39.3906 64.1341 39.4931 64.1377 39.6084L64.1524 39.7219V59.1111V59.4222L52.9405 59.4899L52.8618 39.8335ZM53.5573 58.8676L63.5283 58.8036L63.5374 39.764L63.5301 39.7438C63.3526 39.6432 62.443 39.44 61.6816 39.3009C60.8507 39.1069 60.254 38.9898 59.9466 38.7482C59.9429 38.7372 59.9301 38.7281 59.9228 38.7189C59.8916 38.6878 59.8532 38.6494 59.8367 38.5341C59.8093 38.2595 59.8038 36.3506 59.8001 35.5929L57.3147 35.6057C57.3019 36.3781 57.2617 38.3821 57.258 38.5249C57.2525 38.653 57.1884 38.7445 57.1353 38.7958C56.8114 39.0813 56.3173 39.1398 55.6639 39.2899C55.0325 39.4144 54.3186 39.537 53.8684 39.6487C53.6854 39.7017 53.5463 39.7786 53.4822 39.8243L53.5573 58.8676Z" fill="white"/>
<path d="M58.9326 27.1373L58.2408 27.141L58.2133 8.23865L58.907 9.93159L58.9326 27.1373Z" fill="#0A3960"/>
<path d="M59.4414 27.961C59.4414 27.961 59.3206 27.4558 59.2877 27.3771C59.284 27.368 59.1266 27.4064 59.1266 27.4064L58.9217 27.7798L58.9326 31.1162C58.9344 31.2682 58.7752 31.3981 58.5794 31.3981C58.3854 31.3981 58.2243 31.2773 58.2243 31.1217L58.217 27.8365L57.9773 27.4266C57.9773 27.4266 57.8326 27.3735 57.8125 27.3881C57.7411 27.4467 57.6478 28.0269 57.6478 28.0269C57.6478 28.0269 57.4465 28.0488 57.344 28.0982C57.2415 28.1495 57.4007 30.5434 57.4593 30.9277C57.516 31.3121 57.1024 31.7275 56.9212 32.1082C56.7418 32.4926 56.3648 36.4147 56.363 36.5172C56.363 36.5172 56.7327 36.5263 58.5959 36.5666C60.2229 36.5538 60.7281 36.4989 60.7281 36.4989C60.7189 36.3946 60.4352 32.4871 60.2559 32.1064C60.0674 31.7275 59.6116 31.2682 59.6665 30.882C59.7196 30.494 59.8532 28.0818 59.7471 28.0324C59.6446 27.9829 59.4414 27.961 59.4414 27.961Z" fill="white"/>
<path d="M57.9227 27.4137C57.9191 27.1739 58.201 26.9634 58.5432 26.9616C58.8928 26.9616 59.1801 27.1611 59.1819 27.4009C59.1819 27.4009 58.858 27.432 58.5139 27.4283C58.1644 27.4228 57.9227 27.4137 57.9227 27.4137Z" fill="white"/>
<path d="M61.1032 36.4916C61.1032 36.5886 61.0026 36.6691 60.8763 36.6709L56.1306 36.6984C56.0043 36.6984 55.9036 36.6178 55.9036 36.519C55.9036 36.422 56.0061 36.3415 56.1306 36.3415L60.8763 36.3122C61.0007 36.3159 61.1032 36.3946 61.1032 36.4916Z" fill="white"/>
<path opacity="0.92" d="M54.9227 42.1744C54.8714 42.1744 54.8311 42.1432 54.8311 42.103C54.8329 42.0645 54.8696 42.0316 54.919 42.0334L60.5487 42.0023C60.5981 42.0023 60.6384 42.0334 60.6402 42.0719C60.6384 42.1103 60.5981 42.1451 60.5469 42.1451L54.9227 42.1744Z" fill="white"/>
<path opacity="0.92" d="M54.9391 49.6709C54.8915 49.6709 54.8439 49.638 54.8476 49.5996C54.8476 49.5575 54.8897 49.5264 54.9373 49.5264L60.5615 49.4934C60.6109 49.4934 60.6548 49.5264 60.6548 49.5666C60.6567 49.6051 60.6164 49.638 60.5615 49.638L54.9391 49.6709Z" fill="white"/>
<path opacity="0.92" d="M54.9556 57.334C54.9043 57.334 54.864 57.301 54.864 57.2608C54.8622 57.2205 54.9043 57.1876 54.9556 57.1894L60.5816 57.1564C60.6273 57.1546 60.6694 57.1894 60.6676 57.2297C60.6676 57.2681 60.6291 57.2992 60.5816 57.301L54.9556 57.334Z" fill="white"/>
<path opacity="0.92" d="M54.9244 43.5837C54.875 43.5837 54.8366 43.5526 54.8329 43.5141C54.8366 43.472 54.875 43.4409 54.9281 43.4409L57.4666 43.4244C57.516 43.4263 57.5581 43.4574 57.5581 43.4958C57.5581 43.5379 57.5178 43.569 57.4666 43.569L54.9244 43.5837Z" fill="white"/>
<path opacity="0.92" d="M54.9281 45.1137C54.8769 45.11 54.8366 45.0808 54.8366 45.0423C54.8385 45.0039 54.8769 44.9691 54.93 44.9691L57.4685 44.9545C57.516 44.9563 57.56 44.9856 57.5582 45.0295C57.56 45.0679 57.5197 45.0972 57.4685 45.0991L54.9281 45.1137Z" fill="white"/>
<path opacity="0.92" d="M54.9318 46.6364C54.8823 46.6382 54.8439 46.6071 54.8439 46.5687C54.8421 46.5266 54.8805 46.4936 54.9318 46.4936L57.4721 46.479C57.5215 46.4808 57.5636 46.5138 57.5636 46.554C57.5636 46.5906 57.5233 46.6236 57.4702 46.6236L54.9318 46.6364Z" fill="white"/>
<path opacity="0.92" d="M54.9359 48.1647C54.8828 48.1683 54.8444 48.1354 54.8444 48.0951C54.8444 48.0549 54.8828 48.0219 54.9359 48.0219L57.4781 48.0091C57.5238 48.0073 57.5659 48.0402 57.5659 48.0787C57.5659 48.1171 57.5293 48.15 57.4726 48.1519L54.9359 48.1647Z" fill="white"/>
<path opacity="0.92" d="M54.9409 51.2211C54.8933 51.2211 54.8494 51.1918 54.8494 51.1516C54.8476 51.1131 54.8915 51.0784 54.9391 51.0784L57.4831 51.0637C57.5307 51.0637 57.5728 51.0948 57.5728 51.1333C57.5709 51.1754 57.5325 51.2083 57.4831 51.2065L54.9409 51.2211Z" fill="white"/>
<path opacity="0.92" d="M54.9445 52.7511C54.8951 52.7493 54.8548 52.7182 54.853 52.6779C54.853 52.6395 54.8932 52.6066 54.9445 52.6047L57.483 52.5919C57.5324 52.5919 57.5763 52.6249 57.5727 52.6651C57.5763 52.7036 57.5361 52.7347 57.4848 52.7347L54.9445 52.7511Z" fill="white"/>
<path opacity="0.92" d="M54.9446 54.2775C54.897 54.2775 54.8568 54.2464 54.8568 54.208C54.8568 54.1695 54.8952 54.1348 54.9446 54.1329L57.4923 54.1201C57.538 54.1201 57.5783 54.1512 57.5783 54.1915C57.5783 54.2318 57.538 54.2647 57.4904 54.2647L54.9446 54.2775Z" fill="white"/>
<path opacity="0.92" d="M54.9482 55.8057C54.897 55.8057 54.8586 55.7728 54.8586 55.7343C54.8586 55.6959 54.9006 55.6611 54.9482 55.6611L57.4922 55.6483C57.5417 55.6483 57.5838 55.6794 57.5819 55.7215C57.5838 55.76 57.5435 55.7929 57.4959 55.7929L54.9482 55.8057Z" fill="white"/>
<path d="M62.011 42.5659L62.0055 41.8375L61.839 42.0224L61.6981 41.9437L62.044 41.5593H62.1886V42.5641L62.011 42.5659Z" fill="white"/>
<path d="M61.5351 49.4072C61.5662 49.2242 61.7127 49.0778 61.9762 49.0778C62.4558 49.0759 62.5875 49.4896 62.2435 49.6817C62.0659 49.8007 62.022 49.8263 61.8371 49.9471L62.4173 49.9435V50.0826L61.5296 50.088L61.5278 49.9782L62.1226 49.5738V49.5719C62.3185 49.4584 62.2727 49.2224 61.9762 49.2224C61.8189 49.2224 61.7402 49.3029 61.7164 49.4145L61.5351 49.4072Z" fill="white"/>
<path d="M61.8371 57.0337L62.0275 57.0301C62.1556 57.0301 62.2014 56.9477 62.2032 56.8837C62.2032 56.7812 62.0805 56.7354 61.9634 56.7372C61.8646 56.7372 61.7676 56.7812 61.7456 56.858L61.5809 56.8288C61.623 56.6768 61.7914 56.6 61.9634 56.6C62.1647 56.6 62.3825 56.686 62.3844 56.88C62.3844 56.9569 62.3588 57.0392 62.2672 57.0886C62.3807 57.1436 62.4319 57.2222 62.4283 57.3229C62.4283 57.4675 62.2782 57.6139 61.9744 57.6157C61.6999 57.6157 61.5736 57.4931 61.5443 57.3577L61.7145 57.3321C61.731 57.4126 61.8115 57.484 61.9744 57.4821C62.1776 57.4785 62.2727 57.3943 62.2581 57.3101C62.2489 57.2534 62.1922 57.1673 62.0312 57.1692L61.8408 57.171L61.8371 57.0337Z" fill="white"/>
<path d="M49.7065 83.429C49.7065 83.9725 53.6616 84.3917 58.5409 84.366C63.4166 84.3386 67.3662 83.8737 67.3662 83.3301C67.3662 82.7866 63.4111 82.3656 58.5299 82.3912C53.6579 82.4205 49.7065 82.8836 49.7065 83.429ZM53.9471 83.3045C53.9489 83.0538 56.0006 82.8396 58.5355 82.8268C61.0685 82.8122 63.1256 83.0044 63.1256 83.2533C63.1256 83.5058 61.0758 83.72 58.5355 83.7328C56.0043 83.7456 53.9471 83.5553 53.9471 83.3045Z" fill="white"/>
<path d="M58.5409 84.6718C53.6708 84.6992 49.7157 84.2783 49.7065 83.7365L49.7157 84.3735C49.712 84.3735 49.712 84.3735 49.712 84.3735C49.7065 84.3735 49.7065 84.3735 49.712 84.3735V84.3808H49.7157C49.7523 84.9225 53.6927 85.338 58.5409 85.3105C63.3946 85.2831 67.3314 84.8255 67.3662 84.2838L67.3534 83.667C67.207 84.2014 63.3251 84.6462 58.5409 84.6718ZM49.7065 83.7274V83.7365C49.7065 83.731 49.7157 83.7292 49.7157 83.7256L49.7065 83.7274Z" fill="white"/>
<path d="M167.019 128.08C167.019 128.882 164.243 129.394 160.813 129.413C157.388 129.433 154.608 128.952 154.603 128.15C154.603 127.35 157.383 126.929 160.811 126.909C164.239 126.891 167.019 127.282 167.019 128.08Z" fill="white"/>
<path d="M167.012 128.534C166.607 129.261 163.928 129.755 160.785 129.773C157.357 129.792 154.55 129.358 154.548 128.514C154.548 128.503 154.576 129.1 154.576 129.1H154.579C154.607 129.938 157.381 130.436 160.787 130.418C164.195 130.399 166.962 129.872 166.984 129.03L166.988 129.028V129.021L166.99 129.019L166.988 129.017C166.988 129.017 167.052 128.468 167.012 128.534Z" fill="white"/>
<path d="M160.613 128.254L158.774 128.3L158.761 121.424C158.761 121.424 157.652 118.708 157.539 116.581C157.429 114.552 157.425 114.552 157.381 92.549C157.381 92.549 159.219 92.6478 160.837 92.6405C160.877 114.008 160.613 128.254 160.613 128.254Z" fill="white"/>
<path d="M163.08 92.8216C163.084 93.3706 163.302 115.818 163.227 117.15C163.148 118.49 162.881 120.6 162.724 121.431C162.725 122.4 162.736 128.016 162.736 128.575L163.263 128.13C163.263 128.13 163.289 123.723 163.253 121.616C163.575 120.655 164.191 119.118 164.212 116.759C164.224 115.227 164.252 92.6294 164.252 92.6294L163.08 92.8216Z" fill="white"/>
<path d="M160.661 92.7081L162.478 92.5415C162.478 92.5415 162.735 115.65 162.658 116.991C162.572 118.331 162.312 120.439 162.151 121.272C162.154 122.293 162.173 128.289 162.173 128.289L160.348 128.554L160.661 92.7081Z" fill="white"/>
<path d="M164.958 92.3639L156.581 92.4097C156.519 92.4097 156.462 92.5085 156.462 92.6256C156.462 92.7446 156.517 92.8434 156.581 92.8434L156.94 92.8398L156.924 93.5151L156.565 93.5169C156.501 93.5169 156.448 93.5737 156.448 93.6597C156.448 93.7457 156.506 93.8757 156.572 93.8757L156.929 93.8738L156.94 94.4156L156.587 94.4174C156.523 94.4192 156.466 94.4888 156.466 94.5748C156.472 94.6608 156.521 94.734 156.587 94.7322L164.964 94.6864C165.028 94.6864 165.081 94.6169 165.081 94.5309C165.081 94.443 165.024 94.3717 164.964 94.3735H164.605L164.603 93.8061L164.964 93.8025C165.028 93.8025 165.081 93.7329 165.081 93.6451C165.081 93.559 165.026 93.4877 164.962 93.4877L164.605 93.4913L164.603 92.8013L164.96 92.7995C165.02 92.7995 165.081 92.7007 165.081 92.5817C165.079 92.4609 165.02 92.3621 164.958 92.3639Z" fill="white"/>
<path d="M155.439 115.284L155.375 74.3402C155.375 74.1791 155.502 74.0473 155.666 74.0473L165.645 73.9906C165.721 73.9906 165.795 74.0217 165.849 74.0748C165.904 74.1297 165.936 74.2029 165.936 74.2816L166.034 115.123C166.034 115.218 165.985 115.309 165.906 115.361C165.859 115.394 165.343 115.73 163.995 115.851C163.185 115.965 162.107 115.994 160.758 116.025C159.446 116.06 158.229 115.979 157.368 115.877C156.239 115.739 155.666 115.567 155.646 115.562C155.602 115.547 155.562 115.523 155.529 115.492C155.474 115.439 155.439 115.366 155.439 115.284ZM156.023 115.059C156.27 115.117 156.741 115.216 157.44 115.3C158.271 115.399 159.466 115.478 160.747 115.443C162.085 115.414 163.159 115.379 163.928 115.273C164.568 115.216 164.993 115.112 165.247 115.024C165.337 114.993 165.399 114.969 165.447 114.949L165.354 74.5726L155.955 74.6293L156.023 115.059Z" fill="white"/>
<path d="M155.399 74.3328L155.375 74.2761L155.395 74.1937C155.423 74.0766 155.483 74.0016 155.533 73.943C155.69 73.7893 155.899 73.6886 156.182 73.5989C156.894 73.4177 158.055 73.2567 158.666 73.0755C158.792 73.0444 158.886 73.0078 158.935 72.984C158.951 72.4642 158.995 70.0758 158.995 70.0721V69.7903L162.478 69.7701V70.063C162.478 70.0648 162.487 72.2794 162.509 72.9236C162.509 72.9236 162.517 72.9236 162.519 72.9254C162.592 72.9565 162.7 72.9895 162.826 73.0297C163.08 73.1048 163.423 73.189 163.783 73.264C164.588 73.4488 165.416 73.5129 165.831 73.8552C165.895 73.9156 165.965 74.0126 165.967 74.1187L165.979 74.2267V92.4006V92.6935L155.472 92.7575L155.399 74.3328ZM156.051 92.1737L165.396 92.1133L165.403 74.2688L165.396 74.2505C165.229 74.1553 164.378 73.9668 163.662 73.835C162.885 73.652 162.326 73.544 162.035 73.3171C162.03 73.3061 162.024 73.2988 162.013 73.2915C161.986 73.2622 161.949 73.2274 161.935 73.1158C161.907 72.8595 161.904 71.0678 161.898 70.3595L159.568 70.3704C159.554 71.0952 159.519 72.973 159.517 73.1066C159.512 73.2274 159.451 73.3116 159.4 73.3628C159.098 73.63 158.633 73.685 158.02 73.824C157.429 73.943 156.761 74.0583 156.336 74.1626C156.168 74.212 156.038 74.2834 155.976 74.3255L156.051 92.1737Z" fill="white"/>
<path d="M161.082 62.431L160.436 62.4365L160.412 44.7183L161.064 46.3032L161.082 62.431Z" fill="white"/>
<path d="M161.561 63.2051C161.561 63.2051 161.446 62.7329 161.42 62.6579C161.417 62.6488 161.269 62.6835 161.269 62.6835L161.076 63.0349L161.084 66.1609C161.086 66.3055 160.941 66.4245 160.752 66.4245C160.571 66.4245 160.423 66.311 160.423 66.1664L160.414 63.0862L160.191 62.7018C160.191 62.7018 160.053 62.6524 160.035 62.6652C159.969 62.7201 159.881 63.2637 159.881 63.2637C159.881 63.2637 159.691 63.282 159.598 63.3314C159.501 63.3772 159.652 65.6228 159.704 65.9834C159.757 66.3439 159.367 66.7338 159.2 67.0888C159.034 67.4476 158.681 71.1244 158.681 71.2196C158.681 71.2196 159.025 71.2288 160.773 71.2654C162.297 71.2525 162.773 71.2013 162.773 71.2013C162.762 71.1043 162.498 67.4421 162.33 67.0852C162.151 66.7319 161.726 66.3 161.777 65.9376C161.825 65.5753 161.953 63.3113 161.851 63.2674C161.755 63.2234 161.561 63.2051 161.561 63.2051Z" fill="white"/>
<path d="M160.139 62.6891C160.136 62.4658 160.401 62.2682 160.723 62.2664C161.051 62.2664 161.318 62.4549 161.318 62.6782C161.318 62.6782 161.016 62.7056 160.69 62.7038C160.364 62.7001 160.139 62.6891 160.139 62.6891Z" fill="white"/>
<path d="M163.121 71.2015C163.121 71.293 163.027 71.3662 162.907 71.3698L158.459 71.3936C158.34 71.3936 158.247 71.3186 158.247 71.2271C158.245 71.1356 158.344 71.0605 158.459 71.0605L162.907 71.0349C163.024 71.0349 163.121 71.1099 163.121 71.2015Z" fill="white"/>
<path opacity="0.92" d="M157.33 76.5254C157.282 76.5254 157.242 76.4962 157.242 76.4596C157.242 76.4211 157.282 76.3918 157.328 76.3918L162.603 76.3625C162.65 76.3625 162.689 76.3918 162.689 76.4266C162.689 76.465 162.65 76.4962 162.599 76.4962L157.33 76.5254Z" fill="white"/>
<path opacity="0.92" d="M157.345 83.5534C157.295 83.5534 157.255 83.5223 157.259 83.4857C157.259 83.4472 157.295 83.418 157.343 83.418L162.617 83.3887C162.659 83.3887 162.7 83.418 162.7 83.4564C162.703 83.493 162.663 83.5223 162.617 83.5223L157.345 83.5534Z" fill="white"/>
<path opacity="0.92" d="M157.357 90.7351C157.31 90.737 157.271 90.7059 157.271 90.6693C157.271 90.6308 157.31 90.5997 157.357 90.6015L162.632 90.5704C162.676 90.5704 162.714 90.6015 162.713 90.6381C162.713 90.6766 162.676 90.704 162.632 90.7059L157.357 90.7351Z" fill="white"/>
<path opacity="0.92" d="M157.33 77.8469C157.28 77.8469 157.246 77.8176 157.24 77.781C157.246 77.7425 157.28 77.7114 157.334 77.7114L159.715 77.6949C159.759 77.6986 159.799 77.7261 159.799 77.7627C159.795 77.8029 159.76 77.8286 159.715 77.8286L157.33 77.8469Z" fill="white"/>
<path opacity="0.92" d="M157.334 79.2798C157.282 79.278 157.246 79.2487 157.246 79.214C157.249 79.1755 157.282 79.1462 157.334 79.1444L159.715 79.1298C159.759 79.1334 159.801 79.1609 159.799 79.2011C159.801 79.2377 159.762 79.2634 159.715 79.267L157.334 79.2798Z" fill="white"/>
<path opacity="0.92" d="M157.337 80.7093C157.29 80.7111 157.255 80.6818 157.255 80.6452C157.251 80.6068 157.288 80.5757 157.337 80.5757L159.718 80.561C159.762 80.5629 159.804 80.5921 159.804 80.6306C159.804 80.6672 159.764 80.6965 159.718 80.6946L157.337 80.7093Z" fill="white"/>
<path opacity="0.92" d="M157.341 82.1424C157.29 82.1442 157.255 82.1131 157.255 82.0765C157.255 82.0381 157.293 82.007 157.341 82.007L159.722 81.9941C159.764 81.9941 159.804 82.0253 159.804 82.06C159.804 82.0985 159.771 82.1259 159.718 82.1296L157.341 82.1424Z" fill="white"/>
<path opacity="0.92" d="M157.345 85.0066C157.299 85.0085 157.26 84.9792 157.26 84.9408C157.259 84.9042 157.299 84.873 157.345 84.873L159.727 84.8584C159.773 84.8584 159.812 84.8895 159.812 84.9243C159.81 84.9645 159.773 84.9938 159.727 84.992L157.345 85.0066Z" fill="white"/>
<path opacity="0.92" d="M157.346 86.4378C157.301 86.436 157.264 86.4085 157.262 86.3719C157.262 86.3353 157.299 86.3024 157.346 86.3024L159.727 86.2914C159.775 86.2914 159.815 86.3207 159.812 86.3609C159.815 86.3957 159.779 86.425 159.729 86.425L157.346 86.4378Z" fill="white"/>
<path opacity="0.92" d="M157.348 87.8709C157.304 87.8691 157.268 87.8434 157.268 87.805C157.268 87.7666 157.301 87.7355 157.348 87.7355L159.735 87.7227C159.779 87.7227 159.815 87.7519 159.815 87.7904C159.815 87.8288 159.779 87.8581 159.733 87.8581L157.348 87.8709Z" fill="white"/>
<path opacity="0.92" d="M157.352 89.3021C157.304 89.3021 157.268 89.2728 157.268 89.238C157.268 89.1996 157.306 89.1684 157.352 89.1684L159.735 89.1556C159.781 89.1556 159.819 89.1849 159.817 89.2234C159.819 89.26 159.781 89.2892 159.738 89.2892L157.352 89.3021Z" fill="white"/>
<path d="M163.97 76.8952L163.968 76.2107L163.813 76.3846L163.681 76.3095L164.005 75.949H164.135L164.138 76.8915L163.97 76.8952Z" fill="white"/>
<path d="M163.523 83.3063C163.554 83.1361 163.69 82.997 163.939 82.997C164.389 82.9951 164.513 83.3831 164.191 83.5625C164.023 83.6741 163.981 83.6961 163.811 83.8114L164.352 83.8077V83.9377L163.522 83.9432L163.518 83.8407L164.078 83.46C164.265 83.3538 164.217 83.1324 163.941 83.1324C163.794 83.1324 163.721 83.2093 163.699 83.3136L163.523 83.3063Z" fill="white"/>
<path d="M163.809 90.4533L163.986 90.4515C164.107 90.4515 164.151 90.3746 164.153 90.3105C164.153 90.2154 164.036 90.1733 163.926 90.1769C163.836 90.1769 163.741 90.2154 163.721 90.2904L163.567 90.2611C163.608 90.1184 163.769 90.047 163.926 90.047C164.114 90.047 164.321 90.1275 164.323 90.3105C164.323 90.3837 164.298 90.4625 164.213 90.5064C164.321 90.5576 164.367 90.6308 164.363 90.726C164.363 90.8614 164.222 90.9987 163.939 91.0005C163.683 91.0005 163.565 90.8852 163.532 90.7589L163.695 90.7333C163.71 90.8084 163.785 90.8743 163.937 90.8743C164.127 90.8743 164.215 90.7919 164.204 90.7132C164.197 90.6601 164.146 90.5814 163.992 90.5814L163.814 90.5832L163.809 90.4533Z" fill="white"/>
<path d="M152.438 115.194C152.438 115.705 156.146 116.096 160.721 116.071C165.288 116.045 168.994 115.609 168.994 115.101C168.994 114.592 165.286 114.197 160.708 114.222C156.142 114.25 152.438 114.683 152.438 115.194ZM156.411 115.077C156.413 114.841 158.34 114.641 160.714 114.628C163.088 114.614 165.019 114.797 165.019 115.029C165.019 115.264 163.091 115.467 160.714 115.479C158.342 115.49 156.411 115.313 156.411 115.077Z" fill="white"/>
<path d="M160.721 116.36C156.153 116.384 152.445 115.99 152.44 115.483L152.445 116.08C152.44 116.08 152.44 116.082 152.445 116.08V116.087C152.482 116.598 156.171 116.986 160.721 116.96C165.269 116.934 168.957 116.504 168.994 115.996L168.983 115.419C168.84 115.919 165.205 116.336 160.721 116.36ZM152.44 115.472L152.438 115.481C152.44 115.478 152.445 115.476 152.445 115.47L152.44 115.472ZM152.44 115.483L152.438 115.481C152.44 115.481 152.44 115.483 152.44 115.483Z" fill="white"/>
<path d="M124.928 74.1462H64.1267V119.592H124.928V74.1462Z" fill="white"/>
<path d="M106.038 47.1599H82.1963C77.1303 47.1599 73.0252 51.2669 73.0252 56.3329V65.4071H80.0495V58.2528C80.0495 54.3343 80.9737 53.4906 84.894 53.4906H103.341C107.261 53.4906 108.489 54.3343 108.489 58.2528V65.4071H115.213V56.3329C115.213 51.2669 111.108 47.1599 106.038 47.1599Z" fill="white"/>
<path d="M130.281 64.0654H57.9553C49.7193 64.0654 43.0428 70.0667 43.0428 78.3008V119.685C43.0428 127.919 49.7193 134.596 57.9553 134.596H130.281C138.517 134.596 145.192 127.919 145.192 119.685V78.3008C145.194 70.0667 138.517 64.0654 130.281 64.0654ZM113.308 106.03C113.308 106.418 112.997 106.731 112.605 106.731H102.812C102.601 106.731 102.427 106.903 102.427 107.116V116.911C102.427 117.297 102.113 117.61 101.725 117.61H88.8546C88.4684 117.61 88.1555 117.297 88.1555 116.911V116.528L88.1519 107.114C88.1519 106.901 87.9816 106.729 87.7693 106.729H77.9741C77.5861 106.729 77.2713 106.416 77.2713 106.028V93.1565C77.2713 92.7685 77.5861 92.4556 77.9741 92.4556H87.7693C87.9816 92.4556 88.1519 92.2854 88.1519 92.0749L88.1555 82.276C88.1555 81.888 88.4684 81.5732 88.8546 81.5732H101.725C102.113 81.5732 102.427 81.8861 102.427 82.276V92.0749C102.427 92.2872 102.601 92.4556 102.812 92.4556H112.605C112.997 92.4556 113.308 92.7685 113.308 93.1565V106.03Z" fill="#B52828"/>
<path d="M78.0088 119.491H48.8976V150.49H78.0088V119.491Z" fill="white"/>
<path d="M48.8976 150.49L68.7334 147.547V143.209H48.8976V150.49Z" fill="#E5F2FA"/>
<path d="M68.7333 116.548H17.4473V147.547H68.7333V116.548Z" fill="#E5F2FA"/>
<path d="M33.4378 114.361H15.3353V147.546H33.4378V114.361Z" fill="white"/>
<path d="M101.148 153.389C101.148 153.389 113.874 151.939 115.213 152.607C116.558 153.279 125.927 158.208 127.267 158.543C128.612 158.877 141.974 162.695 143.786 162.426C145.197 162.216 146.34 159.674 142.24 157.794C138.142 155.918 133.715 154.04 134.751 153.469C135.794 152.896 151.568 153.542 153.648 153.76C156.201 154.029 160.498 153.824 160.899 151.674C161.303 149.527 156.567 149.093 153.781 148.791C150.994 148.491 145.324 147.589 145.285 147.153C145.252 146.716 158.781 147.345 162.506 145.762C163.792 145.22 164.453 142.206 161.192 141.838C157.939 141.47 144.747 141.846 145.08 141.512C145.417 141.178 157.903 140.698 159.38 140.096C160.857 139.492 160.988 138.551 160.046 137.409C159.107 136.269 149.037 136.274 147.158 136.007C145.276 135.736 141.151 136.113 141.014 135.707C140.882 135.304 150.28 135.634 151.858 135.332C153.433 135.03 154.478 134.122 153.871 133.317C153.269 132.512 150.75 131.671 145.139 130.974C141.502 130.517 132.018 130.879 128.424 131.518C124.833 132.156 116.509 136.392 114.326 135.888C112.148 135.389 101.3 133.749 100.899 133.882C100.5 134.018 101.148 153.389 101.148 153.389Z" fill="#E5F2FA"/>
<path d="M103.209 162.737C103.209 162.737 113.798 155.534 115.296 155.504C116.796 155.473 127.384 155.475 128.731 155.146C130.073 154.816 143.675 151.978 145.159 150.9C146.308 150.056 146.133 147.274 141.632 147.519C137.134 147.761 132.335 148.163 132.992 147.173C133.645 146.185 147.913 139.41 149.854 138.634C152.236 137.684 155.944 135.504 155.302 133.417C154.654 131.326 150.263 133.148 147.659 134.179C145.051 135.209 139.612 137.05 139.379 136.677C139.147 136.307 151.411 130.57 153.975 127.438C154.861 126.355 154.041 123.381 150.985 124.572C147.934 125.765 136.434 132.235 136.574 131.781C136.711 131.326 147.546 125.092 148.571 123.871C149.595 122.65 149.277 121.755 147.915 121.181C146.552 120.61 137.639 125.302 135.852 125.941C134.061 126.578 130.581 128.829 130.274 128.534C129.965 128.24 138.44 124.157 139.696 123.155C140.951 122.153 141.449 120.866 140.54 120.434C139.63 120.002 137.011 120.434 131.722 122.427C128.292 123.714 120.061 128.45 117.181 130.687C114.3 132.925 108.904 140.544 106.741 141.117C104.576 141.688 94.2152 145.283 93.9188 145.592C93.6223 145.898 103.209 162.737 103.209 162.737Z" fill="white"/>
<defs>
<linearGradient id="paint0_linear_82_172" x1="51.081" y1="-19.4155" x2="261.463" y2="243.88" gradientUnits="userSpaceOnUse">
<stop stop-color="#1678F2"/>
<stop offset="1" stop-color="#65A8FB"/>
</linearGradient>
<linearGradient id="paint1_linear_82_172" x1="40.9917" y1="180.556" x2="59.0441" y2="141.756" gradientUnits="userSpaceOnUse">
<stop offset="0.1813" stop-color="white"/>
<stop offset="0.2842" stop-color="#E6E6E6"/>
<stop offset="0.5036" stop-color="#A5A5A5"/>
<stop offset="0.8192" stop-color="#3E3E3E"/>
<stop offset="1"/>
</linearGradient>
<linearGradient id="paint2_linear_82_172" x1="112.591" y1="75.4765" x2="136.159" y2="24.8219" gradientUnits="userSpaceOnUse">
<stop offset="0.1813" stop-color="white"/>
<stop offset="0.2842" stop-color="#E6E6E6"/>
<stop offset="0.5036" stop-color="#A5A5A5"/>
<stop offset="0.8192" stop-color="#3E3E3E"/>
<stop offset="1"/>
</linearGradient>
<linearGradient id="paint3_linear_82_172" x1="134.763" y1="95.6773" x2="188.74" y2="84.4431" gradientUnits="userSpaceOnUse">
<stop offset="0.0824" stop-color="white"/>
<stop offset="0.1977" stop-color="#E6E6E6"/>
<stop offset="0.4437" stop-color="#A5A5A5"/>
<stop offset="0.7974" stop-color="#3E3E3E"/>
<stop offset="1"/>
</linearGradient>
<linearGradient id="paint4_linear_82_172" x1="22.8245" y1="179.981" x2="112.484" y2="95.0413" gradientUnits="userSpaceOnUse">
<stop offset="0.1813" stop-color="white"/>
<stop offset="0.2514" stop-color="#F7F7F7"/>
<stop offset="0.3605" stop-color="#E1E1E1"/>
<stop offset="0.4952" stop-color="#BDBDBD"/>
<stop offset="0.6501" stop-color="#8B8B8B"/>
<stop offset="0.8221" stop-color="#4A4A4A"/>
<stop offset="1"/>
</linearGradient>
</defs>
</svg>
