<svg width="177" height="202" viewBox="0 0 177 202" fill="none" xmlns="http://www.w3.org/2000/svg">
<path opacity="0.78" d="M176.441 148.874C176.441 150.543 175.257 152.598 173.813 153.435L90.8533 201.328C89.4037 202.164 87.0354 202.164 85.5877 201.328L2.63187 153.435C1.18052 152.598 0 150.543 0 148.874V53.0847C0 51.4118 1.18052 49.3602 2.63187 48.5238L85.5877 0.627303C87.0354 -0.209101 89.4037 -0.209101 90.8533 0.627303L173.813 48.5238C175.257 49.3602 176.441 51.4118 176.441 53.0847V148.874Z" fill="white"/>
<path d="M174.279 147.706C174.279 149.333 173.125 151.334 171.717 152.154L90.7872 198.873C89.3743 199.688 87.0628 199.688 85.6517 198.873L4.72548 152.154C3.31073 151.336 2.15588 149.333 2.15588 147.706V54.2578C2.15588 52.6271 3.31073 50.623 4.72548 49.8067L85.6517 3.08706C87.0628 2.27079 89.3725 2.27079 90.7872 3.08706L171.717 49.8067C173.126 50.6211 174.279 52.6271 174.279 54.2578V147.706Z" fill="url(#paint0_linear_9_2537)"/>
<mask id="mask0_9_2537" style="mask-type:luminance" maskUnits="userSpaceOnUse" x="2" y="2" width="173" height="198">
<path d="M174.554 147.977C174.554 149.608 173.396 151.605 171.988 152.424L91.062 199.148C89.6472 199.962 87.3357 199.962 85.9246 199.148L4.9966 152.424C3.58185 151.606 2.427 149.608 2.427 147.977V54.5286C2.427 52.8979 3.58185 50.8975 4.9966 50.0776L85.9246 3.35793C87.3338 2.54166 89.6454 2.54166 91.062 3.35793L171.988 50.0776C173.396 50.8957 174.554 52.8979 174.554 54.5286V147.977Z" fill="white"/>
</mask>
<g mask="url(#mask0_9_2537)">
<path opacity="0.5" d="M49.2088 66.4617L73.0454 49.4719L99.351 63.4455L120.722 51.1154L129.489 77.1482L162.643 129.479L35.2352 197.433L-6.41479 150.576L-5.86386 75.3656L30.678 54.7465L49.2088 66.4617Z" fill="url(#paint1_linear_9_2537)"/>
</g>
<mask id="mask1_9_2537" style="mask-type:luminance" maskUnits="userSpaceOnUse" x="2" y="2" width="173" height="198">
<path d="M174.554 147.977C174.554 149.608 173.396 151.605 171.988 152.424L91.062 199.148C89.6472 199.962 87.3357 199.962 85.9246 199.148L4.9966 152.424C3.58185 151.606 2.427 149.608 2.427 147.977V54.5286C2.427 52.8979 3.58185 50.8975 4.9966 50.0776L85.9246 3.35793C87.3338 2.54166 89.6454 2.54166 91.062 3.35793L171.988 50.0776C173.396 50.8957 174.554 52.8979 174.554 54.5286V147.977Z" fill="white"/>
</mask>
<g mask="url(#mask1_9_2537)">
<path opacity="0.5" d="M72.2237 191.948L47.1536 205.925L-8.3291 159.074L28.7985 136.428L72.2237 191.948Z" fill="url(#paint2_linear_9_2537)"/>
</g>
<path d="M54.2546 62.9604L63.2739 101.142L44.8327 97.6319L44.635 78.2939L54.2546 62.9604Z" fill="#205F89"/>
<path d="M26.7961 65.7643L18.9792 100.639L37.6217 111.765L36.4193 70.2775L26.7961 65.7643Z" fill="#0A3960"/>
<path d="M68.0836 105.65V105.35C66.7311 96.3324 61.2185 97.5312 47.6421 91.1237L35.1125 91.3232C22.6854 96.8339 15.0699 98.8361 14.8668 106.854L13.3641 120.381H69.3831L68.0836 105.65Z" fill="white"/>
<path d="M34.7611 85.7593C34.6147 88.1623 33.1085 93.1222 30.8555 94.7785C33.2585 98.9862 38.6704 103.498 41.0772 103.798C40.9252 94.6285 41.0772 85.7611 41.0772 85.7611H34.7611V85.7593Z" fill="#E5F2FA"/>
<path d="M47.2414 85.7593C47.3933 88.1623 48.894 93.1222 51.1506 94.7785C48.7439 98.9862 43.332 103.498 40.9271 103.798C41.079 94.6285 40.9271 85.7611 40.9271 85.7611H47.2414V85.7593Z" fill="white"/>
<path opacity="0.4" d="M47.8946 86.5573L30.6339 108.641L20.7344 100.902L37.995 78.821L47.8946 86.5573Z" fill="url(#paint3_linear_9_2537)"/>
<path d="M30.1015 62.1954C28.749 64.6973 29.4334 67.9972 29.6073 71.3684C28.7727 71.5899 28.2822 72.1865 28.2822 73.8026C28.2822 76.202 29.3602 79.9887 31.044 80.5267C31.2581 81.1124 31.4997 81.6779 31.7596 82.2252C31.7779 82.2618 31.7963 82.2892 31.8127 82.3167C32.3929 83.4917 33.0407 84.5532 33.7472 85.4957C34.0876 85.9496 34.4391 86.3743 34.8014 86.7714C36.6646 88.7975 38.8388 90.031 41.1797 90.2342V55.8391C37.2575 55.8629 32.2886 58.1598 30.1015 62.1954Z" fill="#E5F2FA"/>
<path d="M41.0607 55.8409V90.236C43.396 90.0328 45.5758 88.7993 47.4371 86.7732C47.7995 86.3761 48.1545 85.9515 48.4913 85.4976C49.1941 84.5532 49.8475 83.4917 50.4258 82.3185C50.4423 82.2911 50.4643 82.2636 50.4789 82.227C50.7388 81.6798 50.9786 81.1161 51.1927 80.5286C52.8802 79.9905 53.9581 76.2038 53.9581 73.8044C53.9581 72.1883 53.4658 71.5917 52.6331 71.3702C52.8069 67.999 53.4896 64.6991 52.1389 62.1973C49.9537 58.1598 44.981 55.8629 41.0607 55.8409Z" fill="white"/>
<path d="M41.0789 55.0942C38.372 54.192 32.2976 55.1949 29.6511 58.5515C25.7455 63.5113 25.8955 73.0595 25.8955 73.0595L30.8572 72.3824C30.8572 72.3824 32.3104 66.2695 37.7187 64.1666C41.8 62.5761 41.0789 55.0942 41.0789 55.0942Z" fill="#0A3960"/>
<path d="M35.5151 59.7539C36.4193 64.2617 45.336 64.862 48.3431 66.3646C51.3519 67.8691 51.2989 72.2268 51.2989 72.2268L53.8556 71.4764C53.8556 71.4764 56.8645 62.7427 51.2989 57.7974C45.8888 52.9858 40.0248 54.9405 37.6217 55.5426C35.215 56.1448 35.5151 59.7539 35.5151 59.7539Z" fill="#205F89"/>
<path d="M51.3903 54.4646C47.739 52.0835 44.2323 51.1794 41.1301 51.0366H40.8025C37.7058 51.1794 34.1936 52.0835 30.5442 54.4646C32.2573 59.0218 33.4762 61.8733 33.4762 61.8733C36.1154 60.9417 38.4818 60.5262 40.9672 60.5555C43.4508 60.5244 45.8209 60.9417 48.4546 61.8733C48.4546 61.8733 49.6772 59.0218 51.3903 54.4646Z" fill="white"/>
<path d="M43.837 54.6641H42.3198C42.285 54.6641 42.2612 54.6421 42.2612 54.611V53.0901C42.2612 53.0315 42.2155 52.9821 42.1551 52.9821H40.1601C40.0979 52.9821 40.0503 53.0315 40.0503 53.0901V54.611C40.0503 54.6439 40.0229 54.6641 39.9918 54.6641H38.4745C38.416 54.6641 38.3684 54.7153 38.3684 54.7776V56.7707C38.3684 56.8311 38.4141 56.8823 38.4745 56.8823H39.9918C40.0247 56.8823 40.0503 56.9079 40.0503 56.9372V58.4563C40.0503 58.5148 40.0979 58.5642 40.1601 58.5642H42.1551C42.2137 58.5642 42.2612 58.5167 42.2612 58.4563V56.9372C42.2612 56.9061 42.2869 56.8823 42.3198 56.8823H43.837C43.8992 56.8823 43.9468 56.8329 43.9468 56.7707V54.7776C43.9468 54.7172 43.8992 54.6641 43.837 54.6641Z" fill="#0A3960"/>
<path d="M160.734 113.752V113.448C159.35 104.25 157.026 102.886 143.175 96.3525L125.084 96.7351C111.229 101.428 107.68 104.55 106.454 114.98L104.92 128.784H162.059L160.734 113.752Z" fill="white"/>
<path d="M126.081 91.9783L124.853 96.5795L133.404 103.476L133.131 92.747L126.081 91.9783Z" fill="#E5F2FA"/>
<path d="M140.302 92.1338L141.528 96.7349L132.981 103.629L133.25 92.8988L140.302 92.1338Z" fill="white"/>
<path d="M125.287 94.9835C126.134 96.056 130.896 99.526 133.473 99.2515C136.045 98.9825 140.32 96.6819 141.169 94.8407C141.878 95.6094 144.326 96.81 144.326 96.81L132.981 108.245L122.401 97.8075L125.287 94.9835Z" fill="#E5F2FA"/>
<path opacity="0.4" d="M140.417 93.2705L127.276 110.083L118.239 103.018L131.38 86.2114L140.417 93.2705Z" fill="url(#paint4_linear_9_2537)"/>
<path d="M125.142 92.0698C125.488 92.5347 125.849 92.9703 126.22 93.3711C126.222 93.3656 126.227 93.3546 126.227 93.3418C125.854 92.952 125.492 92.5201 125.142 92.0698Z" fill="white"/>
<path d="M147.026 80.3162C147.026 78.7642 146.577 78.1328 145.809 77.8784C145.994 74.6993 146.453 71.3336 145.287 69.0019C143.073 64.5509 136.954 61.8184 132.778 61.8184C128.771 61.8184 123.665 64.1647 121.423 68.3028C120.043 70.8614 120.74 74.2198 120.922 77.657C120.067 77.8839 119.569 78.4915 119.569 80.1387C119.569 82.5857 120.671 86.4511 122.389 87.0002C122.605 87.5986 122.853 88.1715 123.118 88.7315C123.134 88.7645 123.154 88.7956 123.169 88.823C123.76 90.0182 124.425 91.1053 125.142 92.0661C125.49 92.5164 125.854 92.9483 126.227 93.3382C126.227 93.351 126.222 93.362 126.22 93.3675C128.299 95.6278 130.763 96.9418 133.409 96.9418C137.456 96.9418 141.072 93.889 143.527 89.061C143.715 88.7004 143.927 88.3783 144.163 88.0909C144.308 87.7304 144.449 87.3735 144.568 87.002C146.08 86.0704 147.026 82.5857 147.026 80.3162Z" fill="#E5F2FA"/>
<path d="M143.527 89.0646C143.715 88.7041 143.927 88.3819 144.163 88.0946C144.308 87.7377 144.449 87.3772 144.568 87.0056C146.08 86.0704 147.028 82.5857 147.028 80.3162C147.028 78.7642 146.579 78.1364 145.811 77.8784C145.996 74.6993 146.455 71.3336 145.289 69.0037C143.1 64.6076 137.103 61.8879 132.93 61.8239V96.9162C133.091 96.9235 133.25 96.9455 133.411 96.9455C137.456 96.9455 141.07 93.8927 143.527 89.0646Z" fill="white"/>
<path d="M140.781 67.5872C141.032 69.6297 137.201 69.5419 134.644 69.1209C132.09 68.6981 130.585 69.2033 128.199 69.8859C125.788 70.5778 123.427 73.0668 123.089 74.315C122.884 75.0618 123.059 78.6618 123.059 78.6618L120.92 77.6588C120.92 77.6588 120.228 72.6642 120.993 69.3003C121.732 66.0645 123.317 63.1874 129.361 61.8788C134.84 60.6965 138.691 61.4121 138.858 62.7719C139.284 62.8598 139.628 62.5175 140.133 62.5175C141.413 62.5175 143.345 64.075 144.456 65.865C145.562 67.6549 147.121 70.8614 146.354 76.4033C146.18 77.8491 145.886 78.2353 145.886 78.2353L144.101 79.2584C144.101 79.2584 144.896 72.2707 141.996 70.2245C141.081 69.584 140.781 67.5872 140.781 67.5872Z" fill="#0A3960"/>
<path d="M141.975 70.1475C144.87 72.1937 144.079 79.1778 144.079 79.1778L145.864 78.1565C145.864 78.1565 146.162 77.7703 146.332 76.3281C147.103 70.7845 146.038 67.5084 144.928 65.7185C143.821 63.9267 141.391 62.4406 140.113 62.4406C139.859 62.4406 139.16 62.6181 138.958 62.6913C139.502 64.4959 140.767 67.0838 140.756 67.5084C140.756 67.5084 141.059 69.507 141.975 70.1475Z" fill="#205F89"/>
<path d="M140.758 67.5103C140.752 67.6365 140.74 67.8086 140.727 67.9861C140.76 67.8397 140.776 67.6841 140.758 67.5103Z" fill="#205F89"/>
<path d="M146.179 50.559C146.175 49.6951 140.595 48.6738 133.605 48.6738C126.614 48.6738 120.856 49.6969 120.85 50.559V69.8036C120.85 69.8036 121.043 69.767 121.043 69.7541C121.043 69.0879 126.65 68.1784 133.643 68.1784C139.912 68.1784 145.166 68.9818 146.179 69.551V50.559Z" fill="white"/>
<path d="M120.852 50.5588V69.8034C120.852 69.8034 121.044 69.7668 121.044 69.754C121.044 69.0878 126.652 68.1782 133.645 68.1782C133.682 68.1782 133.717 68.1782 133.751 68.1782V48.6774C133.7 48.6774 133.654 48.6755 133.607 48.6755C126.614 48.6737 120.856 49.695 120.852 50.5588Z" fill="#E5F2FA"/>
<path d="M137.864 57.0561H135.466C135.411 57.0561 135.371 57.0177 135.371 56.9646V54.5616C135.371 54.4646 135.298 54.3895 135.203 54.3895H132.046C131.954 54.3895 131.872 54.4646 131.872 54.5616V56.9646C131.872 57.0159 131.832 57.0561 131.78 57.0561H129.377C129.282 57.0561 129.207 57.133 129.207 57.2319V60.3835C129.207 60.4786 129.282 60.5573 129.377 60.5573H131.78C131.83 60.5573 131.872 60.5994 131.872 60.6489V63.0519C131.872 63.1471 131.954 63.2239 132.046 63.2239H135.203C135.298 63.2239 135.371 63.1471 135.371 63.0519V60.6489C135.371 60.6013 135.41 60.5573 135.466 60.5573H137.864C137.966 60.5573 138.041 60.4786 138.041 60.3835V57.2319C138.04 57.133 137.965 57.0561 137.864 57.0561Z" fill="#0A3960"/>
<path opacity="0.5" d="M78.8013 134.137L32.358 164.138L4.00085 136.328L61.8134 102.901L78.8013 134.137Z" fill="url(#paint5_linear_9_2537)"/>
<path d="M129.289 122.23V121.769C127.212 107.945 123.716 105.901 102.905 96.0779L75.7156 96.6526C54.8951 103.708 49.5638 108.404 47.7207 124.073L45.4147 144.813H131.284L129.289 122.23Z" fill="white"/>
<path d="M77.2127 89.5113L75.3715 96.424L88.2195 106.787L87.8132 90.6625L77.2127 89.5113Z" fill="#E5F2FA"/>
<path d="M98.5877 89.7419L100.431 96.6546L87.5808 107.015L87.9908 90.8931L98.5877 89.7419Z" fill="white"/>
<path d="M76.1457 92.7361C77.4176 94.3504 84.1253 99.55 87.998 99.1363C91.8671 98.7264 98.2911 95.2728 99.5649 92.5055C100.626 93.6567 104.635 96.768 104.635 96.768L87.5826 136.516L71.6854 98.2633L76.1457 92.7361Z" fill="#0A3960"/>
<path d="M75.807 89.6467C76.3231 90.344 76.8667 90.9974 77.4249 91.5995C77.4286 91.5922 77.4322 91.5757 77.4377 91.5611C76.8722 90.9681 76.3304 90.3275 75.807 89.6467Z" fill="white"/>
<path d="M108.694 71.9834C108.694 69.6444 108.02 68.7018 106.866 68.3175C107.142 63.5406 107.83 58.482 106.08 54.9808C102.751 48.2969 93.5564 44.1862 87.2788 44.1862C81.2574 44.1862 73.5834 47.7167 70.2158 53.9321C68.1422 57.7718 69.1927 62.825 69.4599 67.9935C68.1824 68.3321 67.4338 69.2472 67.4338 71.7217C67.4338 75.3985 69.0847 81.2058 71.6671 82.033C71.9984 82.9298 72.3662 83.7955 72.7652 84.6319C72.7908 84.685 72.8238 84.7326 72.8458 84.7729C73.7371 86.5683 74.7327 88.2027 75.8107 89.6467C76.3341 90.3275 76.8759 90.9699 77.4414 91.5629C77.4359 91.5776 77.4322 91.594 77.4286 91.6013C80.5527 95.0019 84.2553 96.9785 88.2323 96.9785C94.3104 96.9785 99.7461 92.3865 103.438 85.1297C103.719 84.5862 104.038 84.1067 104.395 83.6747C104.609 83.133 104.821 82.5986 105.002 82.0367C107.276 80.6293 108.694 75.3931 108.694 71.9834Z" fill="#E5F2FA"/>
<path d="M103.434 85.1279C103.716 84.5843 104.034 84.1048 104.391 83.6728C104.605 83.1348 104.818 82.5967 104.999 82.0348C107.274 80.6274 108.694 75.3912 108.694 71.9852C108.694 69.648 108.021 68.7036 106.866 68.3174C107.142 63.5406 107.83 58.4819 106.08 54.9825C102.788 48.3755 93.776 44.2905 87.5039 44.1935V96.929C87.7473 96.9437 87.9871 96.9748 88.2287 96.9748C94.3086 96.9766 99.7425 92.3846 103.434 85.1279Z" fill="white"/>
<path d="M99.3068 52.8559C99.6857 55.9233 93.9279 55.7934 90.0863 55.1564C86.2447 54.5177 83.988 55.2827 80.399 56.3058C76.7752 57.3472 73.2282 61.09 72.7213 62.9641C72.4083 64.086 72.6774 69.4924 72.6774 69.4924L69.4598 67.9935C69.4598 67.9935 67.981 60.0852 69.1322 55.0302C70.2413 50.1655 73.0617 46.2379 82.145 44.2777C90.3846 42.4969 96.1626 43.5731 96.4224 45.6174C97.0594 45.7492 97.5773 45.2367 98.3423 45.2367C100.262 45.2367 103.912 47.4733 105.579 50.1637C107.243 52.8559 108.842 57.7773 107.686 66.1047C107.431 68.2753 106.985 68.8555 106.985 68.8555L104.3 70.3911C104.3 70.3911 105.491 59.893 101.139 56.8183C99.7644 55.8519 99.3068 52.8559 99.3068 52.8559Z" fill="#0A3960"/>
<path d="M101.102 56.7048C105.454 59.7795 104.267 70.2739 104.267 70.2739L106.946 68.742C106.946 68.742 107.393 68.1637 107.649 65.9912C108.804 57.6638 107.206 52.7405 105.541 50.0483C103.875 47.3579 100.226 45.1214 98.3057 45.1214C97.925 45.1214 96.8763 45.3886 96.5707 45.5003C97.387 48.2126 99.2885 52.0981 99.272 52.7405C99.272 52.7405 99.7259 55.7348 101.102 56.7048Z" fill="#205F89"/>
<path d="M99.2703 52.7406C99.2666 52.9291 99.241 53.189 99.2245 53.4507C99.2739 53.2329 99.3014 53.0023 99.2703 52.7406Z" fill="#205F89"/>
<mask id="mask2_9_2537" style="mask-type:luminance" maskUnits="userSpaceOnUse" x="71" y="92" width="34" height="45">
<path d="M75.9169 92.9667C77.1889 94.5791 83.8947 99.7806 87.7656 99.3706C91.6365 98.957 98.0587 95.5016 99.3343 92.7361C100.398 93.8873 104.404 96.9987 104.404 96.9987L87.3538 136.749L71.453 98.4958L75.9169 92.9667Z" fill="white"/>
</mask>
<g mask="url(#mask2_9_2537)">
<path d="M90.3772 109.757H87.5624V102.365H93.1646L93.2012 105.548L90.3772 109.757Z" fill="url(#paint6_linear_9_2537)"/>
<path d="M90.7324 108.63L95.6593 155.263L87.8681 161.374L87.7034 161.211L87.416 108.666L90.7324 108.63Z" fill="url(#paint7_linear_9_2537)"/>
<path d="M85.4009 109.757H87.7619V102.365H82.026L82.0663 105.548L85.4009 109.757Z" fill="#006E99"/>
<path d="M85.0056 108.63L80.0769 155.263L87.8681 161.374L87.7583 108.63H85.0056Z" fill="#006E99"/>
<path d="M90.8457 109.682H84.936V109.144H90.7872L90.8457 109.682Z" fill="#006E99"/>
</g>
<path d="M66.3504 132.094C65.3511 132.47 64.9319 132.728 64.7269 132.949C64.5641 133.129 64.1449 133.714 64.1504 134.986C64.1541 135.894 63.9857 141.763 65.4554 145.528C65.6018 145.821 65.8836 145.719 66.0301 145.492C66.2222 145.21 66.5297 143.193 66.3229 143.024C66.1143 142.867 65.6805 142.691 65.4902 142.338C65.2944 141.989 65.5396 135.808 65.6512 135.497C65.7629 135.178 66.1381 135.235 66.4053 135.279C66.1948 133.844 66.3504 132.094 66.3504 132.094Z" fill="#006E99"/>
<path d="M71.8447 135.766H29.0783C28.6647 135.766 28.3352 136.103 28.3352 136.513V191.962C28.3352 192.374 28.6665 192.709 29.0783 192.709H71.8447C72.2602 192.709 72.5914 192.372 72.5914 191.962V136.513C72.5914 136.103 72.2602 135.766 71.8447 135.766Z" fill="#0A3960"/>
<path d="M66.8719 180.242C66.861 180.253 62.0823 185.353 62.1299 185.353H34.6055C34.298 185.353 34.0509 185.106 34.0509 184.795V143.68C34.0509 143.372 34.298 143.125 34.6055 143.125H66.3211C66.6249 143.125 66.8719 143.372 66.8719 143.68V180.242Z" fill="white"/>
<path d="M58.1712 134.43H42.7536C42.3766 134.43 42.0709 134.737 42.0709 135.112C42.0709 135.491 42.3766 135.795 42.7536 135.795H43.9469C43.7822 136.05 43.687 136.346 43.687 136.668C43.687 137.558 44.4099 138.288 45.3049 138.288H55.6236C56.5149 138.288 57.2415 137.559 57.2415 136.668C57.2415 136.346 57.1427 136.05 56.9816 135.795H58.1694C58.5483 135.795 58.8521 135.491 58.8521 135.112C58.8539 134.737 58.5501 134.43 58.1712 134.43Z" fill="#ADADAD"/>
<path d="M62.086 149.247H38.8387V150.192H62.086V149.247Z" fill="#E5F2FA"/>
<path d="M62.086 153.299H38.8387V154.244H62.086V153.299Z" fill="#E5F2FA"/>
<path d="M62.086 157.637H38.8387V158.581H62.086V157.637Z" fill="#E5F2FA"/>
<path d="M62.086 161.689H38.8387V162.633H62.086V161.689Z" fill="#E5F2FA"/>
<path d="M62.086 166.025H38.8387V166.969H62.086V166.025Z" fill="#E5F2FA"/>
<path d="M62.086 170.079H38.8387V171.019H62.086V170.079Z" fill="#E5F2FA"/>
<path d="M62.086 174.414H38.8387V175.359H62.086V174.414Z" fill="#E5F2FA"/>
<path d="M62.6681 180.227H66.8885L62.1154 185.364V180.782C62.1135 180.474 62.3624 180.227 62.6681 180.227Z" fill="#ADADAD"/>
<path d="M68.8248 172.681C68.8248 172.681 68.4844 173.499 68.3124 173.499C68.1422 173.499 67.7761 172.652 67.7761 172.652L68.8248 172.681Z" fill="#E5F2FA"/>
<path d="M68.8248 172.707C69.2384 171.777 69.5807 168.896 69.6228 168.342L66.9965 168.353C67.0276 169.235 67.5638 172.117 67.7871 172.718C68.3892 172.71 68.7443 172.71 68.8248 172.707Z" fill="white"/>
<path d="M69.6082 168.435C69.8809 167.092 70.4117 147.752 70.4117 147.752L66.0338 147.748C66.0338 147.748 66.7512 167.101 67.0239 168.453C68.5778 168.477 69.3392 168.442 69.6082 168.435Z" fill="#E5F2FA"/>
<path d="M68.2318 132.27H68.2446C68.2446 132.27 68.2447 132.27 68.2465 132.267L70.4409 132.12C70.4409 131.933 70.6038 129.329 68.2446 129.289C68.241 129.289 68.2355 129.289 68.2318 129.289C68.2282 129.289 68.2245 129.289 68.2191 129.289C65.8599 129.327 66.0265 131.933 66.0265 132.12L68.2172 132.267C68.2172 132.27 68.2191 132.27 68.2191 132.27H68.2318Z" fill="#006E99"/>
<path d="M68.2208 147.144L68.8358 147.212V147.084L70.4482 147.031C70.4482 146.899 70.5763 132.385 70.4244 131.684C69.4013 131.659 68.6802 131.659 68.2208 131.666C67.7633 131.659 67.0403 131.659 66.0228 131.684C65.8672 132.385 66.0904 146.769 66.0904 146.901L67.6077 147.084V147.212L68.2208 147.144Z" fill="#E5F2FA"/>
<path d="M66.0045 147.951C65.9532 147.951 65.9093 147.915 65.9093 147.865V146.767C65.9093 146.721 65.9514 146.677 66.0045 146.677H70.5745C70.6239 146.677 70.6678 146.72 70.6678 146.767V147.865C70.6678 147.915 70.6258 147.951 70.5745 147.951H66.0045Z" fill="#006E99"/>
<defs>
<linearGradient id="paint0_linear_9_2537" x1="45.1868" y1="-19.4151" x2="255.569" y2="243.876" gradientUnits="userSpaceOnUse">
<stop stop-color="#1678F2"/>
<stop offset="1" stop-color="#65A8FB"/>
</linearGradient>
<linearGradient id="paint1_linear_9_2537" x1="10.557" y1="174.608" x2="122.904" y2="53.1318" gradientUnits="userSpaceOnUse">
<stop offset="0.1813" stop-color="white"/>
<stop offset="0.2558" stop-color="#F9F9F9"/>
<stop offset="0.359" stop-color="#E7E7E7"/>
<stop offset="0.4789" stop-color="#C9C9C9"/>
<stop offset="0.6115" stop-color="#A0A0A0"/>
<stop offset="0.7545" stop-color="#6C6C6C"/>
<stop offset="0.9038" stop-color="#2D2D2D"/>
<stop offset="1"/>
</linearGradient>
<linearGradient id="paint2_linear_9_2537" x1="18.1758" y1="191.923" x2="51.73" y2="164.849" gradientUnits="userSpaceOnUse">
<stop offset="0.3846" stop-color="white"/>
<stop offset="0.462" stop-color="#E6E6E6"/>
<stop offset="0.6269" stop-color="#A5A5A5"/>
<stop offset="0.8641" stop-color="#3E3E3E"/>
<stop offset="1"/>
</linearGradient>
<linearGradient id="paint3_linear_9_2537" x1="40.5757" y1="109.378" x2="42.8126" y2="79.1788" gradientUnits="userSpaceOnUse">
<stop offset="0.1044" stop-color="white"/>
<stop offset="0.206" stop-color="#FBFBFB"/>
<stop offset="0.2967" stop-color="#F1F1F1"/>
<stop offset="0.3832" stop-color="#DEDEDE"/>
<stop offset="0.4673" stop-color="#C5C5C5"/>
<stop offset="0.5494" stop-color="#A4A4A4"/>
<stop offset="0.6302" stop-color="#7B7B7B"/>
<stop offset="0.71" stop-color="#4B4B4B"/>
<stop offset="0.7869" stop-color="#141414"/>
<stop offset="0.8132"/>
</linearGradient>
<linearGradient id="paint4_linear_9_2537" x1="135.835" y1="111.417" x2="139.568" y2="87.4876" gradientUnits="userSpaceOnUse">
<stop offset="0.1044" stop-color="white"/>
<stop offset="0.206" stop-color="#FBFBFB"/>
<stop offset="0.2967" stop-color="#F1F1F1"/>
<stop offset="0.3832" stop-color="#DEDEDE"/>
<stop offset="0.4673" stop-color="#C5C5C5"/>
<stop offset="0.5494" stop-color="#A4A4A4"/>
<stop offset="0.6302" stop-color="#7B7B7B"/>
<stop offset="0.71" stop-color="#4B4B4B"/>
<stop offset="0.7869" stop-color="#141414"/>
<stop offset="0.8132"/>
</linearGradient>
<linearGradient id="paint5_linear_9_2537" x1="3.8074" y1="165.561" x2="79.8579" y2="104.207" gradientUnits="userSpaceOnUse">
<stop offset="0.3846" stop-color="white"/>
<stop offset="0.462" stop-color="#E6E6E6"/>
<stop offset="0.6269" stop-color="#A5A5A5"/>
<stop offset="0.8641" stop-color="#3E3E3E"/>
<stop offset="1"/>
</linearGradient>
<linearGradient id="paint6_linear_9_2537" x1="88.9721" y1="101.543" x2="97.0338" y2="110.352" gradientUnits="userSpaceOnUse">
<stop stop-color="#1678F2"/>
<stop offset="1" stop-color="#65A8FB"/>
</linearGradient>
<linearGradient id="paint7_linear_9_2537" x1="89.4768" y1="102.769" x2="114.099" y2="108.281" gradientUnits="userSpaceOnUse">
<stop stop-color="#1678F2"/>
<stop offset="1" stop-color="#65A8FB"/>
</linearGradient>
</defs>
</svg>
