<svg width="28" height="47" viewBox="0 0 28 47" fill="none" xmlns="http://www.w3.org/2000/svg">
<path d="M21.7936 4.29996C21.7936 5.44038 21.3403 6.5341 20.5334 7.34049C19.7265 8.14689 18.6321 8.59992 17.491 8.59992C16.3499 8.59992 15.2555 8.14689 14.4486 7.34049C13.6418 6.5341 13.1885 5.44038 13.1885 4.29996C13.1885 3.15954 13.6418 2.06583 14.4486 1.25943C15.2555 0.45303 16.3499 0 17.491 0C18.6321 0 19.7265 0.45303 20.5334 1.25943C21.3403 2.06583 21.7936 3.15954 21.7936 4.29996ZM15.8162 26.2265L21.4021 31.7348C21.6162 31.946 21.7837 32.1998 21.8936 32.4798L24.8721 40.0638C25.0806 40.5947 25.0696 41.1866 24.8414 41.7093C24.6133 42.2321 24.1867 42.6429 23.6555 42.8513C23.1243 43.0597 22.5321 43.0487 22.009 42.8207C21.4859 42.5927 21.0749 42.1663 20.8664 41.6355L18.0547 34.4749L8.45133 25.0043C8.21927 24.7756 8.04224 24.4972 7.93361 24.1901C7.82497 23.883 7.78757 23.5553 7.82423 23.2316L8.59331 16.4377C6.7389 18.2802 5.3083 20.8699 4.21222 24.3023C4.13027 24.5759 3.99459 24.8305 3.8131 25.0511C3.63162 25.2718 3.40796 25.454 3.1552 25.5873C2.90244 25.7206 2.62564 25.8022 2.34096 25.8274C2.05629 25.8526 1.76944 25.8208 1.49719 25.734C1.22493 25.6471 0.972712 25.507 0.755269 25.3216C0.537825 25.1363 0.359513 24.9095 0.230746 24.6545C0.101978 24.3995 0.0253357 24.1215 0.0052957 23.8366C-0.0147443 23.5516 0.0222191 23.2656 0.114028 22.9951C2.12548 16.6957 5.46534 11.9808 11.0694 9.81896L11.0942 9.80929C12.5216 9.27932 14.0059 9.32232 15.329 10.0049C16.5993 10.6618 17.5039 11.7959 18.0966 13.0665C18.3462 13.6019 18.5763 14.1017 18.7936 14.5715C19.3185 15.7088 19.7595 16.6677 20.1844 17.5084C20.7793 18.6909 21.2579 19.4756 21.7312 20.026C22.1701 20.5355 22.6057 20.8494 23.1618 21.0666C23.7599 21.2999 24.5978 21.4611 25.8918 21.4998C26.176 21.5055 26.4564 21.5674 26.7165 21.6821C26.9767 21.7967 27.2115 21.9617 27.4075 22.1676C27.6034 22.3735 27.7566 22.6161 27.8581 22.8815C27.9597 23.147 28.0076 23.4298 27.999 23.7139C27.9905 23.9979 27.9257 24.2774 27.8084 24.5362C27.6912 24.7951 27.5237 25.0281 27.3157 25.2219C27.1078 25.4157 26.8635 25.5663 26.5969 25.6651C26.3303 25.764 26.0468 25.809 25.7627 25.7976C24.2084 25.7514 22.8284 25.5525 21.5967 25.072C20.3243 24.5754 19.3207 23.8196 18.4666 22.8253C17.9288 22.1996 17.4555 21.4848 17.0145 20.7075L15.8162 26.2265Z" fill="url(#paint0_linear_96_761)"/>
<path d="M8.38315 30.2178L12.2036 33.8826L10.4449 39.8144C10.3089 40.2734 10.0334 40.6786 9.65663 40.9738L3.73984 45.6102C3.50147 45.7969 3.22866 45.9348 2.937 46.0161C2.64533 46.0973 2.34052 46.1203 2.03996 46.0838C1.73941 46.0472 1.44899 45.9518 1.1853 45.8031C0.921605 45.6543 0.689799 45.455 0.503115 45.2166C0.316431 44.9783 0.178526 44.7055 0.0972719 44.4138C0.0160179 44.1221 -0.00699342 43.8173 0.0295529 43.5168C0.0660992 43.2162 0.161487 42.9258 0.31027 42.6621C0.459053 42.3984 0.658317 42.1666 0.896685 41.9799L6.23494 37.7987L7.84264 32.3706L8.38315 30.2178Z" fill="url(#paint1_linear_96_761)"/>
<defs>
<linearGradient id="paint0_linear_96_761" x1="7" y1="-4.77778" x2="53.9653" y2="39.0289" gradientUnits="userSpaceOnUse">
<stop stop-color="#1678F2"/>
<stop offset="1" stop-color="#65A8FB"/>
</linearGradient>
<linearGradient id="paint1_linear_96_761" x1="3.06042" y1="28.453" x2="20.3721" y2="47.4866" gradientUnits="userSpaceOnUse">
<stop stop-color="#1678F2"/>
<stop offset="1" stop-color="#65A8FB"/>
</linearGradient>
</defs>
</svg>
