<svg width="42" height="42" viewBox="0 0 42 42" fill="none" xmlns="http://www.w3.org/2000/svg">
<path d="M25.5339 6.24529C25.6682 6.20457 25.7931 6.13731 25.901 6.0475C26.0089 5.95769 26.0977 5.84715 26.1622 5.72241C26.2266 5.59768 26.2654 5.46129 26.2762 5.32131C26.287 5.18133 26.2696 5.0406 26.2251 4.90745C26.1806 4.77429 26.1098 4.65142 26.017 4.5461C25.9241 4.44078 25.8111 4.35515 25.6846 4.29427C25.5581 4.2334 25.4207 4.19851 25.2804 4.19167C25.1402 4.18484 25 4.2062 24.8682 4.25449C22.9005 4.90969 21.672 6.52669 20.9496 8.25919C20.8526 8.49338 20.7636 8.73081 20.6829 8.97109C20.2895 8.22588 19.7861 7.54414 19.1898 6.94879C18.3826 6.13988 17.4185 5.50463 16.3568 5.0821C15.295 4.65956 14.158 4.45868 13.0158 4.49179C11.7978 4.52539 10.8255 5.49979 10.7919 6.71569C10.7588 7.85795 10.9597 8.99491 11.3822 10.0567C11.8047 11.1184 12.44 12.0825 13.2489 12.8897L13.314 12.9527C11.55 13.3348 9.95585 14.2747 8.76752 15.6332C7.57918 16.9917 6.85978 18.6967 6.71578 20.4959L6.70318 20.6513C6.42595 24.1104 7.16301 27.5753 8.82418 30.6221L9.58018 32.0039C9.60118 32.0396 9.62218 32.0753 9.64738 32.1089L11.7474 35.0531C12.2233 35.7196 12.8388 36.2745 13.5509 36.6791C14.2631 37.0837 15.0548 37.3282 15.8711 37.3958C16.6873 37.4633 17.5085 37.3523 18.2775 37.0703C19.0464 36.7883 19.7447 36.3421 20.3238 35.7629C20.4127 35.6739 20.5183 35.6034 20.6345 35.5552C20.7507 35.5071 20.8752 35.4823 21.001 35.4823C21.1268 35.4823 21.2514 35.5071 21.3676 35.5552C21.4838 35.6034 21.5894 35.6739 21.6783 35.7629C22.2573 36.3421 22.9556 36.7883 23.7246 37.0703C24.4936 37.3523 25.3147 37.4633 26.131 37.3958C26.9473 37.3282 27.739 37.0837 28.4511 36.6791C29.1633 36.2745 29.7787 35.7196 30.2547 35.0531L32.3547 32.111C32.3792 32.0766 32.4016 32.0409 32.4219 32.0039L33.1758 30.6221C34.837 27.5753 35.574 24.1104 35.2968 20.6513L35.2863 20.4959C35.1933 19.3362 34.8605 18.2085 34.3089 17.1842C33.7574 16.1599 32.999 15.2614 32.082 14.5455C31.1649 13.8297 30.1092 13.3121 28.9816 13.0256C27.8541 12.7391 26.6793 12.69 25.5318 12.8813L22.0521 13.4609C22.0731 12.0308 22.3251 10.4222 22.89 9.06559C23.478 7.64809 24.3516 6.64009 25.5318 6.24529M14.5068 18.8453C14.1844 18.9472 13.8854 19.112 13.6269 19.33C13.3685 19.5481 13.1558 19.8151 13.0011 20.1158C12.6126 20.8466 12.3459 22.052 12.5916 24.0197C12.6191 24.2925 12.5389 24.5652 12.368 24.7796C12.1972 24.994 11.9492 25.1331 11.6771 25.1671C11.4051 25.2011 11.1305 25.1274 10.9121 24.9616C10.6937 24.7959 10.5488 24.5513 10.5084 24.2801C10.2291 22.0457 10.4874 20.3636 11.1489 19.1267C11.8209 17.8667 12.8436 17.1863 13.8432 16.8524C14.1075 16.7644 14.3959 16.785 14.645 16.9096C14.8941 17.0343 15.0834 17.2528 15.1714 17.517C15.2594 17.7813 15.2388 18.0697 15.1142 18.3188C14.9896 18.5679 14.7711 18.7573 14.5068 18.8453Z" fill="url(#paint0_linear_96_752)"/>
<defs>
<linearGradient id="paint0_linear_96_752" x1="13.8231" y1="0.498811" x2="49.3877" y2="44.517" gradientUnits="userSpaceOnUse">
<stop stop-color="#1678F2"/>
<stop offset="1" stop-color="#65A8FB"/>
</linearGradient>
</defs>
</svg>
