<svg width="180" height="206" viewBox="0 0 180 206" fill="none" xmlns="http://www.w3.org/2000/svg">
<path opacity="0.78" d="M176.448 152.663C176.448 154.334 175.262 156.389 173.816 157.224L90.8606 205.118C89.4092 205.955 87.0391 205.955 85.5932 205.118L2.6355 157.224C1.18415 156.387 0 154.334 0 152.663V56.8737C0 55.2008 1.18415 53.1474 2.6355 52.3109L85.5932 4.4163C87.0391 3.5799 89.4092 3.5799 90.8606 4.4163L173.816 52.3109C175.26 53.1474 176.448 55.2008 176.448 56.8737V152.663Z" fill="white"/>
<path d="M174.287 151.49C174.287 153.122 173.13 155.125 171.723 155.939L90.7966 202.662C89.3818 203.477 87.0684 203.477 85.6573 202.662L4.73115 155.939C3.3164 155.125 2.16153 153.12 2.16153 151.49V58.0449C2.16153 56.4124 3.3164 54.412 4.73115 53.5939L85.6573 6.8724C87.0666 6.05612 89.38 6.05612 90.7966 6.8724L171.723 53.5939C173.132 54.4101 174.287 56.4124 174.287 58.0449V151.49Z" fill="url(#paint0_linear_82_101)"/>
<path d="M93.7504 21.8417H82.7546V41.877H93.7504V21.8417Z" fill="#0A3960"/>
<mask id="mask0_82_101" style="mask-type:luminance" maskUnits="userSpaceOnUse" x="2" y="6" width="173" height="198">
<path d="M174.492 151.285C174.492 152.917 173.335 154.92 171.928 155.736L90.9996 202.457C89.5849 203.272 87.2751 203.272 85.8604 202.457L4.93602 155.736C3.52127 154.921 2.36639 152.917 2.36639 151.285V57.84C2.36639 56.2093 3.52127 54.2052 4.93602 53.3889L85.8604 6.66927C87.2733 5.853 89.5849 5.853 90.9996 6.66927L171.928 53.3889C173.337 54.2052 174.492 56.2074 174.492 57.84V151.285Z" fill="white"/>
</mask>
<g mask="url(#mask0_82_101)">
<path opacity="0.5" d="M179.618 122.19L63.9528 197.437L-1.31414 168.996L-2.90091 64.8936L24.909 47.8361L28.8129 45.9876L41.7597 45.7808L45.6636 49.0696L51.4855 45.2335L67.8585 46.3994L74.0171 49.6809L93.4667 37.0306L106.703 28.4194L179.618 122.19Z" fill="url(#paint1_linear_82_101)"/>
</g>
<path d="M169.052 22.2059C167.387 22.83 166.688 23.2582 166.349 23.6298C166.075 23.9299 165.376 24.8999 165.383 27.0285C165.388 28.5402 165.108 38.3373 167.561 44.6167C167.806 45.1054 168.275 44.9334 168.52 44.56C168.84 44.0841 169.354 40.7202 169.008 40.4475C168.661 40.1803 167.941 39.8875 167.621 39.3037C167.295 38.7162 167.702 28.4011 167.888 27.8813C168.077 27.3542 168.701 27.4457 169.149 27.5171C168.796 25.1196 169.052 22.2059 169.052 22.2059Z" fill="#0A3960"/>
<path d="M178.225 28.3298H106.866C106.176 28.3298 105.619 28.888 105.619 29.578V122.1C105.619 122.789 106.176 123.347 106.866 123.347H178.225C178.915 123.347 179.472 122.789 179.472 122.1V29.578C179.472 28.8898 178.915 28.3298 178.225 28.3298Z" fill="#FF7C24"/>
<path d="M169.929 102.543C169.909 102.563 161.937 111.066 162.015 111.066H116.086C115.576 111.066 115.164 110.656 115.164 110.145V41.5329C115.164 41.0223 115.576 40.6123 116.086 40.6123H169.008C169.517 40.6123 169.929 41.0241 169.929 41.5329V102.543Z" fill="white"/>
<path d="M155.408 26.0988H129.683C129.053 26.0988 128.544 26.6113 128.544 27.2409C128.544 27.8705 129.053 28.3811 129.683 28.3811H131.67C131.401 28.8002 131.238 29.2962 131.238 29.8324C131.238 31.3222 132.446 32.5302 133.938 32.5302H151.157C152.645 32.5302 153.856 31.3222 153.856 29.8324C153.856 29.2962 153.691 28.8002 153.422 28.3811H155.41C156.04 28.3811 156.548 27.8686 156.548 27.2409C156.547 26.6113 156.038 26.0988 155.408 26.0988Z" fill="#BC0202"/>
<path d="M161.942 50.823H123.149V52.3988H161.942V50.823Z" fill="#E5F2FA"/>
<path d="M161.942 57.5856H123.149V59.1596H161.942V57.5856Z" fill="#E5F2FA"/>
<path d="M161.942 64.8204H123.149V66.3944H161.942V64.8204Z" fill="#E5F2FA"/>
<path d="M161.942 71.585H123.149V73.1571H161.942V71.585Z" fill="#E5F2FA"/>
<path d="M161.942 78.8179H123.149V80.3918H161.942V78.8179Z" fill="#E5F2FA"/>
<path d="M161.942 85.5842H123.149V87.1581H161.942V85.5842Z" fill="#E5F2FA"/>
<path d="M161.942 92.819H123.149V94.3929H161.942V92.819Z" fill="#E5F2FA"/>
<path d="M162.91 102.515H169.949L161.984 111.092V103.441C161.984 102.931 162.4 102.515 162.91 102.515Z" fill="#9FC3D3"/>
<path d="M173.181 89.9271C173.181 89.9271 172.614 91.2961 172.327 91.2961C172.045 91.2961 171.432 89.8813 171.432 89.8813L173.181 89.9271Z" fill="#0A3960"/>
<path d="M173.181 89.9656C173.871 88.4173 174.444 83.6148 174.516 82.6869L170.134 82.7089C170.18 84.1803 171.078 88.9846 171.446 89.9858C172.458 89.9748 173.051 89.9748 173.181 89.9656Z" fill="white"/>
<path d="M174.492 82.8406C174.946 80.5986 175.831 48.3339 175.831 48.3339L168.525 48.3229C168.525 48.3229 169.722 80.6187 170.178 82.8681C172.775 82.9156 174.045 82.8516 174.492 82.8406Z" fill="#0A3960"/>
<path d="M172.193 22.4969H172.217C172.217 22.4969 172.217 22.4969 172.22 22.4932L175.879 22.248C175.879 21.935 176.152 17.5919 172.217 17.5242C172.206 17.5242 172.198 17.5242 172.193 17.5242C172.186 17.5242 172.18 17.5242 172.171 17.5242C168.236 17.5919 168.512 21.935 168.512 22.248L172.169 22.4932C172.169 22.4969 172.171 22.4969 172.171 22.4969H172.193Z" fill="#FF7C24"/>
<path d="M172.176 47.3163L173.201 47.4224V47.2101L175.894 47.1241C175.894 46.9045 176.106 22.6872 175.852 21.5141C174.149 21.4756 172.941 21.4756 172.178 21.4884C171.413 21.4775 170.205 21.4775 168.509 21.5141C168.249 22.6872 168.624 46.6885 168.624 46.9082L171.155 47.2083V47.4206L172.176 47.3163Z" fill="#0A3960"/>
<path d="M168.476 48.6652C168.39 48.6652 168.32 48.6011 168.32 48.5187V46.6885C168.32 46.608 168.39 46.5403 168.476 46.5403H176.104C176.187 46.5403 176.26 46.608 176.26 46.6885V48.5187C176.26 48.6011 176.187 48.6652 176.104 48.6652H168.476Z" fill="white"/>
<path opacity="0.5" d="M122.281 85.476C122.281 77.5201 115.832 71.0687 107.876 71.0687C105.187 71.0687 102.541 72.2253 100.389 73.5047L71.8648 94.3489L82.9302 123.345L110.53 101.778C117.951 95.8368 122.281 92.6962 122.281 85.476Z" fill="url(#paint2_linear_82_101)"/>
<path d="M96.7666 85.3736C96.7666 79.0173 101.917 73.8653 108.273 73.8653C114.629 73.8653 119.781 79.0173 119.781 85.3736C119.781 91.7299 114.629 96.882 108.273 96.882C101.919 96.8801 96.7666 91.7299 96.7666 85.3736Z" fill="#205F89"/>
<path d="M113.857 96.2488C116.866 104.368 120.363 115.248 120.371 126.804C120.371 132.48 119.523 138.327 117.329 144.063C115.717 148.228 113.149 151.799 109.983 154.689C107.519 159.975 103.117 164.508 97.8025 167.896C91.5414 171.877 83.9698 174.294 76.4989 174.3C72.7433 174.3 69.0115 173.685 65.5122 172.318C55.6785 168.503 50.5576 161.993 48.0978 155.677C45.6179 149.374 45.7698 143.397 45.6453 140.064L50.7571 139.833C50.4002 143.208 49.5071 148.743 51.685 154.264C53.8813 159.773 58.0376 165.233 66.9141 168.727C69.9139 169.898 73.1625 170.445 76.4971 170.442C83.1279 170.449 90.0717 168.253 95.7307 164.645C97.7128 163.388 99.5284 161.964 101.121 160.412C97.0723 162.18 92.7255 163.119 88.4923 163.13C83.9113 163.13 79.4218 162.017 75.6223 159.554C71.8246 157.099 68.7718 153.278 67.1136 148.148C66.0741 144.962 65.5891 141.931 65.5891 139.088C65.5763 132.205 68.4973 126.48 73.0179 122.624C77.5293 118.753 83.5837 116.67 89.9491 116.67C91.8324 116.67 93.745 116.855 95.6575 117.23C105.409 119.167 112.781 128.894 112.774 141.319C112.774 142.628 112.691 143.97 112.523 145.335C112.979 144.486 113.383 143.6 113.727 142.687C115.726 137.46 116.516 132.093 116.516 126.804C116.524 115.786 113.055 105.131 110.052 97.076L113.857 96.2488ZM75.5271 125.549C71.8044 128.762 69.4563 133.288 69.4417 139.087C69.4417 141.49 69.8571 144.116 70.7777 146.956C72.2071 151.316 74.6541 154.321 77.7215 156.32C80.7889 158.307 84.528 159.274 88.4941 159.274C94.8632 159.292 101.675 156.754 106.813 152.345C107.043 151.79 107.248 151.232 107.426 150.666C108.452 147.387 108.914 144.246 108.914 141.319C108.903 130.369 102.499 122.476 94.9181 121.011C93.2508 120.686 91.5835 120.526 89.9491 120.526C89.9454 120.526 89.9436 120.526 89.9399 120.526C84.4127 120.526 79.2515 122.346 75.5271 125.549Z" fill="#0A3960"/>
<path d="M108.143 71.7222C100.577 71.7222 94.4459 77.8534 94.4459 85.414C94.4459 92.9764 100.579 99.1094 108.143 99.1094C115.704 99.1094 121.833 92.9764 121.833 85.414C121.835 77.8534 115.704 71.7222 108.143 71.7222ZM108.323 95.7949C102.51 95.7949 97.7989 91.0803 97.7989 85.2712C97.7989 79.4567 102.51 74.7476 108.323 74.7476C114.132 74.7476 118.844 79.4567 118.844 85.2712C118.844 91.0803 114.132 95.7949 108.323 95.7949Z" fill="#E5F2FA"/>
<path d="M108.454 76.7755C103.934 76.7755 100.266 80.445 100.266 84.9674C100.266 89.4899 103.934 93.1594 108.454 93.1594C112.982 93.1594 116.646 89.4899 116.646 84.9674C116.646 80.445 112.982 76.7755 108.454 76.7755ZM108.454 90.4453C105.431 90.4453 102.976 87.9928 102.976 84.9674C102.976 81.9403 105.431 79.4878 108.454 79.4878C111.483 79.4878 113.936 81.9403 113.936 84.9674C113.936 87.9946 111.483 90.4453 108.454 90.4453Z" fill="white"/>
<path d="M113.066 84.9675C113.066 87.5133 111.004 89.5759 108.458 89.5759C105.908 89.5759 103.85 87.5133 103.85 84.9675C103.85 82.4198 105.91 80.3553 108.458 80.3553C111.004 80.3572 113.066 82.4216 113.066 84.9675Z" fill="white"/>
<path d="M27.9125 97.1968C27.4367 95.8571 25.2898 96.1353 23.4962 96.8857C22.0613 97.486 22.8154 99.113 23.1357 100.477C23.3809 101.52 26.4319 113.065 29.1076 119.004C31.4466 124.198 36.8915 132.739 48.9763 132.121C57.2946 131.698 61.8628 128.459 65.9332 119.192C70.0548 109.816 72.9648 99.3272 73.049 98.3517C73.1277 97.4549 72.7653 96.8454 71.5226 96.5782C70.2818 96.3146 69.1324 96.0456 68.7517 96.7557C68.3692 97.464 63.3343 115.481 60.5853 120.007C57.8821 124.454 55.1203 127.683 48.786 127.602C42.642 127.529 36.0057 125.669 31.9206 111.546C28.5293 99.8213 27.9125 97.1968 27.9125 97.1968Z" fill="#0A3960"/>
<path d="M25.6705 94.5942C23.6884 87.6138 20.6887 76.0121 20.6905 65.8325C20.6905 65.1846 20.7033 64.5514 20.729 63.9383C21.2176 52.0859 26.3697 48.0338 29.7903 47.32C31.1685 47.0308 32.7772 46.9155 34.4134 46.9192C37.1953 46.9192 40.0358 47.2322 42.0783 47.4134L42.2705 45.7222H42.2668C40.2627 45.5465 37.3472 45.2226 34.4116 45.2226C32.6784 45.2226 30.936 45.3342 29.3382 45.6728C24.7243 46.6593 19.2776 51.6631 18.8017 63.8779C18.7743 64.5166 18.7633 65.1682 18.7633 65.8344C18.7706 76.4349 21.2542 86.9495 23.595 95.1012L25.6705 94.5942Z" fill="white"/>
<path d="M39.8674 48.5389C39.5745 48.4126 39.4373 47.8709 39.4665 46.9246C39.4977 45.9784 39.5819 44.7632 40.0595 44.5728C40.5391 44.3825 42.5724 43.6156 44.1629 43.7181C45.671 43.817 47.2797 44.452 47.4371 46.511C47.5652 48.1491 46.9173 49.8969 44.1976 49.9317C41.5896 49.9701 39.8674 48.5389 39.8674 48.5389Z" fill="#0A3960"/>
<path d="M78.2084 64.1672C78.0217 51.9469 72.6958 46.8425 68.1075 45.7681C66.5134 45.4021 64.7765 45.2593 63.0415 45.2264C60.1095 45.1733 57.1811 45.4442 55.1771 45.5815L55.329 47.2762C57.3733 47.1335 60.223 46.8736 63.0012 46.923C64.6392 46.9541 66.2443 47.095 67.6151 47.4135C71.0175 48.1858 76.0689 52.3367 76.2793 64.191C76.2903 64.8078 76.2867 65.4374 76.2684 66.0853C76.0341 76.371 72.5915 87.8702 70.4099 94.7719C70.8528 94.8469 72.3206 95.2093 72.7873 95.2917C74.8957 88.2252 77.9448 76.5723 78.1974 66.1219C78.2194 65.4557 78.2193 64.8041 78.2084 64.1672Z" fill="white"/>
<path d="M58.3872 48.2919C58.6746 48.1546 58.7899 47.6092 58.7185 46.663C58.6508 45.7186 58.5172 44.5107 58.0303 44.3405C57.5453 44.1666 55.4754 43.4858 53.8941 43.6578C52.3915 43.8189 50.812 44.5217 50.737 46.588C50.6802 48.226 51.3995 49.9482 54.121 49.8695C56.7272 49.7945 58.3872 48.2919 58.3872 48.2919Z" fill="#0A3960"/>
<path d="M41.7397 133.34C41.9172 133.77 45.7039 143.058 45.7039 143.058H50.4131C50.4131 143.058 53.9948 133.622 54.1082 133.32C52.8216 133.68 50.6272 134.163 49.0752 134.191C45.9565 134.246 44.2251 134.074 41.7397 133.34Z" fill="#0A3960"/>
<path d="M84.7458 58.4861C84.0375 58.056 83.3018 57.4154 82.7618 56.8957C84.3596 65.6971 86.8761 76.7259 86.8468 93.4156L88.99 93.3973C88.6826 76.5923 91.3931 65.3512 92.8152 56.5534C92.2826 57.1281 91.276 58.1109 90.1156 58.6966C88.7192 59.403 86.5778 59.6062 84.7458 58.4861Z" fill="url(#paint3_linear_82_101)"/>
<path d="M87.0848 95.5788C87.0921 96.1389 87.438 96.5891 87.8718 96.5836H88.0639C88.4959 96.5781 88.8399 96.126 88.8363 95.5642L88.9992 93.2325H86.9182L87.0848 95.5788Z" fill="white"/>
<path d="M90.359 12.3704C89.7697 14.2902 90.2474 9.95632 87.385 10.0826C84.5555 10.2071 83.5836 14.8228 82.9797 13.0567C82.5788 11.8689 80.26 12.0482 79.2332 11.2832C79.1179 11.8561 79.0685 12.687 79.0264 13.3733C78.1497 27.5757 82.125 54.6115 82.5862 56.7419C82.5862 56.7419 83.7044 57.829 85.0057 58.6233C86.7663 59.7013 88.8235 59.5055 90.1614 58.8301C91.8086 57.9956 92.8609 56.4673 92.8609 56.4673C93.2727 54.3315 96.4573 27.303 95.2768 13.1207C95.2274 12.5552 95.1725 12.019 95.1176 11.4992C93.2801 12.105 90.8569 10.7506 90.359 12.3704ZM90.9886 25.3337L91.1076 38.7619C91.1149 39.6642 90.4213 40.4036 89.5519 40.4073L85.4065 40.4457C84.5372 40.453 83.8307 39.7264 83.8234 38.826L83.7026 25.3978C83.6989 24.4955 84.3926 23.7561 85.2582 23.7487L89.4092 23.7121C90.2749 23.7067 90.985 24.4314 90.9886 25.3337Z" fill="white"/>
<path d="M87.1744 34.1187L86.4369 34.1224L86.4424 34.8581L87.1763 34.8563L87.1744 34.1187ZM87.169 31.4778L86.4296 31.4796L86.4332 32.2172L87.1708 32.2153L87.169 31.4778ZM86.3655 38.5881L88.4922 38.5826C89.1803 38.5808 89.7312 38.0756 89.7312 37.457L89.6965 26.4392C89.6946 25.8188 89.1364 25.3191 88.4501 25.3228L86.3179 25.3301C85.6334 25.3301 85.0752 25.8352 85.0789 26.4557L85.1118 37.4698C85.1173 38.0885 85.6755 38.5899 86.3655 38.5881ZM86.0562 29.5322L86.3545 29.2376L86.6107 29.2358V29.6055L86.4277 29.6073L86.4296 30.343L87.1671 30.3412L87.1635 29.9715L87.535 29.9697V30.3375H88.2707V29.6L88.0804 29.6036L88.0841 29.2339H88.3385L88.6368 29.5268V30.4126L88.3458 30.7072L87.4636 30.7127L87.352 30.6011L87.2403 30.7127H86.3564L86.0635 30.4199L86.0562 29.5322ZM86.0635 31.4064L86.3564 31.1117L88.3476 31.1062L88.6441 31.3991V32.2849L88.3549 32.5814L88.0932 32.5832L88.0969 32.2117H88.2799L88.2726 31.4759H87.5405L87.5423 32.2885L87.2458 32.5832L86.3618 32.5869L86.0635 32.2922V31.4064ZM86.0672 32.9858H86.4332L86.4369 33.3537L86.0708 33.3555L86.0672 32.9858ZM86.0708 34.0474L86.3637 33.7527L88.3549 33.7454L88.6514 34.0419V34.9259L88.3586 35.2224H88.1005L88.0969 34.8527H88.2836V34.1187L87.546 34.1206L87.5478 34.9314L87.2513 35.2278H86.3691L86.0727 34.9332V34.0474H86.0708Z" fill="#E5F2FA"/>
<path d="M84.0925 16.5158C84.054 14.7076 85.4761 13.3953 87.2898 13.3898C89.0981 13.3825 90.5366 14.8284 90.5421 16.6403C90.5458 16.9404 90.6611 17.0686 90.5879 17.3467C90.9411 16.697 91.0363 15.8057 91.2266 15.1725C91.7427 13.4631 94.0085 11.62 95.1359 11.5413C93.9554 1.05243 90.9063 0.0567974 87.3649 6.10352e-05L87.3264 0.0110415C83.6642 0.0147019 80.2289 1.34343 79.2131 11.4846C79.409 11.5981 82.5734 13.5289 82.9632 14.7479C83.2707 15.6886 83.7136 17.118 84.0687 17.3449C84.0687 17.3449 84.1016 17.1088 84.0925 16.5158Z" fill="#FF7C24"/>
<path d="M88.8967 16.7226C88.8967 17.5298 88.2488 18.1831 87.438 18.1886C86.6345 18.1923 85.9775 17.5407 85.9739 16.7373C85.9702 15.9301 86.6217 15.2749 87.427 15.2713C88.236 15.2658 88.8912 15.9173 88.8967 16.7226Z" fill="#FF7C24"/>
<defs>
<linearGradient id="paint0_linear_82_101" x1="45.1929" y1="-15.6301" x2="255.579" y2="247.664" gradientUnits="userSpaceOnUse">
<stop stop-color="#1678F2"/>
<stop offset="1" stop-color="#65A8FB"/>
</linearGradient>
<linearGradient id="paint1_linear_82_101" x1="10.2698" y1="180.071" x2="132.072" y2="52.6753" gradientUnits="userSpaceOnUse">
<stop offset="0.1813" stop-color="white"/>
<stop offset="0.2842" stop-color="#E6E6E6"/>
<stop offset="0.5036" stop-color="#A5A5A5"/>
<stop offset="0.8192" stop-color="#3E3E3E"/>
<stop offset="1"/>
</linearGradient>
<linearGradient id="paint2_linear_82_101" x1="75.157" y1="116.096" x2="115.473" y2="72.8626" gradientUnits="userSpaceOnUse">
<stop offset="0.1813" stop-color="white"/>
<stop offset="0.2842" stop-color="#E6E6E6"/>
<stop offset="0.5036" stop-color="#A5A5A5"/>
<stop offset="0.8192" stop-color="#3E3E3E"/>
<stop offset="1"/>
</linearGradient>
<linearGradient id="paint3_linear_82_101" x1="85.2752" y1="52.4576" x2="112.633" y2="63.1455" gradientUnits="userSpaceOnUse">
<stop stop-color="#1678F2"/>
<stop offset="1" stop-color="#65A8FB"/>
</linearGradient>
</defs>
</svg>
