<svg width="216" height="185" viewBox="0 0 216 185" fill="none" xmlns="http://www.w3.org/2000/svg">
<g clip-path="url(#clip0_99_1105)">
<path d="M39.0053 143.786C31.7867 139.83 25.8465 134.3 20.3869 128.281C12.7934 119.936 7.04555 110.086 3.51793 99.3741C1.08 92.2518 -0.103764 84.7615 0.019179 77.2355C0.355598 62.4701 4.9405 49.1063 14.4948 37.5666C17.9677 33.509 21.771 29.7456 25.8657 26.3149C26.0872 26.0632 26.3663 25.8689 26.6794 25.7485C26.9924 25.6281 27.33 25.5853 27.6632 25.6237C27.5511 30.6865 25.6941 35.5557 22.4054 39.4099C20.0217 42.338 16.792 44.3157 13.8412 46.5814C7.51651 51.4392 4.83477 61.4812 7.11281 69.2384C8.25663 73.0785 11.2171 75.7378 14.8024 77.3699C19.3969 79.4916 24.2702 80.442 29.3357 79.1556C33.5938 78.0707 36.189 75.1138 37.8903 71.2833C39.0169 68.7442 39.7276 66.0408 39.9953 63.2765C40.8796 54.3001 43.9362 51.4968 53.0772 51.1896C54.5154 51.2312 55.9537 51.1088 57.3641 50.8248C59.6709 50.3268 61.8022 49.221 63.5364 47.6223C65.2707 46.0235 66.5446 43.99 67.226 41.7332C68.6774 37.3842 69.1484 32.7472 71.0708 28.5422C72.4261 25.5565 73.839 22.5995 77.4627 21.7163C77.7706 21.7335 78.0685 21.8313 78.3267 21.9998C78.5848 22.1683 78.794 22.4016 78.9334 22.6764C79.2794 23.694 78.7507 24.5484 78.347 25.3933C72.7144 37.0386 78.4912 54.5977 90.8426 58.9083C92.1883 59.6859 93.4859 60.5116 93.6589 62.2685C93.6862 62.7303 93.6408 63.1935 93.5243 63.6413C92.7842 67.2319 91.7461 70.736 90.7176 74.2498C90.4389 75.2098 90.3139 76.3043 89.372 76.9571C86.0847 78.042 82.6436 77.9652 79.2217 78.6372C72.8682 79.8852 66.7262 81.5173 62.0932 86.5095C61.0929 87.5352 60.2096 88.6686 59.4595 89.8889C56.2988 95.122 53.4113 100.515 50.8088 106.046C50.1726 107.121 49.9569 108.393 50.2032 109.618C49.8187 112.824 47.9925 115.474 46.7718 118.354C44.9935 122.578 43.2442 126.802 41.6582 131.094C40.3198 134.264 39.6554 137.677 39.707 141.117C39.7963 141.586 39.7797 142.069 39.6583 142.53C39.5369 142.992 39.3138 143.421 39.0053 143.786Z" fill="#BCDEF7"/>
<path d="M124.619 39.2944C124.504 40.9553 125.657 41.5601 126.916 42.1746C134.75 45.9571 142.641 49.6149 150.36 53.6087C165.383 61.3946 175.274 73.4623 179.551 89.879C180.513 93.7864 180.907 97.8665 181.56 101.86C182.233 103.684 180.599 104.798 180.157 106.257C179.772 107.409 179.08 108.465 178.754 109.656C176.341 115.954 174.582 122.52 170.901 128.271C167.056 134.214 162.346 138.745 154.685 138.832C150.84 138.697 148.313 136.172 145.65 133.897C142.132 129.202 140.46 123.576 137.797 118.45C136.711 116.367 136.115 113.995 134.289 112.334C134.063 112.16 133.868 111.949 133.712 111.71C133.64 111.437 133.64 111.149 133.712 110.875C134.025 110.377 134.208 109.807 134.241 109.22C134.275 108.632 134.159 108.046 133.904 107.515C130.8 101.38 127.906 95.14 124.292 89.2742C121.332 84.4164 116.728 82.1891 111.556 80.6338C109.874 80.1442 107.827 80.2786 106.895 78.2721C106.366 75.3344 106.654 72.3774 106.654 69.4301C106.618 68.621 106.739 67.8126 107.01 67.0492C107.635 65.8108 108.932 65.5036 110.038 65.1292C116.18 62.9019 119.534 58.3128 121.063 52.1878C121.778 49.1213 122.26 46.005 122.504 42.8658C123.245 41.7041 122.86 39.8513 124.619 39.2944Z" fill="#BCDEF7"/>
<path d="M77.3282 22.0712C72.8106 24.6057 71.4457 29.1179 70.1096 33.5917C69.2253 36.5966 68.6967 39.7263 67.6394 42.6736C65.6016 48.4339 61.2186 51.314 55.2976 51.8516C52.5282 51.9682 49.7746 52.3312 47.0698 52.9365C45.5631 53.2554 44.1952 54.0401 43.16 55.1791C42.1249 56.3181 41.475 57.7538 41.3026 59.2824C40.7739 62.3737 40.6971 65.5418 39.6782 68.566C36.2467 78.8576 29.4895 82.5538 18.9836 79.6737C12.5052 77.936 7.07441 74.6622 5.83447 67.6155C4.44073 59.6952 6.44002 52.4565 12.4475 46.677C12.9796 46.1244 13.5842 45.6464 14.2449 45.2562C22.1075 40.9936 25.7024 33.8509 27.7017 25.5849C32.0078 16.6469 39.4187 12.4515 49.0402 11.5395C51.4048 11.3187 53.7501 10.7907 56.105 10.4643C59.152 10.0514 61.1994 8.11216 63.2755 6.08648C71.2535 -1.70906 82.1823 -2.08349 90.6312 5.07842C92.0617 6.20137 93.1748 7.67708 93.8608 9.36022C93.3514 10.0707 92.5248 9.96504 91.8135 10.1667C85.681 11.9235 80.2791 14.6213 78.1164 21.2455C78.0624 21.4369 77.9623 21.6122 77.825 21.7561C77.6876 21.9 77.5171 22.0082 77.3282 22.0712Z" fill="#1F2035"/>
<path d="M39.0054 143.786C38.0442 136.105 41.4468 129.443 44.1574 122.665C45.926 118.248 48.0022 113.957 49.9246 109.608C50.5301 108.648 51.3472 109.195 51.9527 109.455C58.3133 112.139 63.999 116.198 68.6006 121.34C68.937 122.521 68.1585 123.26 67.5818 124.153C64.4386 128.876 61.0072 133.388 57.8641 138.102C57.4988 138.649 57.1624 139.245 56.4127 139.36C55.4515 138.947 54.4903 138.4 53.5291 138.112C54.0673 138.765 54.9997 138.957 55.7687 139.427C60.517 142.893 64.9289 146.771 69.6387 150.295C71.8884 152.332 74.2399 154.255 76.6843 156.055C78.8496 157.922 81.1358 159.644 83.528 161.21C86.0271 164.09 89.2952 166.011 92.4095 168.18C92.861 168.447 93.3731 168.596 93.8977 168.611C94.4223 168.626 94.9422 168.507 95.4084 168.267C96.2254 167.95 97.0713 167.182 97.994 168.094C98.051 168.565 98.2033 169.02 98.4416 169.431C98.68 169.842 98.9994 170.2 99.3805 170.483C99.7617 170.767 100.197 170.971 100.659 171.081C101.121 171.192 101.601 171.208 102.069 171.128C104.434 170.984 105.357 169.601 105.616 167.47C105.618 167.186 105.691 166.907 105.826 166.657C105.962 166.408 106.157 166.196 106.395 166.039C109.375 166.087 110.739 167.527 110.432 170.561C110.297 171.972 110.432 173.441 110.374 174.843C110.259 180.354 110.259 180.354 105.165 182.216C103.309 183.435 101.32 183.176 99.3301 182.754C90.9677 180.565 84.7391 174.248 76.7804 171.233C70.4473 168.748 64.3377 165.729 58.5177 162.209C50.6743 157.495 43.5519 151.994 39.0054 143.786Z" fill="#EEB17D"/>
<path d="M124.619 39.2944C123.889 40.3889 124.004 41.8673 122.995 42.837C122.235 42.981 121.918 42.4241 121.793 41.8769C120.957 38.3152 118.314 36.3279 115.497 34.4078C112.96 32.6893 110.691 30.6828 110.595 27.1691C110.406 28.1752 109.969 29.1182 109.322 29.9128C108.676 30.7074 107.842 31.3284 106.895 31.7197C104.797 32.6539 102.635 33.4367 100.426 34.0622C98.5302 34.5884 96.7687 35.5122 95.2587 36.772C93.7488 38.0318 92.5251 39.5987 91.6693 41.3681C91.4463 41.99 91.0519 42.5363 90.5315 42.944C90.011 43.3516 89.3859 43.6041 88.728 43.6722C86.3923 43.9602 85.508 45.4099 85.9309 47.7524C86.2696 49.4434 87.0908 51.0004 88.2955 52.2358C89.228 53.1786 89.9406 54.3154 90.3826 55.565C90.8246 56.8146 90.9849 58.1462 90.8523 59.4649C77.3955 55.5767 71.3688 35.7998 78.3567 23.5977C78.5393 23.2809 78.6739 22.9257 78.8373 22.5801C78.8373 20.468 80.5867 19.4695 81.8651 18.2887C85.4678 14.8267 90.0226 12.5169 94.9469 11.6548C99.7529 11.2036 104.463 10.7428 109.125 12.3556C114.304 14.0325 118.722 17.485 121.598 22.1023C124.474 26.7195 125.623 32.204 124.84 37.5855C124.715 38.152 124.677 38.728 124.619 39.2944Z" fill="#212037"/>
<path d="M193.124 158.685C195.863 158.205 197.785 156.122 200.246 155.095C201.155 154.57 202.151 154.212 203.187 154.039C205.59 153.904 206.83 155.277 206.321 157.581C205.618 161.278 203.495 164.554 200.405 166.707C197.315 168.86 193.505 169.72 189.788 169.102C188.823 169.024 187.913 168.617 187.212 167.95C183.569 164.109 178.821 162.42 173.986 160.817C167.77 158.749 161.526 156.663 155.252 154.557C148.351 152.887 141.459 151.187 135.855 146.425C135.961 144.246 135.74 142.057 136.375 139.926C138.021 138.227 140.241 137.2 142.603 137.046C147.149 138.748 152.035 139.346 156.858 138.793C158.944 140.552 161.239 142.048 163.692 143.248C164.792 143.786 165.773 144.54 166.575 145.465C171.87 148.698 177.356 151.609 183.002 154.183C183.962 154.623 185.009 154.843 186.065 154.826C187.121 154.809 188.16 154.557 189.106 154.087C191.154 153.051 193.302 152.224 195.517 151.619C196.18 151.466 196.853 151.12 197.324 151.85C197.795 152.579 197.324 153.146 196.949 153.693C195.863 155.546 193.575 156.208 192.537 158.109C191.97 158.737 191.273 159.233 190.495 159.565C189.716 159.896 188.875 160.055 188.029 160.029C189.855 160.375 191.345 158.887 193.124 158.685Z" fill="#EEB17C"/>
<path d="M175.851 46.7827C167.123 47.5892 158.915 38.7088 159.222 30.6732C159.597 20.66 165.883 13.6709 176.601 13.6709C185.136 13.6709 192.614 21.1976 192.604 30.3084C192.595 39.4192 184.434 47.7428 175.851 46.7827Z" fill="#BDDFF9"/>
<path d="M202.909 100.708C205.686 100.708 208.474 100.708 211.252 100.823C214.318 100.919 215.923 102.388 215.942 105.441C216.019 114.523 216.019 123.608 215.942 132.697C215.942 135.769 214.385 137.295 211.3 137.334C204.783 137.417 198.266 137.417 191.749 137.334C188.731 137.334 187.308 135.702 187.299 132.601C187.299 123.602 187.299 114.61 187.299 105.624C187.299 102.398 188.798 100.996 191.999 100.823C195.2 100.651 198.276 101.428 201.342 100.334C202.015 99.8346 202.457 100.305 202.909 100.708Z" fill="#459FBB"/>
<path d="M136.298 146.608C142.199 150.237 148.995 151.754 155.252 154.557C149.101 157.437 142.911 160.135 136.163 161.277C129.415 162.42 122.822 163.543 115.978 163.197C115.353 160.881 115.653 158.413 116.814 156.314C118.477 154.701 120.726 154.835 122.735 154.624C128.224 154.019 133.001 152.464 135.577 147.04C135.76 146.818 136.015 146.665 136.298 146.608Z" fill="#BCDEF7"/>
<path d="M166.585 145.465C163.592 144.07 160.702 142.466 157.934 140.665C157.473 140.377 156.848 140.176 157.184 139.408C157.281 138.678 157.915 138.553 158.434 138.4C166.316 136.047 170.43 129.951 173.602 123.039C175.62 118.613 177.148 113.986 178.792 109.397C179.34 108.437 179.513 107.141 180.916 106.91C181.301 117.547 177.889 127.167 172.717 136.239C170.949 139.446 168.68 142.393 166.585 145.465Z" fill="#BDDFF8"/>
<path d="M106.376 166.078C106.309 166.353 106.261 166.632 106.231 166.913C106.001 171.339 103.136 173.144 98.9744 171.579C97.052 170.849 97.869 169.198 97.5711 167.911C96.7444 166.212 97.9555 164.686 97.994 163.063C98.1093 161.998 97.994 160.817 99.2051 160.231C101.32 160.442 103.55 159.722 105.52 161.047C106.539 161.95 105.347 162.967 105.674 163.927L106.376 166.078Z" fill="#212235"/>
<path d="M94.8989 11.655C92.8131 12.615 90.7177 13.4887 88.6415 14.4391C84.6333 16.2728 81.5671 19.2393 78.7893 22.5803L77.3282 22.0811C77.2424 21.1738 77.3611 20.2588 77.6754 19.4032C77.9898 18.5477 78.4919 17.7733 79.1449 17.1368C83.1819 12.951 87.4496 9.17807 93.8224 9.39888C94.2109 9.62027 94.5223 9.9551 94.7147 10.3584C94.9071 10.7617 94.9714 11.2141 94.8989 11.655Z" fill="#D95044"/>
<path d="M105.674 163.86C104.713 163.102 105.453 162.324 105.674 161.546C107.673 158.1 113.623 155.45 117.208 156.429C116.824 158.705 116.449 160.97 116.064 163.246C112.575 163.601 109.077 162.91 105.674 163.86Z" fill="#378091"/>
<path d="M181.003 106.91L179.474 109.435C179.301 109.584 179.078 109.662 178.85 109.653C178.622 109.644 178.405 109.549 178.244 109.387C178.859 106.67 180.455 104.395 181.56 101.899C184.569 97.5884 187.962 93.9115 193.806 93.7963C199.141 93.7003 201.495 95.4187 202.908 100.757L201.342 100.344C199.506 95.2651 194.008 93.4891 188.952 96.5036C184.944 98.8749 182.512 102.571 181.003 106.91Z" fill="#242626"/>
<path d="M99.3011 182.753C101.166 181.793 103.146 182.379 105.136 182.216C103.348 185.749 101.675 185.902 99.3011 182.753Z" fill="#312C31"/>
<path d="M193.124 158.685C191.643 160.605 189.577 160.442 187.433 160.164C189.356 159.924 190.672 158.359 192.576 158.109L193.124 158.685Z" fill="#E09352"/>
<path d="M99.3973 160.461C98.3496 161.258 99.0705 162.439 98.7436 163.399C98.3207 163.706 97.837 163.92 97.3249 164.026C96.8128 164.132 96.2839 164.128 95.7736 164.013C92.5728 163.572 89.3432 163.428 86.1616 162.717C85.0754 162.477 83.8547 162.468 83.153 161.354C80.2695 160.529 78.3471 158.397 76.2805 156.477C76.2713 155.902 76.3657 155.329 76.5592 154.787C80.0484 146.79 79.3467 138.572 77.7127 130.345C76.8172 125.277 76.4948 120.124 76.7515 114.984C75.818 115.807 75.0705 116.82 74.5585 117.953C74.0464 119.087 73.7815 120.317 73.7814 121.56C73.7814 124.133 73.7814 126.706 73.7814 129.241C73.7814 130.364 73.9063 131.574 72.8202 132.371C71.3688 131.843 71.7533 130.546 71.6956 129.49C71.561 127.042 71.7629 124.585 71.561 121.81C70.3115 122.77 69.1869 122.981 68.4371 121.484C63.8042 117.413 59.0655 113.477 53.4809 110.712C52.4204 110.076 51.2321 109.683 50.0014 109.56C48.5404 109.214 48.896 108.35 49.3574 107.409C52.3852 101.256 55.3745 95.0825 58.9694 89.2358C62.7084 83.2164 68.466 80.3459 75.0405 78.6754C79.6977 77.648 84.4179 76.9296 89.1701 76.5249C90.3909 81.2099 93.755 83.85 98.0035 85.5013C102.55 87.2678 105.866 85.2997 106.789 80.4995C106.904 79.8658 106.856 79.117 107.75 78.8962C109.134 79.2514 110.509 79.6162 111.902 79.9523C118.035 81.4499 122.908 84.6469 125.869 90.3687C128.829 96.0906 131.77 101.889 134.789 107.649C134.985 107.916 135.123 108.221 135.191 108.545C135.26 108.869 135.258 109.203 135.186 109.526C135.114 109.849 134.974 110.153 134.774 110.417C134.574 110.682 134.32 110.9 134.029 111.058C131.907 110.689 129.884 109.888 128.085 108.706C126.286 107.523 124.75 105.984 123.571 104.184C121.944 101.756 120.614 99.1421 119.611 96.3978C120.313 102.705 120.967 109.147 121.12 115.599C120.957 117.624 120.745 119.65 121.524 121.618C121.004 123.863 120.813 126.172 120.957 128.473C120.063 137.18 119.419 145.907 118.208 154.586C117.929 155.623 117.074 155.652 116.218 155.824C113.421 156.381 110.528 156.976 108.298 158.772C105.472 160.999 102.531 160.951 99.3973 160.461Z" fill="#358090"/>
<path d="M90.8234 59.5129C89.8622 56.7672 89.2951 53.9446 86.9114 51.8326C86.152 51.0848 85.5929 50.1584 85.2855 49.1384C84.9782 48.1185 84.9324 47.0377 85.1524 45.9955C85.4215 44.2002 86.4788 42.7794 88.3532 42.981C89.9776 43.1538 90.3813 42.5874 90.9196 41.2721C92.4575 37.4991 95.4852 35.2142 99.1955 33.7934C100.705 33.2077 102.3 32.8333 103.848 32.3437C106.875 31.3837 109.461 29.8668 110.691 26.4106C111.066 30.9804 114.373 33.1309 117.698 35.051C120.755 36.8559 121.899 39.8513 122.995 42.8754C122.726 49.1253 122.033 55.1927 117.948 60.4153C115.98 62.8833 113.36 64.7521 110.384 65.8108L107.452 66.9244C101.81 68.1341 97.1577 66.2908 93.1784 62.345C92.9573 60.8954 91.7366 60.3001 90.8234 59.5129Z" fill="#EEB17C"/>
<path d="M107.673 78.9345C107.164 86.4036 101.858 89.1014 95.3122 85.146C93.8987 84.177 92.5412 83.1289 91.2463 82.0066C89.4393 80.6146 88.5358 78.8865 89.1317 76.5632L92.9765 63.353C95.0142 64.3803 96.4368 66.3004 98.6283 67.1356C100.449 67.9327 102.408 68.3634 104.396 68.4029C104.914 68.319 105.445 68.3404 105.955 68.4657C106.465 68.5911 106.945 68.8178 107.366 69.1325L107.673 78.9345Z" fill="#EEB17C"/>
<path d="M107.404 69.1135C102.473 69.5647 97.9747 68.6239 94.2068 65.1485C93.5941 64.7105 93.1606 64.0661 92.9861 63.334C93.0534 62.9884 93.1111 62.6332 93.1783 62.2876C96.6194 64.0061 99.7433 66.3966 103.867 66.6078C105.039 66.675 106.289 66.4254 107.452 66.867C107.433 67.635 107.414 68.3838 107.404 69.1135Z" fill="#E18E4F"/>
<path d="M120.534 115.637C119.352 112.546 120.121 109.272 119.727 106.085C119.246 102.244 118.429 98.4043 119.111 93.9785C120.073 96.0522 121.034 97.7419 121.745 99.4892C123.821 104.443 127.137 108.13 132.318 109.982C132.888 110.28 133.42 110.645 133.904 111.067L133.846 111.442C133.75 111.71 133.664 112.037 133.414 112.162C129.377 114.116 125.007 115.295 120.534 115.637Z" fill="#24626F"/>
<path d="M134.568 111.768C135.971 111.259 135.827 112.555 136.134 113.189C139.518 119.909 142.228 127.062 146.111 133.59C146.496 135.568 144.766 136.086 143.699 137.065C143.423 137.13 143.134 137.106 142.872 136.998C140.719 132.908 138.72 128.732 136.298 124.767C134.471 121.772 132.04 119.151 130.78 115.81C131.069 113.554 132.751 112.594 134.568 111.768Z" fill="#2B2B42"/>
<path d="M143.074 136.902L143.756 136.835C146.457 135.942 148.908 137.257 151.446 137.795C152.407 138.159 153.442 138.291 154.464 138.179C161.942 137.9 166.719 133.542 170.439 127.618C173.39 122.895 175.063 117.615 176.975 112.44C177.369 111.374 177.85 110.337 178.283 109.291L179.513 109.339C177.023 116.405 174.966 123.644 170.66 129.922C167.373 134.723 163.134 138.207 157.271 139.388C152.205 140.147 147.028 139.513 142.295 137.555C142.345 137.38 142.445 137.225 142.584 137.108C142.723 136.992 142.894 136.92 143.074 136.902Z" fill="#1E2223"/>
<path d="M134.567 111.768L130.953 115.608C129.85 117.294 128.383 118.712 126.66 119.759C124.937 120.805 123.002 121.454 120.995 121.657C119.506 119.737 120.303 117.663 120.534 115.618C124.773 113.554 129.685 113.64 133.875 111.432C134.106 111.547 134.337 111.663 134.567 111.768Z" fill="#EAB07D"/>
<path d="M154.426 138.237C150.754 138.659 147.265 137.699 143.756 136.845C143.872 135.28 145.679 134.924 146.111 133.6C148.745 135.356 151.09 137.689 154.426 138.237Z" fill="#E2AE84"/>
<path d="M68.3603 121.522C70.4269 123.336 70.8402 120.629 72.455 119.794V132.274C72.8041 132.605 73.0167 133.053 73.051 133.532C73.1633 138.915 72.3905 144.279 70.7633 149.411C70.6683 149.73 70.4983 150.022 70.2676 150.263C70.0369 150.503 69.7521 150.685 69.4369 150.794C64.5898 147.463 59.9956 143.779 55.6917 139.772C55.4611 139.235 55.759 139.081 56.2108 139.043C60.3439 133.263 64.6116 127.57 68.3603 121.522Z" fill="#BCDEF8"/>
<path d="M69.4368 150.794C71.7148 144.832 72.0032 138.544 72.4549 132.275C73.4161 129.116 72.8298 125.881 72.8971 122.674C72.9932 118.162 73.5411 116.712 77.136 113.141C77.2705 113.381 77.5108 113.602 77.5012 113.813C77.011 121.743 78.7508 129.452 79.6447 137.257C80.3944 143.814 80.4425 150.592 76.3093 156.458C73.7674 154.896 71.4545 152.99 69.4368 150.794Z" fill="#26626D"/>
<path d="M83.182 161.354C88.334 162.314 93.5244 162.957 98.7437 163.399C98.3593 164.887 97.9652 166.385 97.5711 167.873C94.822 170.129 92.3229 169.649 89.7854 167.373C88.0264 165.809 86.0079 164.493 84.1624 163.063C83.6626 162.66 82.6245 162.42 83.182 161.354Z" fill="#FBFBFA"/>
<path d="M56.2108 139.043L55.6917 139.773C54.0096 139.965 53.183 138.697 51.8469 137.564C53.7405 137.526 55.2976 137.276 56.2108 139.043Z" fill="#E19255"/>
<path d="M120.995 121.676C124.622 120.214 127.985 118.171 130.953 115.627C135.615 122.348 140.565 128.953 143.074 136.902L142.257 137.603L136.903 139.801C136.413 140.08 136.201 140.665 135.663 140.886C134.41 141.508 133.043 141.867 131.645 141.942C129.925 141.491 129.175 139.916 128.195 138.726C125.417 135.308 122.13 132.275 120.082 128.29C120.524 126.101 119.179 123.673 120.995 121.676Z" fill="#1F2035"/>
<path d="M135.433 140.416L136.903 139.801C136.971 142.086 136.768 144.371 136.298 146.608C135.048 151.408 131.636 153.808 126.993 154.711C123.725 155.354 120.428 155.863 117.151 156.429C112.853 156.844 108.806 158.639 105.616 161.546C103.694 160.26 101.281 161.777 99.3589 160.461C102.671 160.757 105.973 159.794 108.606 157.764C111.23 155.844 114.584 155.508 117.718 154.807C118.679 153.607 120.15 153.847 121.409 153.597C123.331 153.184 125.369 152.963 127.31 152.455C131.29 151.408 133.77 148.95 134.462 144.822C135.019 143.401 134.491 141.75 135.433 140.416Z" fill="#1A2126"/>
<path d="M174.918 36.5583C177.648 31.6909 180.08 27.0155 183.79 23.2041C184.607 22.3592 185.453 20.8616 186.828 22.0424C188.202 23.2233 187.02 24.4138 186.126 25.3834C182.845 29.125 180.099 33.3025 177.965 37.7967C176.043 41.4641 174.717 41.5697 172.15 38.4016C170.583 36.4815 169.103 34.475 167.536 32.5453C166.691 31.5181 165.893 30.3564 167.171 29.3195C168.45 28.2827 169.209 29.6076 169.93 30.4716C171.564 32.4301 173.169 34.4174 174.918 36.5583Z" fill="#37818E"/>
<path d="M213.366 115.81C213.366 118.767 213.309 121.723 213.366 124.68C213.434 127.013 212.213 128.089 210.098 128.117C204.331 128.185 198.622 128.213 192.883 128.117C190.769 128.117 189.644 126.812 189.663 124.556C189.711 118.738 189.663 112.91 189.663 107.092C189.663 104.558 190.961 103.492 193.431 103.511C198.878 103.556 204.325 103.556 209.771 103.511C212.357 103.511 213.386 104.75 213.347 107.217C213.337 110.078 213.376 112.939 213.366 115.81Z" fill="#D3ECFC"/>
<path d="M201.736 135.75C201.314 135.794 200.887 135.748 200.485 135.613C200.082 135.478 199.714 135.258 199.404 134.969C199.094 134.679 198.85 134.327 198.688 133.935C198.527 133.543 198.452 133.121 198.468 132.697C198.391 130.777 199.65 129.817 201.678 129.951C203.485 130.057 204.658 130.806 204.562 132.716C204.466 134.627 203.735 135.865 201.736 135.75Z" fill="#76D4EE"/>
<path d="M135.096 145.024C134.519 149.507 132.376 151.879 127.599 153.175C124.374 154.016 121.08 154.562 117.756 154.807C117.151 151.773 118.083 148.845 118.352 145.878C118.9 140.013 119.505 134.147 120.082 128.291L131.617 141.51C133.097 142.365 134.539 143.258 135.096 145.024Z" fill="#BADFF3"/>
<path d="M100.964 38.7759C101.992 38.7759 103.194 38.7759 103.3 39.7359C103.463 41.1184 102.098 40.4656 101.377 40.6384C100.173 40.9524 99.0234 41.4442 97.9651 42.0976C97.5133 42.3568 96.8693 42.7792 96.4752 42.0976C96.158 41.5504 96.4752 40.984 96.9462 40.5808C98.0409 39.5401 99.4581 38.9034 100.964 38.7759Z" fill="#2B262C"/>
<path d="M116.007 39.1219C116.938 39.0879 117.863 39.2858 118.698 39.6979C119.794 40.3027 121.428 41.0324 120.832 42.2324C120.236 43.4325 119.15 41.8388 118.237 41.618C117.506 41.4356 116.776 41.2436 116.045 41.0324C115.315 40.8212 113.959 41.4548 113.959 40.2164C113.959 38.9779 115.353 39.3523 116.007 39.1219Z" fill="#282428"/>
<path d="M117.064 49.231C116.826 49.2189 116.592 49.1593 116.377 49.0556C116.162 48.9519 115.971 48.8063 115.813 48.6273C115.655 48.4484 115.535 48.2397 115.459 48.0136C115.384 47.7875 115.354 47.5486 115.372 47.311C115.372 46.1589 115.661 45.1605 117.035 45.1221C118.246 45.1221 118.708 46.0245 118.756 47.0422C118.794 47.2975 118.779 47.5578 118.714 47.8076C118.649 48.0574 118.534 48.2914 118.376 48.4957C118.218 48.7001 118.02 48.8705 117.795 48.9968C117.57 49.1232 117.321 49.2028 117.064 49.231Z" fill="#22221D"/>
<path d="M104.107 46.9171C104.107 48.1363 103.819 49.1156 102.637 49.1828C101.281 49.25 100.906 48.2227 100.926 47.0899C100.945 45.957 101.272 44.9682 102.675 45.0546C103.944 45.1122 104.03 46.149 104.107 46.9171Z" fill="#1F1D19"/>
<path d="M87.2958 45.439C87.9398 47.1094 86.1424 49.6536 89.3624 48.5975C89.4568 48.5792 89.5543 48.5839 89.6464 48.6114C89.7386 48.6388 89.8227 48.6881 89.8917 48.7551C89.9606 48.8221 90.0123 48.9047 90.0423 48.996C90.0723 49.0872 90.0798 49.1844 90.0641 49.2791C89.9155 50.1016 89.6227 50.8914 89.199 51.612C88.9395 51.9864 88.3435 51.5352 88.0167 51.18C86.6038 49.6344 86.3827 47.9255 87.2958 45.439Z" fill="#E19A5F"/>
<path d="M113.277 59.5897C110.807 61.7498 108.471 61.7306 105.414 59.1865C108.5 60.473 110.884 61.0874 113.277 59.5897Z" fill="#6B5037"/>
<path d="M135.096 145.024C133.721 144.079 132.537 142.884 131.607 141.5L135.452 140.416C135.567 141.971 135.827 143.536 135.096 145.024Z" fill="#CFA280"/>
</g>
<defs>
<clipPath id="clip0_99_1105">
<rect width="216" height="185" fill="white"/>
</clipPath>
</defs>
</svg>
