<svg width="34" height="34" viewBox="0 0 34 34" fill="none" xmlns="http://www.w3.org/2000/svg">
<path fill-rule="evenodd" clip-rule="evenodd" d="M25.5 3.89575C25.2182 3.89575 24.948 3.78381 24.7487 3.58455C24.5494 3.3853 24.4375 3.11504 24.4375 2.83325C24.4375 2.55146 24.5494 2.28121 24.7487 2.08195C24.948 1.88269 25.2182 1.77075 25.5 1.77075H31.1667C31.3767 1.77094 31.5819 1.83335 31.7565 1.95011C31.931 2.06687 32.0671 2.23275 32.1474 2.42678C32.2277 2.62081 32.2488 2.8343 32.2079 3.04028C32.1669 3.24626 32.0659 3.4355 31.9175 3.58409L28.0642 7.43742H31.1667C31.4485 7.43742 31.7187 7.54936 31.918 7.74862C32.1172 7.94787 32.2292 8.21813 32.2292 8.49992C32.2292 8.78171 32.1172 9.05196 31.918 9.25122C31.7187 9.45048 31.4485 9.56242 31.1667 9.56242H25.5C25.29 9.56223 25.0848 9.49982 24.9102 9.38306C24.7356 9.2663 24.5996 9.10042 24.5193 8.90639C24.4389 8.71236 24.4179 8.49887 24.4588 8.29289C24.4997 8.08691 24.6008 7.89767 24.7492 7.74908L28.6025 3.89575H25.5ZM19.125 12.3958C18.8432 12.3958 18.573 12.2838 18.3737 12.0846C18.1744 11.8853 18.0625 11.615 18.0625 11.3333C18.0625 11.0515 18.1744 10.7812 18.3737 10.582C18.573 10.3827 18.8432 10.2708 19.125 10.2708H23.375C23.585 10.2709 23.7902 10.3334 23.9648 10.4501C24.1394 10.5669 24.2754 10.7327 24.3557 10.9268C24.4361 11.1208 24.4571 11.3343 24.4162 11.5403C24.3753 11.7463 24.2742 11.9355 24.1258 12.0841L21.6892 14.5208H23.375C23.6568 14.5208 23.927 14.6327 24.1263 14.832C24.3256 15.0312 24.4375 15.3015 24.4375 15.5833C24.4375 15.865 24.3256 16.1353 24.1263 16.3346C23.927 16.5338 23.6568 16.6458 23.375 16.6458H19.125C18.915 16.6456 18.7098 16.5832 18.5352 16.4664C18.3606 16.3496 18.2246 16.1838 18.1443 15.9897C18.0639 15.7957 18.0429 15.5822 18.0838 15.3762C18.1247 15.1702 18.2258 14.981 18.3742 14.8324L20.8108 12.3958H19.125Z" fill="url(#paint0_linear_96_764)"/>
<path d="M17 31.1666C24.8243 31.1666 31.1667 24.8242 31.1667 16.9999C31.1667 16.344 30.1835 16.2349 29.845 16.7973C29.1228 17.9935 28.1379 19.0096 26.9649 19.7687C25.7919 20.5279 24.4615 21.0101 23.0745 21.1789C21.6875 21.3478 20.2802 21.1987 18.9594 20.7431C17.6385 20.2876 16.4386 19.5373 15.4506 18.5494C14.4626 17.5614 13.7124 16.3615 13.2568 15.0406C12.8012 13.7197 12.6522 12.3125 12.821 10.9255C12.9898 9.53849 13.4721 8.20809 14.2312 7.03507C14.9904 5.86204 16.0065 4.87715 17.2026 4.155C17.765 3.815 17.656 2.83325 17 2.83325C9.17579 2.83325 2.83337 9.17567 2.83337 16.9999C2.83337 24.8242 9.17579 31.1666 17 31.1666Z" fill="url(#paint1_linear_96_764)"/>
<defs>
<linearGradient id="paint0_linear_96_764" x1="21.6042" y1="0.117974" x2="37.1351" y2="21.3057" gradientUnits="userSpaceOnUse">
<stop stop-color="#1678F2"/>
<stop offset="1" stop-color="#65A8FB"/>
</linearGradient>
<linearGradient id="paint1_linear_96_764" x1="9.91671" y1="-0.314896" x2="39.0371" y2="41.3981" gradientUnits="userSpaceOnUse">
<stop stop-color="#1678F2"/>
<stop offset="1" stop-color="#65A8FB"/>
</linearGradient>
</defs>
</svg>
