<svg width="27" height="179" viewBox="0 0 27 179" fill="none" xmlns="http://www.w3.org/2000/svg">
<g clip-path="url(#clip0_105_1586)">
<path d="M8.75926 105.978C11.7243 114.104 9.88071 173.996 10.7473 176.399C10.9254 177.023 11.2795 177.582 11.7666 178.007C12.2537 178.432 12.8529 178.705 13.4915 178.794L13.6444 178.794C14.2811 178.703 14.8779 178.428 15.3632 178.003C15.8485 177.578 16.2016 177.021 16.3801 176.399C17.2297 173.987 15.3181 114.104 18.2832 105.978C21.2483 97.8523 27.6287 80.6938 26.7196 65.6482C26.1164 55.3839 26.3203 30.6471 26.5072 15.8922C26.5072 15.8922 27.1189 0.966269 13.5425 0.22211L13.3641 0.22211C0.620184 0.932053 0.390801 14.0361 0.416289 15.7297C0.628685 30.4589 0.858074 55.3754 0.271855 65.6653C-0.586233 80.711 5.78569 97.8608 8.75926 105.978Z" fill="white"/>
<path d="M13.5595 0.00855238L13.6359 0.00855239C20.713 0.419123 23.899 4.71301 25.3263 8.24562C26.2785 10.6769 26.7545 13.2706 26.7281 15.8839C26.7369 15.9147 26.7369 15.9473 26.7281 15.978C26.5497 30.1512 26.3373 55.3243 26.9405 65.5886C27.7901 80.4546 21.6051 97.4676 18.6315 105.636L18.4956 106.004C16.584 111.247 16.7284 138.961 16.7964 157.325C16.8559 168.975 16.8729 175.613 16.5755 176.451C16.3919 177.117 16.0192 177.715 15.5031 178.171C14.9869 178.626 14.3498 178.921 13.6699 179.017L13.483 179.017C12.8023 178.92 12.1644 178.626 11.647 178.17C11.1296 177.715 10.755 177.117 10.5689 176.451C10.2715 175.596 10.28 168.984 10.3225 157.334C10.3905 138.995 10.4924 111.273 8.62333 106.013L8.4874 105.653C5.49684 97.4762 -0.722175 80.4803 0.127417 65.6057C0.713636 55.2388 0.467268 29.8775 0.271864 15.6872C0.25731 12.8629 0.836382 10.0674 1.97105 7.48434C4.12051 2.82266 7.91818 0.299373 13.3301 -0.0171072L13.4065 -0.0171072L13.585 -0.0171072L13.5595 0.00855238ZM13.4745 0.41057L13.3811 0.41057C8.12208 0.709943 4.40087 3.15626 2.33637 7.68108C1.22491 10.2114 0.646354 12.9462 0.637182 15.7129C0.832587 29.9203 1.07897 55.2987 0.492748 65.6656C-0.356844 80.4546 5.84517 97.3992 8.82723 105.542L8.96317 105.901C10.9002 111.213 10.7983 137.875 10.7303 157.342C10.6878 167.093 10.6623 175.51 10.9512 176.323C11.1191 176.905 11.4478 177.427 11.899 177.828C12.3503 178.23 12.9055 178.494 13.5 178.589L13.6104 178.589C14.2053 178.495 14.761 178.231 15.2124 177.829C15.6638 177.428 15.9922 176.905 16.1592 176.323C16.4481 175.51 16.4056 167.085 16.3546 157.334C16.2612 137.866 16.1252 111.205 18.0538 105.901L18.1897 105.534C21.1548 97.3821 27.3313 80.429 26.4733 65.6484C25.87 55.3158 26.0824 30.0315 26.2609 15.8754C26.2498 15.8421 26.2498 15.806 26.2609 15.7727C26.2605 13.2467 25.7908 10.7431 24.876 8.39104C22.854 3.40433 19.0223 0.692837 13.4745 0.41057Z" fill="#BBBABA"/>
<path d="M0.416289 15.7297C0.416289 17.2351 0.416291 18.8517 0.484258 20.5453L26.4478 20.6309C26.4478 18.9715 26.4478 17.3805 26.5072 15.8922C26.5072 15.8922 27.1189 0.96625 13.5425 0.222091L13.3641 0.222091C0.620185 0.932034 0.390802 14.0361 0.416289 15.7297Z" fill="url(#paint0_linear_105_1586)"/>
<path d="M13.6869 -0.000237772C27.1869 0.855118 26.7281 15.7212 26.7196 15.8752L26.7196 16.0633C26.7196 17.4918 26.6771 19.0228 26.6602 20.6138L26.6602 20.8105L0.322823 20.7164L0.322823 20.5197C0.322823 18.809 0.280338 17.2095 0.263346 15.7041C0.246354 14.1987 0.475748 0.803794 13.2876 -0.000237807L13.7294 -0.000237769L13.6869 -0.000237772ZM26.3373 15.687C26.3373 13.9763 25.9465 1.10319 13.551 0.418904L13.381 0.418904C0.815585 1.12885 0.637169 14.2329 0.637168 15.7212C0.637168 17.2095 0.679654 18.7235 0.696646 20.3401L26.2693 20.4342C26.2693 18.8432 26.2693 17.3121 26.3203 15.8923L26.3203 15.687L26.3373 15.687Z" fill="#1678F2"/>
<g style="mix-blend-mode:multiply">
<path d="M4.98707 48.541C4.99041 47.4065 5.21568 46.2837 5.65 45.2369C6.08432 44.19 6.7192 43.2396 7.51837 42.4397C8.31755 41.6399 9.26538 41.0064 10.3077 40.5753C11.3501 40.1443 12.4666 39.9242 13.5934 39.9276C15.87 39.9366 18.0499 40.8552 19.6541 42.4815C21.2583 44.1079 22.1556 46.3088 22.1488 48.6008L22.0893 65.5967C22.0849 66.7312 21.8585 67.8538 21.4232 68.9002C20.9878 69.9466 20.352 70.8965 19.5521 71.6955C18.7521 72.4945 17.8036 73.1271 16.7609 73.5571C15.7181 73.9871 14.6014 74.2061 13.4745 74.2016C12.3476 74.1971 11.2327 73.9692 10.1933 73.5309C9.15393 73.0926 8.21049 72.4525 7.41684 71.6471C6.62318 70.8417 5.99486 69.8868 5.56776 68.837C5.14065 67.7871 4.92313 66.6628 4.92761 65.5283L4.98707 48.541Z" fill="#CFD3D7"/>
</g>
<path d="M6.23598 49.277C6.21685 48.2632 6.39685 47.2555 6.76565 46.312C7.13444 45.3684 7.68476 44.5074 8.385 43.7786C9.08524 43.0498 9.9216 42.4674 10.846 42.0649C11.7705 41.6625 12.7648 41.4478 13.7719 41.4334C14.7775 41.4567 15.7688 41.6795 16.6888 42.0892C17.6087 42.4988 18.4394 43.0872 19.1331 43.8206C19.8269 44.554 20.37 45.418 20.7315 46.3631C21.093 47.3082 21.2657 48.3159 21.2398 49.3283L21.1888 64.8102C21.2079 65.8233 21.0282 66.8303 20.6599 67.7733C20.2917 68.7163 19.7421 69.5769 19.0428 70.3056C18.3434 71.0343 17.5081 71.6169 16.5846 72.0198C15.6611 72.4228 14.6678 72.6382 13.6614 72.6538C12.655 72.6316 11.6629 72.4096 10.7419 72.0004C9.82093 71.5913 8.98927 71.0031 8.29464 70.2696C7.60001 69.5361 7.05607 68.6717 6.69405 67.726C6.33202 66.7804 6.15903 65.772 6.185 64.7589L6.23598 49.277Z" fill="#ADB0B0"/>
<path d="M13.6614 72.6538C14.6677 72.6382 15.6611 72.4228 16.5846 72.0198C17.508 71.6169 18.3434 71.0343 19.0427 70.3056C19.7421 69.5769 20.2917 68.7163 20.6599 67.7733C21.0282 66.8303 21.2079 65.8233 21.1888 64.8102L21.2397 49.3283C21.2914 48.3065 21.1365 47.2847 20.7845 46.3249C20.4325 45.3651 19.8906 44.4871 19.1918 43.7443C18.4929 43.0015 17.6516 42.4091 16.7187 42.0032C15.7858 41.5973 14.7809 41.3862 13.7646 41.3827C12.7483 41.3792 11.7419 41.5834 10.8063 41.983C9.87075 42.3825 9.02544 42.9691 8.32158 43.7071C7.61772 44.4451 7.06996 45.3194 6.71147 46.2767C6.35298 47.2341 6.19121 48.2548 6.23596 49.277L6.18498 64.7589C6.15902 65.772 6.33201 66.7804 6.69403 67.726C7.05606 68.6717 7.59999 69.5361 8.29462 70.2696C8.98926 71.0031 9.82091 71.5913 10.7419 72.0004C11.6628 72.4096 12.655 72.6316 13.6614 72.6538ZM6.93263 49.9527C6.93263 48.1379 7.64871 46.3974 8.92334 45.1141C10.198 43.8308 11.9268 43.1099 13.7294 43.1099C15.532 43.1099 17.2607 43.8308 18.5354 45.1141C19.81 46.3974 20.5261 48.1379 20.5261 49.9527L20.4751 63.9976C20.4684 65.8125 19.7458 67.5503 18.4664 68.8287C17.187 70.1072 15.4555 70.8216 13.6529 70.8148C11.8503 70.808 10.1242 70.0805 8.85435 68.7924C7.58449 67.5044 6.8749 65.7611 6.88166 63.9463L6.93263 49.9527Z" fill="white"/>
<path d="M13.7378 41.3392C15.7938 41.3885 17.7461 42.2578 19.1656 43.7559C20.5851 45.254 21.3556 47.2583 21.3077 49.3282L21.2567 64.8101C21.2864 66.8765 20.5039 68.871 19.0798 70.3593C17.6556 71.8476 15.7051 72.7092 13.6529 72.7563C11.5955 72.7048 9.64231 71.8339 8.22169 70.3347C6.80106 68.8355 6.02891 66.8303 6.07453 64.7588L6.12552 49.2769C6.09814 47.2105 6.88275 45.2169 8.30851 43.7302C9.73426 42.2435 11.6857 41.3841 13.7378 41.3392ZM13.6869 72.551C15.6782 72.5061 17.5718 71.6729 18.957 70.2318C20.3422 68.7908 21.1074 66.8581 21.0868 64.8529L21.1463 49.3709C21.1874 47.3537 20.4341 45.402 19.0508 43.9421C17.6675 42.4821 15.7667 41.6325 13.7633 41.5787C11.7638 41.6236 9.8629 42.4625 8.47514 43.9126C7.08738 45.3626 6.32525 47.3062 6.3549 49.3196L6.30392 64.8015C6.25602 66.8192 7.00594 68.7735 8.3888 70.2347C9.77167 71.696 11.6743 72.5445 13.6784 72.5938L13.6869 72.551ZM13.7378 42.7419C14.6567 42.7425 15.5657 42.9326 16.4088 43.3003C17.2519 43.6681 18.0112 44.2058 18.64 44.8803C19.9441 46.2645 20.663 48.1047 20.645 50.0125L20.6025 64.0403C20.6299 65.9168 19.919 67.728 18.6251 69.0788C17.3311 70.4296 15.559 71.2105 13.6954 71.2509C12.7815 71.2429 11.8786 71.0494 11.0406 70.682C10.2027 70.3145 9.44702 69.7808 8.81872 69.1125C7.51925 67.726 6.80368 65.8866 6.82217 63.9804L6.87315 49.944C6.84788 48.0763 7.55393 46.2735 8.83857 44.9257C10.1232 43.578 11.8832 42.7935 13.7378 42.7419ZM13.6869 71.1483L13.6869 71.0456C15.4979 71.0052 17.2194 70.2448 18.4754 68.9306C19.7314 67.6164 20.4198 65.8552 20.3901 64.0317L20.4411 49.9954C20.4559 48.1452 19.7587 46.3611 18.4956 45.0172C17.8878 44.366 17.1549 43.846 16.3414 43.4887C15.528 43.1314 14.6508 42.9443 13.7633 42.9387C11.9493 42.9769 10.2239 43.7357 8.96336 45.0497C7.70284 46.3636 7.00951 48.126 7.03457 49.9526L6.9836 63.989C6.97104 65.8412 7.66781 67.6272 8.92916 68.9757C9.53858 69.6241 10.272 70.1417 11.0852 70.4974C11.8984 70.8532 12.7747 71.0396 13.6614 71.0456L13.6869 71.1483Z" fill="#909090"/>
<path opacity="0.5" d="M20.5176 55.9825L20.5176 64.04C20.5109 65.8548 19.7883 67.5926 18.5089 68.8711C17.2295 70.1495 15.498 70.864 13.6954 70.8572C11.8928 70.8504 10.1667 70.1229 8.89688 68.8348C7.62702 67.5467 6.91741 65.8035 6.92417 63.9887L6.92417 55.9312L6.22752 55.9312L6.22751 64.7585C6.17586 65.7803 6.33074 66.8021 6.68276 67.7619C7.03478 68.7217 7.57663 69.5996 8.27549 70.3425C8.97435 71.0853 9.81568 71.6777 10.7486 72.0836C11.6814 72.4895 12.6864 72.7006 13.7027 72.7041C14.7189 72.7075 15.7253 72.5033 16.6609 72.1038C17.5965 71.7042 18.4418 71.1177 19.1457 70.3797C19.8495 69.6416 20.3973 68.7674 20.7558 67.81C21.1143 66.8527 21.2761 65.832 21.2313 64.8098L21.2313 55.9825L20.5176 55.9825Z" fill="#909191"/>
<path d="M9.7135 58.1306L9.71515 57.6772L9.26487 57.6756L9.26322 58.1289L9.7135 58.1306Z" fill="#1D1D1B"/>
<path d="M11.4525 66.5376L11.2061 66.281L11.3505 66.127L12.9478 66.127L12.54 66.5376L11.4525 66.5376Z" fill="#1D1D1B"/>
<path d="M9.71081 66.5293L9.303 66.1187L10.8917 66.1273L11.0532 66.2812L10.7983 66.5293L9.71081 66.5293Z" fill="#1D1D1B"/>
<path d="M13.0073 68.3428L12.6079 67.9322L12.6079 66.6064L13.0157 66.2044L13.0073 68.3428Z" fill="#1D1D1B"/>
<path d="M9.21804 68.3257L9.22654 66.1958L9.63434 66.5979L9.63434 67.9237L9.21804 68.3257Z" fill="#1D1D1B"/>
<path d="M14.2816 59.4382L13.7124 58.8566L14.0522 58.5144L17.6545 58.523L16.7284 59.4468L14.2816 59.4382Z" fill="#1D1D1B"/>
<path d="M10.3395 59.4211L9.43047 58.4973L13.0157 58.5059L13.3641 58.8566L12.7864 59.4297L10.3395 59.4211Z" fill="#1D1D1B"/>
<path d="M17.7989 63.5186L16.8814 62.6033L16.8899 59.6096L17.8074 58.6944L17.7989 63.5186Z" fill="#1D1D1B"/>
<path d="M9.23507 63.4844L9.25206 58.6687L10.1696 59.584L10.1611 62.5777L9.23507 63.4844Z" fill="#1D1D1B"/>
<path d="M14.0352 63.6723L13.6954 63.3388L14.2731 62.7486L16.72 62.7571L17.6375 63.6895L14.0352 63.6723Z" fill="#1D1D1B"/>
<path d="M9.41342 63.6638L10.331 62.74L12.7778 62.7486L13.3555 63.3388L12.9987 63.6724L9.41342 63.6638Z" fill="#1D1D1B"/>
<path d="M14.2816 53.22L13.7124 52.6383L14.0522 52.2962L17.6545 52.3047L16.7284 53.2285L14.2816 53.22Z" fill="#1D1D1B"/>
<path d="M10.3395 53.2112L9.43047 52.2788L13.0157 52.2959L13.3641 52.6381L12.7864 53.2197L10.3395 53.2112Z" fill="#1D1D1B"/>
<path d="M17.7989 57.2998L16.8814 56.3846L16.8899 53.3908L17.8074 52.4842L17.7989 57.2998Z" fill="#1D1D1B"/>
<path d="M9.23507 57.2744L9.25206 52.4502L10.1696 53.3654L10.1611 56.3592L9.23507 57.2744Z" fill="#1D1D1B"/>
<path d="M14.0352 57.4626L13.6954 57.1205L14.2731 56.5389L16.72 56.5474L17.6375 57.4712L14.0352 57.4626Z" fill="#1D1D1B"/>
<path d="M9.41342 57.4456L10.331 56.5218L12.7778 56.5303L13.3555 57.1205L12.9987 57.4541L9.41342 57.4456Z" fill="#1D1D1B"/>
<path d="M14.2816 46.6252L13.7124 46.0436L14.0522 45.7015L17.6545 45.71L16.7284 46.6338L14.2816 46.6252Z" fill="#1D1D1B"/>
<path d="M10.3395 46.6079L9.43047 45.6841L13.0157 45.7012L13.3641 46.0434L12.7864 46.625L10.3395 46.6079Z" fill="#1D1D1B"/>
<path d="M17.7989 50.7051L16.8814 49.7899L16.8899 46.7961L17.8074 45.8894L17.7989 50.7051Z" fill="#1D1D1B"/>
<path d="M9.23507 50.6709L9.25206 45.8552L10.1696 46.7705L10.1611 49.7642L9.23507 50.6709Z" fill="#1D1D1B"/>
<path d="M14.0352 50.8594L13.6954 50.5258L14.2731 49.9441L16.72 49.9527L17.6375 50.8765L14.0352 50.8594Z" fill="#1D1D1B"/>
<path d="M9.41342 50.8508L10.331 49.927L12.7778 49.9356L13.3555 50.5258L12.9987 50.8594L9.41342 50.8508Z" fill="#1D1D1B"/>
<path d="M12.6079 65.7422C12.5178 65.7422 12.4314 65.7061 12.3676 65.642C12.3039 65.5778 12.2681 65.4908 12.2681 65.4001C12.2681 65.3093 12.3039 65.2223 12.3676 65.1581C12.4314 65.094 12.5178 65.0579 12.6079 65.0579C12.6529 65.0567 12.6976 65.0648 12.7393 65.0815C12.7811 65.0983 12.819 65.1235 12.8508 65.1555C12.8826 65.1875 12.9076 65.2257 12.9243 65.2677C12.9409 65.3098 12.9489 65.3548 12.9478 65.4001C12.9478 65.4908 12.912 65.5778 12.8482 65.642C12.7845 65.7061 12.6981 65.7422 12.6079 65.7422Z" fill="#1D1D1B"/>
<g style="mix-blend-mode:multiply">
<path d="M0.416267 15.7297C0.628663 30.4589 0.858052 55.3754 0.271833 65.6653C-0.57776 80.711 5.78568 97.8608 8.76774 105.978C11.7498 114.095 9.8892 173.996 10.7558 176.399C10.9339 177.023 11.288 177.582 11.7751 178.007C12.2622 178.432 12.8614 178.705 13.5 178.794L13.6529 178.794C14.2896 178.703 14.8864 178.428 15.3717 178.003C15.857 177.578 16.2101 177.021 16.3886 176.399C17.2382 173.987 15.3266 114.104 18.2917 105.978C21.2567 97.8523 27.6372 80.6938 26.7281 65.6482C26.1249 55.3839 26.3288 30.6471 26.5157 15.8922C26.5157 15.8922 27.1274 0.966269 13.5509 0.22211L13.3725 0.22211C0.628666 0.932053 0.39927 14.0361 0.424758 15.7297L0.416267 15.7297ZM10.4075 5.79047C11.4345 5.34603 12.5633 5.19509 13.6699 5.35424C14.7781 5.20355 15.9061 5.3603 16.9323 5.80757C25.1224 7.313 23.9669 24.4372 23.9669 24.4372C23.9669 24.4372 24.1283 56.6926 23.8225 68.3767C23.5166 80.0609 20.1438 92.3267 17.5355 98.0319C14.9273 103.737 14.8933 111.273 14.8933 111.273C14.8933 111.273 14.8933 153.185 14.7404 155.837C14.6214 158.121 13.4745 158.061 13.1431 158.001C12.8118 157.941 11.6648 158.112 11.5629 155.828C11.4355 153.151 11.7158 111.264 11.7158 111.264C11.7158 111.264 11.7158 103.763 9.16704 97.9977C6.61827 92.2326 3.31336 80.0352 3.09247 68.3083C2.87158 56.5814 3.24541 24.3688 3.24541 24.3688C3.24541 24.3688 2.25138 7.22747 10.4075 5.79047Z" fill="#CFD3D7"/>
</g>
<path d="M10.5094 158.907C10.5094 168.419 10.4585 175.595 10.7473 176.399C10.9254 177.023 11.2795 177.582 11.7666 178.007C12.2537 178.432 12.8529 178.705 13.4915 178.794L13.6444 178.794C14.2811 178.703 14.8779 178.428 15.3633 178.003C15.8486 177.578 16.2017 177.021 16.3801 176.399C16.669 175.595 16.6435 168.428 16.601 158.925L10.5094 158.907Z" fill="#ACACAC"/>
<path d="M10.5094 158.702L16.601 158.702C16.6528 158.702 16.7025 158.723 16.7392 158.76C16.7758 158.797 16.7964 158.847 16.7964 158.899C16.8474 169.266 16.8559 175.621 16.567 176.442C16.3835 177.108 16.0107 177.706 15.4946 178.162C14.9784 178.618 14.3413 178.912 13.6614 179.008L13.4745 179.008C12.7939 178.911 12.1559 178.617 11.6385 178.161C11.1211 177.706 10.7465 177.108 10.5604 176.442C10.2715 175.63 10.2715 169.266 10.3055 158.873C10.3119 158.824 10.3364 158.779 10.3742 158.748C10.412 158.716 10.4603 158.7 10.5094 158.702ZM16.3971 159.121L10.7048 159.121C10.7048 167.23 10.6454 175.544 10.9342 176.348C11.1021 176.93 11.4308 177.452 11.8821 177.854C12.3333 178.255 12.8885 178.519 13.483 178.615L13.5934 178.615C14.1883 178.52 14.744 178.256 15.1954 177.855C15.6468 177.453 15.9753 176.931 16.1422 176.348C16.4821 175.493 16.4396 167.222 16.3546 159.121L16.3971 159.121Z" fill="#6B6B6A"/>
<g style="mix-blend-mode:screen">
<path d="M14.562 160.285L12.6334 160.285C12.3106 160.362 11.8518 160.755 11.8518 161.636L11.8008 174.467C11.8008 174.467 11.6309 177.683 13.6869 177.486C14.2008 177.262 14.6307 176.88 14.9148 176.394C15.1988 175.908 15.3222 175.344 15.2671 174.783L15.3096 161.294C15.2077 160.644 15.0972 160.43 14.562 160.285Z" fill="#8C8A8B"/>
</g>
<g style="mix-blend-mode:screen">
<path d="M14.7574 161.106L13.9078 161.106C13.7719 161.174 13.5765 161.534 13.5765 162.329L13.5765 173.876C13.5765 173.876 13.5 176.776 14.3751 176.588C14.3751 176.588 15.0887 176.049 15.0547 174.15L15.0972 161.978C15.0378 161.422 14.9868 161.234 14.7574 161.106Z" fill="white"/>
</g>
<g style="mix-blend-mode:multiply">
<path d="M8.57236 29.8601C8.57236 26.3959 10.8153 23.5904 13.551 23.5989C16.2866 23.6075 18.5041 26.4301 18.4871 29.8943C18.4701 33.3585 16.2442 36.1555 13.5085 36.147C10.7728 36.1384 8.56386 33.3243 8.57236 29.8601Z" fill="#CFD3D7"/>
</g>
<path d="M9.50693 30.228C9.50693 27.1487 11.359 24.6596 13.619 24.6682C15.8789 24.6767 17.7055 27.1829 17.697 30.2537C17.6885 33.3244 15.8449 35.822 13.5765 35.8135C11.3081 35.8049 9.48994 33.3073 9.50693 30.228Z" fill="#DEDEDE"/>
<path d="M13.6104 24.4713C15.9808 24.4713 17.8584 27.0373 17.8584 30.2535C17.8584 33.4696 15.9213 36.0186 13.5595 36.0186C12.9504 35.9976 12.3548 35.8317 11.8217 35.5343C11.2886 35.237 10.8331 34.8167 10.4924 34.3078C9.67134 33.1163 9.24333 31.6949 9.26903 30.2449C9.32 27.0544 11.2571 24.4713 13.6104 24.4713ZM13.6104 35.5909C15.7684 35.5909 17.5186 33.1959 17.5271 30.2364C17.5356 27.2768 15.8279 24.8647 13.6529 24.8562C11.512 24.8562 9.75329 27.2597 9.7448 30.2107C9.71563 31.5752 10.1172 32.9139 10.8918 34.0341C11.1828 34.4924 11.5781 34.8743 12.045 35.148C12.5119 35.4217 13.0369 35.5794 13.5765 35.608L13.6104 35.5909Z" fill="#BBBABA"/>
<path d="M10.348 30.818C10.348 28.3803 11.8178 26.4044 13.6104 26.4129C15.4031 26.4215 16.8559 28.3974 16.8474 30.8351C16.8389 33.2729 15.3776 35.2488 13.5849 35.2402C11.7923 35.2317 10.3395 33.2558 10.348 30.818Z" fill="white"/>
<g style="mix-blend-mode:screen">
<path d="M8.89522 19.8183L22.5567 19.8696C22.5567 19.8696 22.6501 18.33 14.3751 18.2958C3.80617 18.2958 5.14003 19.8097 5.14003 19.8097L8.89522 19.8183Z" fill="url(#paint1_linear_105_1586)"/>
</g>
</g>
<defs>
<linearGradient id="paint0_linear_105_1586" x1="19.9873" y1="22.8985" x2="1.19114" y2="-11.5292" gradientUnits="userSpaceOnUse">
<stop stop-color="#1678F2"/>
<stop offset="1" stop-color="#65A8FB"/>
</linearGradient>
<linearGradient id="paint1_linear_105_1586" x1="18.189" y1="20.0445" x2="17.9731" y2="16.6118" gradientUnits="userSpaceOnUse">
<stop stop-color="#1678F2"/>
<stop offset="1" stop-color="#65A8FB"/>
</linearGradient>
<clipPath id="clip0_105_1586">
<rect width="27" height="179" fill="white" transform="translate(27 179) rotate(-180)"/>
</clipPath>
</defs>
</svg>
