<svg width="39" height="39" viewBox="0 0 39 39" fill="none" xmlns="http://www.w3.org/2000/svg">
<path d="M20.1947 4.57956C20.1089 4.47934 20.0024 4.39889 19.8825 4.34373C19.7627 4.28857 19.6323 4.26001 19.5004 4.26001C19.3684 4.26001 19.2381 4.28857 19.1182 4.34373C18.9984 4.39889 18.8919 4.47934 18.8061 4.57956C16.3945 7.4002 8.53125 17.1517 8.53125 24.3751C8.53125 31.1064 12.7695 35.3439 19.5 35.3439C26.2305 35.3439 30.4688 31.1064 30.4688 24.3751C30.4688 17.1517 22.6055 7.4002 20.1947 4.57956ZM20.7188 31.3829C20.5723 31.3832 20.428 31.3484 20.2979 31.2813C20.1678 31.2142 20.0557 31.1169 19.971 30.9974C19.8863 30.878 19.8316 30.7399 19.8114 30.5949C19.7912 30.4499 19.8062 30.3022 19.855 30.1642C19.9173 29.9841 20.0348 29.8282 20.1909 29.7188C20.3469 29.6094 20.5335 29.552 20.7241 29.5548C21.934 29.5522 23.0936 29.0704 23.9491 28.2149C24.8047 27.3593 25.2864 26.1997 25.2891 24.9898C25.2863 24.7993 25.3437 24.6127 25.4531 24.4566C25.5625 24.3006 25.7183 24.183 25.8984 24.1207C26.0365 24.0719 26.1842 24.057 26.3292 24.0771C26.4742 24.0973 26.6122 24.1521 26.7317 24.2367C26.8511 24.3214 26.9485 24.4335 27.0156 24.5636C27.0827 24.6937 27.1175 24.8381 27.1172 24.9845C27.1154 26.6809 26.4407 28.3073 25.2411 29.5069C24.0416 30.7064 22.4152 31.3811 20.7188 31.3829Z" fill="url(#paint0_linear_96_734)"/>
<defs>
<linearGradient id="paint0_linear_96_734" x1="14.0156" y1="0.806249" x2="48.0462" y2="35.2092" gradientUnits="userSpaceOnUse">
<stop stop-color="#1678F2"/>
<stop offset="1" stop-color="#65A8FB"/>
</linearGradient>
</defs>
</svg>
